<svg xmlns="http://www.w3.org/2000/svg" width="21" height="20" fill="none"><path fill="#fff" d="M6.594 0a6.5 6.5 0 0 1 1.922.348h.062q.063.031.095.062c.232.075.451.159.661.275l.4.178c.157.085.346.242.45.306.106.062.221.126.316.199A6.57 6.57 0 0 1 14.542 0a6.1 6.1 0 0 1 1.953.306c3.876 1.263 5.272 5.526 4.106 9.252a13.4 13.4 0 0 1-3.16 5.062 40.4 40.4 0 0 1-6.647 5.221L10.53 20l-.273-.17a40 40 0 0 1-6.687-5.22A13.6 13.6 0 0 1 .41 9.558C-.777 5.832.62 1.568 4.537.283q.459-.157.933-.22h.126Q6.04 0 6.478 0zm9.355 3.327a.84.84 0 0 0-1.06.526.86.86 0 0 0 .525 1.083 1.76 1.76 0 0 1 1.123 1.653v.032a.9.9 0 0 0 .2.653.88.88 0 0 0 .598.305.864.864 0 0 0 .83-.8v-.126c.031-1.475-.86-2.81-2.216-3.326"/></svg>