<svg xmlns="http://www.w3.org/2000/svg" width="58" height="83" fill="none"><path fill="#00C700" fill-rule="evenodd" d="M36.04 12.078c-.007-.008-.016.025-.025.037.023-.108 0-.032.04-.134a.7.7 0 0 1 .144-.243zM1.673 5.96c.176.132.474.248.7.377.551.315 1.453 1.01 1.93 1.445 2.442 2.226 4.454 5.796 6.317 8.658 2.006 3.08 3.945 5.703 6.938 7.51.557.335 2.313 1.126 3.054 1.171-.004-1.657.401-3.594.902-5.136.398-1.225.914-2.325 1.476-3.448.155-.311.525-.81.55-1.147-.628-.639-4.21-3.16-4.885-3.565-1.398-.841-2.37-1.535-3.832-2.292l-1.33-.704c.466.062 2.364.85 2.836 1.075 2.538 1.205 4.226 2.13 6.551 3.684.363.242.924.706 1.259.86.217-.19.892-1.296 1.21-1.734 1.313-1.802 2.69-3.325 4.324-4.919-.401-.54-2.042-1.514-2.64-1.86-.896-.516-1.936-.94-2.998-1.336-5.441-2.024-12.746-2.026-18.48-.266-.82.251-3.417 1.158-3.884 1.626zm34.342 6.155c-.039.317-.234.647-.36.97l-.974 2.862c-2.097 6.29-3.118 14.278-3.04 21.023.018 1.459-.105 1.264 1.36.71 18.676-7.088 9.136-22.094 9.913-33.018.184-2.596.751-3.192.902-4.046C37.28 2.5 32.146 6.2 27.956 10.954l-1.784 2.212-1.53 2.306c-1.52 2.417-3.441 6.805-3.06 11.002.305 3.346 2.082 6.513 4.571 8.414.591.45 1.633 1.275 2.273 1.55.088.414-.122 2.274-.157 2.88-.04.698-.167 2.188-.078 2.84l1.628-.207c.094-.366.04-1.568.046-2.063.079-4.991.325-8.916 1.24-13.888.522-2.845 1.096-4.648 1.92-7.263.308-.985 2.44-6.197 2.99-6.622m17.886 38.059L30.822 65.467V82.97l23.322-15.533zm3.642-25.507-26.72 18.22v17.49l26.965-18.46zM4.102 50.174l23.076 15.293V82.97L3.856 67.437zM.455 24.667l26.723 18.22v17.49L.213 41.918z" clip-rule="evenodd" opacity=".7"/></svg>