<svg xmlns="http://www.w3.org/2000/svg" width="46" height="39" fill="none"><path fill="#00C700" d="M35.533 16.814a13.7 13.7 0 0 1 1.37 3.386q.45 1.76.472 3.633v2.325L23 33.403 8.625 26.158q0-1.354.022-2.528.023-1.173.203-2.28.18-1.105.539-2.211t1.078-2.325l-4.717-2.37v13.249q.652.224 1.168.632.516.406.92.948.405.54.585 1.173.18.631.202 1.332V39H0v-7.222q0-.678.202-1.31.203-.631.584-1.195.382-.566.899-.948a4.7 4.7 0 0 1 1.19-.632V13L0 11.556 23 0l23 11.556zM5.75 31.778q0-.587-.427-1.016a1.38 1.38 0 0 0-1.01-.429q-.585 0-1.011.43a1.4 1.4 0 0 0-.427 1.015v4.333H5.75zm.674-20.222L23 19.884l16.576-8.328L23 3.227zM34.5 24.375q0-1.738-.337-3.227-.336-1.491-1.19-3.047L23 23.11l-9.973-5.01q-.74 1.308-1.123 2.753-.381 1.444-.404 2.98v.541L23 30.153z"/></svg>