<svg xmlns="http://www.w3.org/2000/svg" width="40" height="40" fill="none"><path stroke="#00C700" stroke-width="2.5" d="M28.777 6.454a2.553 2.553 0 0 1 3.61 0l1.755 1.756a2.66 2.66 0 0 1 0 3.764l-.234.234c-.697.697-.83 1.772-.46 2.686.374.926 1.232 1.594 2.231 1.594h.335a2.66 2.66 0 0 1 2.66 2.66v2.378a2.66 2.66 0 0 1-2.66 2.66h-.335c-1 0-1.857.667-2.232 1.594-.37.913-.236 1.988.461 2.685l.234.235a2.66 2.66 0 0 1 0 3.763l-1.756 1.756a2.55 2.55 0 0 1-3.61 0l-.139-.14c-.741-.74-1.893-.864-2.855-.447-.931.404-1.597 1.279-1.597 2.294v.192a2.556 2.556 0 0 1-2.555 2.555h-2.737a2.405 2.405 0 0 1-2.405-2.405c0-1.103-.755-2.044-1.782-2.447-.993-.391-2.16-.25-2.915.504a2.4 2.4 0 0 1-3.398 0l-2.119-2.12a2.297 2.297 0 0 1 0-3.248c.741-.741.868-1.884.45-2.845l-.113-.271c-.393-.957-1.281-1.656-2.315-1.656A2.296 2.296 0 0 1 2 21.89v-3.105a2.296 2.296 0 0 1 2.296-2.296c1.034 0 1.922-.7 2.315-1.656l.114-.27c.417-.962.29-2.104-.451-2.845a2.297 2.297 0 0 1 0-3.25l2.12-2.119a2.403 2.403 0 0 1 3.397 0c.754.755 1.922.895 2.915.505 1.027-.404 1.782-1.345 1.782-2.448A2.405 2.405 0 0 1 18.893 2h2.736a2.556 2.556 0 0 1 2.556 2.556v.191c0 1.016.666 1.89 1.597 2.294.962.417 2.114.294 2.855-.447z"/><path stroke="#00C700" stroke-linecap="round" stroke-width="2.5" d="m13.195 25.548 4.667-9.955a.143.143 0 0 1 .26.003l4.338 9.952m-7.335-2.703h4.632m6.95 2.703V15.51"/></svg>