<svg width="46" height="45" viewBox="0 0 46 45" fill="none" xmlns="http://www.w3.org/2000/svg">
<path d="M21.3325 0V1.35813L21.889 10.2268L14.4911 5.30883L13.314 4.62867L11.6953 7.43325L12.8746 8.11121L20.8312 12.0641L12.8746 16.0126L11.6953 16.6906L13.314 19.4952L14.4911 18.815L21.8912 13.897L21.3347 22.7657V24.1238H24.5699V22.7657L24.0112 13.897L31.4113 18.815L32.5884 19.493L34.2071 16.6906L33.03 16.0126L25.0712 12.0619L33.03 8.11121L34.2071 7.43104L32.5884 4.62867L31.4113 5.30883L24.0112 10.2268L24.5699 1.35813V0H21.3325ZM9.63717 20.2548V21.613L10.1959 30.4794L2.79575 25.5637L1.61871 24.8835L0 27.6881L1.17704 28.366L9.13808 32.3167L1.17704 36.2652L0 36.9454L1.61871 39.75L2.79575 39.0698L10.1959 34.1519L9.63717 43.0183V44.3787H12.8724V43.0183L12.3159 34.1519L19.716 39.0698L20.893 39.7478L22.5117 36.9454L21.3347 36.2652L13.3759 32.3167L21.3347 28.3638L22.5117 27.6859L20.893 24.8813L19.716 25.5637L12.3159 30.4794L12.8746 21.613V20.2548H9.63717ZM33.0234 20.2548V21.613L33.5821 30.4794L26.1842 25.5637L25.0072 24.8835L23.3885 27.6881L24.5633 28.366L32.5243 32.3167L24.5633 36.2652L23.3885 36.9454L25.0072 39.75L26.182 39.0698L33.5821 34.1519L33.0234 43.0183V44.3787H36.2608V43.0183L35.7021 34.1519L43.1045 39.0698L44.2793 39.7478L45.898 36.9454L44.721 36.2652L36.7621 32.3167L44.721 28.3638L45.898 27.6859L44.2793 24.8813L43.1045 25.5637L35.7021 30.4794L36.2608 21.613V20.2548H33.0234Z" fill="white"/>
</svg>
