<svg xmlns="http://www.w3.org/2000/svg" width="38" height="36" fill="none"><path fill="#00C700" fill-rule="evenodd" d="M1.727 0C1.27 0 .83.19.506.527A1.84 1.84 0 0 0 0 1.8v25.198c0 2.437 1.55 4.496 3.677 5.169A5.4 5.4 0 0 0 5.503 34.9a5.05 5.05 0 0 0 3.017 1.098 5.03 5.03 0 0 0 3.062-.956 5.4 5.4 0 0 0 1.94-2.646h10.955a5.4 5.4 0 0 0 1.941 2.646c.899.647 1.97.981 3.062.956a5.05 5.05 0 0 0 3.017-1.098 5.4 5.4 0 0 0 1.826-2.734 5.2 5.2 0 0 0 2.658-1.952A5.55 5.55 0 0 0 38 26.999v-7.2a9.3 9.3 0 0 0-.657-3.443 9 9 0 0 0-1.873-2.92 8.6 8.6 0 0 0-2.801-1.95 8.3 8.3 0 0 0-3.305-.686h-6.91v-9a1.84 1.84 0 0 0-.505-1.272A1.7 1.7 0 0 0 20.727 0zm22.75 28.798h-2.023v-14.4h6.91c1.374 0 2.692.57 3.664 1.582a5.52 5.52 0 0 1 1.517 3.818v7.2c0 .477-.182.935-.506 1.272a5.3 5.3 0 0 0-2.028-2.315 5 5 0 0 0-2.922-.75 5.06 5.06 0 0 0-2.829 1.067 5.4 5.4 0 0 0-1.783 2.526m-17.062.527c.16-.172.35-.31.56-.403a1.67 1.67 0 0 1 1.904.38q.245.257.377.592a1.87 1.87 0 0 1-.011 1.392c-.09.22-.222.418-.387.584a1.7 1.7 0 0 1-1.215.505 1.7 1.7 0 0 1-1.207-.527 1.84 1.84 0 0 1-.506-1.257c-.004-.472.17-.927.485-1.266m20.221 1.272c0-.477.182-.935.506-1.272a1.7 1.7 0 0 1 1.222-.527c.458 0 .897.19 1.221.527s.506.795.506 1.272c0 .478-.182.936-.506 1.273a1.7 1.7 0 0 1-1.221.527c-.459 0-.898-.19-1.222-.527a1.84 1.84 0 0 1-.506-1.273" clip-rule="evenodd"/></svg>