<svg xmlns="http://www.w3.org/2000/svg" width="37" height="36" fill="none"><path fill="#141416" d="M22 1.656v14.958c0 1.836-1.522 3.33-3.392 3.33H1.833c-1.008 0-1.833-.81-1.833-1.8V6.642C0 2.97 3.025 0 6.765 0h13.53C21.248 0 22 .738 22 1.656"/><path fill="#141416" d="M35.75 24.3a.9.9 0 0 1 .917.9V27c0 2.989-2.457 5.4-5.5 5.4 0-2.97-2.475-5.4-5.5-5.4s-5.5 2.43-5.5 5.4H16.5c0-2.97-2.475-5.4-5.5-5.4s-5.5 2.43-5.5 5.4C2.457 32.4 0 29.99 0 27v-3.6c0-.99.825-1.8 1.833-1.8H19.25c2.53 0 4.583-2.015 4.583-4.5V7.2c0-.99.825-1.8 1.834-1.8h1.54c1.32 0 2.53.702 3.19 1.818l1.173 2.016c.165.288-.055.666-.403.666-2.53 0-4.584 2.016-4.584 4.5v5.4c0 2.485 2.054 4.5 4.584 4.5z"/><path fill="#141416" d="M11 36c2.026 0 3.667-1.61 3.667-3.6 0-1.987-1.641-3.6-3.666-3.6s-3.667 1.613-3.667 3.6c0 1.99 1.642 3.6 3.667 3.6m14.666 0c2.025 0 3.666-1.61 3.666-3.6 0-1.987-1.641-3.6-3.666-3.6S22 30.414 22 32.4c0 1.99 1.642 3.6 3.667 3.6m11-17.046V21.6h-5.5c-1.008 0-1.833-.81-1.833-1.8v-5.4c0-.99.825-1.8 1.833-1.8h2.365l2.659 4.572c.311.54.476 1.152.476 1.782"/></svg>