<svg width="40" height="40" viewBox="0 0 40 40" fill="none" xmlns="http://www.w3.org/2000/svg">
<path fill-rule="evenodd" clip-rule="evenodd" d="M20 0C20.5894 0 21.1546 0.234126 21.5713 0.650874C21.9881 1.06762 22.2222 1.63285 22.2222 2.22222V4.6C25.5471 5.07914 28.6276 6.62173 31.0029 8.99707C33.3783 11.3724 34.9209 14.4529 35.4 17.7778H37.7778C38.3671 17.7778 38.9324 18.0119 39.3491 18.4287C39.7659 18.8454 40 19.4106 40 20C40 20.5894 39.7659 21.1546 39.3491 21.5713C38.9324 21.9881 38.3671 22.2222 37.7778 22.2222H35.4C34.9209 25.5471 33.3783 28.6276 31.0029 31.0029C28.6276 33.3783 25.5471 34.9209 22.2222 35.4V37.7778C22.2222 38.3671 21.9881 38.9324 21.5713 39.3491C21.1546 39.7659 20.5894 40 20 40C19.4106 40 18.8454 39.7659 18.4287 39.3491C18.0119 38.9324 17.7778 38.3671 17.7778 37.7778V35.4C14.4529 34.9209 11.3724 33.3783 8.99707 31.0029C6.62173 28.6276 5.07914 25.5471 4.6 22.2222H2.22222C1.63285 22.2222 1.06762 21.9881 0.650874 21.5713C0.234126 21.1546 0 20.5894 0 20C0 19.4106 0.234126 18.8454 0.650874 18.4287C1.06762 18.0119 1.63285 17.7778 2.22222 17.7778H4.6C5.08085 14.4536 6.62399 11.3741 8.99903 8.99903C11.3741 6.62399 14.4536 5.08085 17.7778 4.6V2.22222C17.7778 1.63285 18.0119 1.06762 18.4287 0.650874C18.8454 0.234126 19.4106 0 20 0ZM8.88889 20C8.88889 17.0532 10.0595 14.227 12.1433 12.1433C14.227 10.0595 17.0532 8.88889 20 8.88889C22.9469 8.88889 25.773 10.0595 27.8567 12.1433C29.9405 14.227 31.1111 17.0532 31.1111 20C31.1111 22.9469 29.9405 25.773 27.8567 27.8567C25.773 29.9405 22.9469 31.1111 20 31.1111C17.0532 31.1111 14.227 29.9405 12.1433 27.8567C10.0595 25.773 8.88889 22.9469 8.88889 20Z" fill="white"/>
</svg>
