<svg width="42" height="31" viewBox="0 0 42 31" fill="none" xmlns="http://www.w3.org/2000/svg">
<path d="M26.7273 19.375C21.63 19.375 11.4545 21.9519 11.4545 27.125V31H42V27.125C42 21.9519 31.8245 19.375 26.7273 19.375ZM9.54545 11.625V5.8125H5.72727V11.625H0V15.5H5.72727V21.3125H9.54545V15.5H15.2727V11.625M26.7273 15.5C28.7526 15.5 30.6949 14.6835 32.127 13.2301C33.5591 11.7767 34.3636 9.80543 34.3636 7.75C34.3636 5.69457 33.5591 3.72333 32.127 2.26992C30.6949 0.816515 28.7526 0 26.7273 0C24.702 0 22.7596 0.816515 21.3275 2.26992C19.8955 3.72333 19.0909 5.69457 19.0909 7.75C19.0909 9.80543 19.8955 11.7767 21.3275 13.2301C22.7596 14.6835 24.702 15.5 26.7273 15.5Z" fill="white"/>
</svg>
