<svg xmlns="http://www.w3.org/2000/svg" width="60" height="58" fill="none"><path fill="#141416" fill-opacity=".7" fill-rule="evenodd" d="M15.461 50.316c2.142 0 3.885 1.721 3.885 3.84 0 2.12-1.743 3.844-3.885 3.844s-3.882-1.724-3.882-3.844 1.74-3.84 3.882-3.84m33.841 0c2.145 0 3.888 1.721 3.888 3.84 0 2.12-1.743 3.844-3.888 3.844-2.142 0-3.882-1.724-3.882-3.844s1.74-3.84 3.882-3.84M2.634.028l6.24 1.069c1.005.175 1.77 1 1.857 2.01l.705 8.313 2.621.001h1.27l4.813.003h1.138l5.315.003h.99l3.723.003h.874l3.275.003h.766l2.856.003h.664l1.877.003h.588l2.174.003h.5l1.835.003h.42l1.166.002.359.001 1.3.003h.291l.8.002.242.001.857.003h.188l.503.002.15.001.508.003h.108l.277.003h.079l.2.002.055.001.136.002.036.001.086.002h.022l.063.004h.01l.038.004a6.26 6.26 0 0 1 4.143 2.434 6.1 6.1 0 0 1 1.182 4.6l-2.847 19.466c-.537 3.704-3.789 6.497-7.569 6.497H16.755c-3.951 0-7.296-3.051-7.617-6.954L6.39 5.19l-4.521-.772A2.234 2.234 0 0 1 .033 1.842C.249.628 1.433-.162 2.633.028m10.822 15.845h-1.642l1.809 21.287c.132 1.638 1.485 2.867 3.138 2.867h32.751c1.563 0 2.898-1.152 3.12-2.68l2.85-19.469a1.73 1.73 0 0 0-.336-1.3 1.74 1.74 0 0 0-1.164-.685l-.154.002-.326.002h-.225l-1.7.003h-5.124l-4.56-.003h-.829l-2.58-.002-.889-.001-2.733-.002-.93-.001-1.883-.002h-.95l-2.873-.003-.962-.001-1.922-.002-.958-.001-1.906-.002h-.945l-2.791-.003h-.913l-3.527-.003zm31.238 6.518c1.242 0 2.25.997 2.25 2.226s-1.008 2.226-2.25 2.226h-8.316a2.237 2.237 0 0 1-2.25-2.226 2.237 2.237 0 0 1 2.25-2.226z" clip-rule="evenodd"/></svg>