<svg width="40" height="40" viewBox="0 0 40 40" fill="none" xmlns="http://www.w3.org/2000/svg">
<path d="M19.7191 0C30.61 0 39.4382 8.82823 39.4382 19.7191C39.4382 30.6099 30.61 39.4382 19.7191 39.4382C16.8906 39.4427 14.1026 38.836 11.543 37.6687C10.4004 37.1477 9.11797 36.9524 7.90647 37.283C4.41325 38.2361 1.2076 35.0299 2.15842 31.536C2.48811 30.3246 2.2925 29.0421 1.77127 27.8999C0.602642 25.339 -0.00469856 22.5493 2.73706e-05 19.7191C2.73706e-05 8.82823 8.82826 0 19.7191 0ZM12.9988 10.4511L12.6045 10.4669C12.3491 10.4824 12.0996 10.5495 11.8709 10.6641C11.657 10.7852 11.4617 10.9366 11.2912 11.1137C11.0545 11.3365 10.9205 11.5297 10.7765 11.7171C10.0471 12.6654 9.65443 13.8296 9.6604 15.0259C9.66435 15.9922 9.91675 16.9328 10.3111 17.8122C11.1176 19.5909 12.4447 21.4741 14.1958 23.2192C14.6178 23.6392 15.0319 24.0612 15.4775 24.4536C17.6533 26.3693 20.2461 27.7507 23.0497 28.4882L24.1697 28.6597C24.5345 28.6794 24.8993 28.6518 25.2661 28.6341C25.8404 28.6044 26.4011 28.4489 26.9087 28.1786C27.1669 28.0456 27.4189 27.9008 27.6639 27.7447C27.6639 27.7447 27.7487 27.6895 27.9104 27.5673C28.1766 27.3701 28.3403 27.2301 28.5611 26.9994C28.7248 26.8298 28.8668 26.6306 28.9752 26.4038C29.129 26.0824 29.2829 25.4692 29.346 24.9584C29.3933 24.568 29.3795 24.355 29.3736 24.2229C29.3657 24.0119 29.1902 23.793 28.9989 23.7004L27.8513 23.1857C27.8513 23.1857 26.1357 22.4383 25.0866 21.9611C24.9769 21.9132 24.8592 21.8858 24.7396 21.8803C24.6047 21.8664 24.4683 21.8816 24.3398 21.9248C24.1053 22.0036 23.8809 22.2387 23.7186 22.4255C23.5015 22.6752 23.1147 23.1328 22.4265 23.9666C22.3447 24.0765 22.232 24.1596 22.1028 24.2053C21.9735 24.2509 21.8336 24.2571 21.7009 24.2229C21.5724 24.1885 21.4466 24.145 21.3242 24.0928C21.0797 23.9902 20.9949 23.9508 20.8273 23.8798C19.6956 23.3859 18.6477 22.7186 17.7216 21.902C17.4731 21.6851 17.2424 21.4484 17.0058 21.2197C16.23 20.4767 15.5539 19.6363 14.9944 18.7193L14.8781 18.532C14.7945 18.4061 14.7269 18.2703 14.6769 18.1277C14.602 17.8379 14.7972 17.6052 14.7972 17.6052C14.7972 17.6052 15.2764 17.0807 15.4992 16.7967C15.7161 16.5206 15.8995 16.2525 16.0178 16.0612C16.2505 15.6865 16.3235 15.302 16.2012 15.0042C15.6491 13.6555 15.0772 12.3126 14.4896 10.9796C14.3733 10.7153 14.0282 10.526 13.7146 10.4886C13.6082 10.4767 13.5017 10.4649 13.3952 10.457C13.1304 10.4439 12.865 10.4465 12.6005 10.4649L12.9988 10.4511Z" fill="#00C700"/>
</svg>
