<svg width="43" height="45" viewBox="0 0 43 45" fill="none" xmlns="http://www.w3.org/2000/svg">
<path d="M23.301 3.6748C25.3127 3.68031 26.3338 3.69133 27.2154 3.71705L27.5624 3.7299C27.9629 3.74459 28.3581 3.76296 28.8356 3.785C30.7383 3.87683 32.0366 4.18537 33.1757 4.63901C34.3559 5.1055 35.3502 5.73729 36.3445 6.75659C37.2538 7.67469 37.9574 8.78526 38.4063 10.011C38.848 11.1809 39.1484 12.5143 39.2379 14.4702C39.2593 14.9588 39.2772 15.3646 39.2915 15.7779L39.3022 16.1342C39.3291 17.0378 39.3398 18.0865 39.3434 20.1526L39.3452 21.5227V23.9286C39.3495 25.2682 39.3358 26.6078 39.304 27.9471L39.2933 28.3034C39.279 28.7166 39.2611 29.1225 39.2396 29.611C39.1502 31.567 38.8462 32.8985 38.4063 34.0702C37.9587 35.2967 37.2549 36.4075 36.3445 37.3247C35.4503 38.2582 34.369 38.9808 33.1757 39.4422C32.0366 39.8959 30.7383 40.2044 28.8356 40.2962C28.4113 40.3168 27.9869 40.3351 27.5624 40.3513L27.2154 40.3624C26.3338 40.3881 25.3127 40.4009 23.301 40.4046L21.9669 40.4064H19.6261C18.3212 40.4111 17.0162 40.397 15.7116 40.3642L15.3647 40.3532C14.9402 40.3367 14.5158 40.3177 14.0915 40.2962C12.1888 40.2044 10.8905 39.8959 9.7496 39.4422C8.55624 38.9819 7.47533 38.2592 6.58261 37.3247C5.67247 36.4069 4.96822 35.2963 4.51897 34.0702C4.07727 32.9003 3.77684 31.567 3.68743 29.611C3.66751 29.1752 3.64962 28.7393 3.63378 28.3034L3.62484 27.9471C3.59189 26.6079 3.57698 25.2683 3.58013 23.9286V20.1526C3.57514 18.813 3.58826 17.4734 3.61948 16.1342L3.63199 15.7779C3.6463 15.3646 3.66418 14.9588 3.68564 14.4702C3.77505 12.5143 4.07548 11.1828 4.51718 10.011C4.96623 8.784 5.67189 7.67309 6.58439 6.75659C7.4769 5.82264 8.55709 5.09997 9.7496 4.63901C10.8905 4.18537 12.187 3.87683 14.0915 3.785C14.5671 3.76296 14.9641 3.74459 15.3647 3.7299L15.7116 3.71888C17.0156 3.68625 18.32 3.67217 19.6243 3.67664L23.301 3.6748ZM21.4626 12.8577C19.0913 12.8577 16.817 13.8252 15.1402 15.5473C13.4634 17.2695 12.5214 19.6052 12.5214 22.0406C12.5214 24.4761 13.4634 26.8118 15.1402 28.5339C16.817 30.2561 19.0913 31.2235 21.4626 31.2235C23.834 31.2235 26.1083 30.2561 27.7851 28.5339C29.4619 26.8118 30.4039 24.4761 30.4039 22.0406C30.4039 19.6052 29.4619 17.2695 27.7851 15.5473C26.1083 13.8252 23.834 12.8577 21.4626 12.8577ZM21.4626 16.5309C22.1672 16.5308 22.8648 16.6732 23.5157 16.9499C24.1666 17.2267 24.7581 17.6325 25.2564 18.144C25.7546 18.6555 26.1499 19.2629 26.4196 19.9313C26.6893 20.5997 26.8282 21.3162 26.8283 22.0397C26.8284 22.7633 26.6898 23.4797 26.4203 24.1483C26.1508 24.8168 25.7557 25.4242 25.2576 25.936C24.7595 26.4477 24.1682 26.8536 23.5174 27.1306C22.8665 27.4076 22.1689 27.5502 21.4644 27.5504C20.0416 27.5504 18.6771 26.9699 17.671 25.9366C16.6649 24.9033 16.0997 23.5019 16.0997 22.0406C16.0997 20.5793 16.6649 19.1779 17.671 18.1446C18.6771 17.1114 20.0416 16.5309 21.4644 16.5309M30.8527 10.1028C30.2599 10.1028 29.6913 10.3447 29.2721 10.7752C28.8529 11.2058 28.6174 11.7897 28.6174 12.3986C28.6174 13.0074 28.8529 13.5914 29.2721 14.0219C29.6913 14.4524 30.2599 14.6943 30.8527 14.6943C31.4456 14.6943 32.0142 14.4524 32.4334 14.0219C32.8526 13.5914 33.0881 13.0074 33.0881 12.3986C33.0881 11.7897 32.8526 11.2058 32.4334 10.7752C32.0142 10.3447 31.4456 10.1028 30.8527 10.1028Z" fill="url(#paint0_linear_2362_21817)"/>
<defs>
<linearGradient id="paint0_linear_2362_21817" x1="21.4625" y1="3.6748" x2="21.4625" y2="40.4073" gradientUnits="userSpaceOnUse">
<stop stop-color="#810683"/>
<stop offset="1" stop-color="#E61C95"/>
</linearGradient>
</defs>
</svg>
