<svg xmlns="http://www.w3.org/2000/svg" width="33" height="25" fill="none"><path fill="#141416" d="M27.5 2.137A25.8 25.8 0 0 0 21.052.143a.14.14 0 0 0-.106.045 20 20 0 0 0-.8 1.634 24.5 24.5 0 0 0-7.25 0c-.211-.51-.528-1.14-.815-1.634-.015-.03-.06-.045-.106-.045a26 26 0 0 0-6.449 1.994c-.015 0-.03.015-.045.03C1.373 8.271.24 14.21.799 20.087c0 .03.015.06.045.076 2.719 1.979 5.332 3.179 7.914 3.973.045.015.09 0 .106-.03a19 19 0 0 0 1.616-2.609c.03-.06 0-.12-.06-.135-.861-.33-1.677-.72-2.477-1.17-.06-.03-.06-.12-.015-.165.166-.12.332-.254.498-.374.03-.03.075-.03.106-.015 5.195 2.354 10.798 2.354 15.933 0a.09.09 0 0 1 .105.015c.167.135.333.255.499.39.06.044.06.134-.015.165-.785.464-1.616.84-2.477 1.17-.06.014-.076.09-.06.134a23 23 0 0 0 1.616 2.61c.045.014.09.03.136.014 2.597-.794 5.21-1.994 7.928-3.973a.08.08 0 0 0 .046-.076c.664-6.793-1.103-12.686-4.682-17.92-.015-.015-.03-.03-.06-.03M11.265 16.503c-1.555 0-2.854-1.424-2.854-3.179s1.268-3.179 2.854-3.179c1.601 0 2.87 1.44 2.855 3.18 0 1.754-1.269 3.178-2.855 3.178m10.527 0c-1.556 0-2.855-1.424-2.855-3.179s1.269-3.179 2.855-3.179c1.6 0 2.87 1.44 2.854 3.18 0 1.754-1.254 3.178-2.854 3.178"/></svg>