<svg xmlns="http://www.w3.org/2000/svg" width="18" height="17" fill="none"><path fill="#908C8C" d="M9 11.833c-2.12 0-3.856-1.68-3.856-3.733S6.879 4.367 9 4.367s3.857 1.68 3.857 3.733S11.122 11.833 9 11.833M9 5.61c-1.414 0-2.57 1.12-2.57 2.489S7.585 10.588 9 10.588s2.572-1.12 2.572-2.488c0-1.369-1.157-2.489-2.571-2.489"/><path fill="#908C8C" d="M9 14.321c-4.1 0-7.7-2.413-8.96-6.021a.53.53 0 0 1 0-.398C1.299 4.305 4.912 1.879 9 1.879s7.701 2.414 8.961 6.022a.53.53 0 0 1 0 .398c-1.26 3.596-4.872 6.022-8.96 6.022m-7.676-6.22C2.47 11.085 5.53 13.076 9 13.076s6.519-1.99 7.676-4.977C15.532 5.114 12.472 3.123 9 3.123c-3.471 0-6.518 1.99-7.676 4.977"/><path fill="#908C8C" d="M16.715 16.188a.62.62 0 0 1-.45-.187L.836 1.07a.6.6 0 0 1 0-.883.65.65 0 0 1 .913 0L17.165 15.13a.6.6 0 0 1 0 .883.66.66 0 0 1-.45.187z"/></svg>