<svg xmlns="http://www.w3.org/2000/svg" width="61" height="60" fill="none"><path stroke="#00C700" stroke-linecap="round" stroke-linejoin="round" stroke-width="3" d="M42.634 19.505s-2.645 17.157 7.886 17.427m0 0V19.505m0 17.427c10.53-.27 7.884-17.427 7.884-17.427M44.292 57.629s2.227-14.47-11.129-14.47c-3.552 2.37-6.595 4.007-10.017 4h.14c-3.421.007-6.465-1.63-10.017-4-13.356 0-11.13 14.47-11.13 14.47m27.685-34.564a2.226 2.226 0 1 1-4.452 0 2.226 2.226 0 0 1 4.452 0m-8.903 0a2.227 2.227 0 1 1-4.454 0 2.227 2.227 0 0 1 4.454 0"/><path stroke="#00C700" stroke-linecap="round" stroke-linejoin="round" stroke-width="3" d="M10.629 20.839a19.8 19.8 0 0 0-.189 6.333l-.525-.582s-5.18-7.626 2.84-15.461h20.272c8.02 7.835 2.843 15.46 2.843 15.46l-6.3-14.052s-1.646 4.237-6.292 3.89c0 0 1.184-5.298-.316-5.298 0 0-5.77 6.92-12.324 9.711"/><path stroke="#00C700" stroke-linecap="round" stroke-linejoin="round" stroke-width="3" d="M10.883 20.838a20 20 0 0 0-.357 3.742c0 8.712 5.65 15.775 12.62 15.775 6.645 0 12.09-6.418 12.583-14.566m-22.53 17.372 6.46 9.89 3.558-5.893 3.556 5.893 6.46-9.89"/><path stroke="#00C700" stroke-linecap="round" stroke-linejoin="round" stroke-width="3" d="M13.498 43.445v14.169m0 0 19.419-.015m-19.42.015-11.36.015m30.78-.03V43.422m0 14.177 11.375.03M13.37 11.13V2l9.777 1.578L32.923 2v9.129M7.777 44.22v13.394M38.375 44.22v13.425M13.37 7.229h19.554m-28.093 3.9h36.247m9.54 30.528v15.972M18.81 31.751c2.513 2.256 6.17 2.464 8.67 0m20.086 5.183h6.1v4.723h-6.1z"/></svg>