<svg xmlns="http://www.w3.org/2000/svg" width="124" height="80" fill="none"><path fill="#4D4D4D" fill-rule="evenodd" d="M5.086 62.14c1.546.482 2.66 1.862 2.66 3.488 0 2.029-1.734 3.673-3.873 3.673S0 67.657 0 65.628c0-1.67 1.175-3.078 2.781-3.525V36.588l16.09-12.39V10.245l2.38 1.321.035 13.22-5.932 4.741v22.819c1.417.547 2.417 1.864 2.417 3.403 0 2.029-1.734 3.673-3.873 3.673s-3.874-1.644-3.874-3.673c0-1.714 1.238-3.154 2.914-3.558V31.463L5.09 37.735v24.407zm21.63-11.877v24.504l-2.42 1.25V50.31c-1.584-.46-2.737-1.86-2.737-3.514 0-2.028 1.734-3.673 3.874-3.673 2.139 0 3.873 1.645 3.873 3.673 0 1.602-1.083 2.966-2.591 3.466zm9.737-8.602v23.678l-2.305 1.35V42.951l-9.863-8.795V7.142c-1.51-.503-2.594-1.865-2.594-3.47C21.691 1.646 23.425 0 25.565 0c2.139 0 3.873 1.645 3.873 3.673 0 1.692-1.206 3.116-2.849 3.543v25.728zm13.43-11.889.347.024c1.112-.051 2.696-.612 4.775-1.682 2.078-1.073 3.705-2.161 4.884-3.274a12.1 12.1 0 0 1-3.875 5.748c-2.815 2.356-4.717 3.539-5.708 3.539-.663 0-.991-.409-.991-1.216 0-1.165.185-2.213.568-3.14m4.943 32.095q-2.236 1.08-4.243 1.081-2.77.001-4.45-1.808c-1.13-1.2-1.694-2.79-1.694-4.75 0-.745.16-1.928.49-3.543l.539-2.722c.801-3.93 1.197-6.686 1.197-8.275 0-.937-.277-1.707-.834-2.3 2.14-.497 3.472-.744 4.02-.744q1.822-.001 1.822 2.569c0 1.267-.235 3.094-.707 5.461l-.96 4.817c-.472 2.325-.707 3.837-.707 4.521 0 2.046.868 3.07 2.595 3.07q1.451 0 3.355-1.151l-.421 3.771z" clip-rule="evenodd"/><path fill="#4D4D4D" fill-rule="evenodd" d="M72.547 52.334c-6.775 9.28-10.97 18.255-12.6 26.923-3.974-2.453-5.96-4.92-5.96-7.425 0-5.109 5.195-13.213 15.589-24.3-2.36-3.984-4.585-8.87-6.657-14.644-2.088-5.773-3.124-9.944-3.124-12.515 0-2.724 3.312-4.667 9.917-5.789-.221.732-.34 1.396-.34 1.992 0 6.063 2.582 14.1 7.745 24.13 8.626-9.997 12.94-17.93 12.94-23.822l-.052-.646c.407-.034 1.307-.104 2.735-.204h.61c3.583 0 5.366.969 5.366 2.894 0 4.801-6.35 13.52-19.07 26.173 3.839 5.995 15.971 12.874 20.21 14.211-2.534 8.197-19.848 4.76-27.31-6.973z" clip-rule="evenodd"/><path fill="#4D4D4D" d="M107.681 52.85q.935 2.096.935 4 0 4.22-3.522 7.34-3.522 3.144-8.254 3.145-2.779 0-4.733-1.435t-1.954-3.449q0-2.152 2.67-4.36 2.696-2.206 8.997-5.242l-2.201-3.559q-4.017-6.483-4.018-10.125 0-5.243 6.081-8.443 3.742 1.434 3.742 3.614 0 3.09-4.76 5.932l3.137 5.794 2.449 4.47q5.256-3.145 7.924-5.38 2.67-2.262 6.742-6.953l2.201 1.352q-5.916 7.946-15.436 13.298m-4.678 2.483q-8.09 4.36-8.09 6.76 0 2.262 3.275 2.262 2.421 0 3.935-1.656 1.513-1.628 1.513-4.221 0-1.545-.633-3.145"/></svg>