<svg xmlns="http://www.w3.org/2000/svg" width="38" height="38" fill="none"><path fill="#00C700" d="m33.092 34.267 1.152-1.146-3.876-3.853v-5.713h-1.625v6.389zM3.409 33.56q-1.414 0-2.413-.99A3.26 3.26 0 0 1 0 30.172V3.387Q0 1.982.996.99 1.993 0 3.412 0h26.956q1.415 0 2.413.99t.997 2.4v12.48a11 11 0 0 0-1.064-.31 78 78 0 0 0-1.047-.236V3.39q0-.485-.406-.89-.405-.405-.895-.403H3.412q-.489 0-.896.403-.406.403-.405.89v26.782q0 .483.405.887.405.406.893.403h11.962q.075.588.196 1.093.12.503.31 1.005zm-1.298-4.195v2.097V2.097v13.227-.157zm5.278-3.629h8.36q.116-.54.317-1.042l.422-1.057h-9.1zm0-7.907H21.28a16.4 16.4 0 0 1 2.05-1.23 10.4 10.4 0 0 1 2.166-.792v-.076H7.389zm0-7.908h19V7.824h-19zM29.556 38q-3.528 0-5.985-2.444-2.46-2.443-2.46-5.948t2.46-5.948q2.46-2.444 5.984-2.442 3.526.002 5.988 2.442 2.46 2.44 2.457 5.948 0 3.503-2.457 5.946-2.461 2.445-5.988 2.444"/></svg>