<svg width="27" height="36" viewBox="0 0 27 36" fill="none" xmlns="http://www.w3.org/2000/svg">
<path d="M0 0H27V36H0V0ZM24.75 33.75V2.25H2.25V33.75H24.75ZM22.5 9V11.25H13.5V9H22.5ZM22.5 18V20.25H13.5V18H22.5ZM22.5 27V29.25H13.5V27H22.5ZM12.041 7.54102L7.875 11.707L4.83398 8.66602L6.41602 7.08398L7.875 8.54297L10.459 5.95898L12.041 7.54102ZM12.041 16.541L7.875 20.707L4.83398 17.666L6.41602 16.084L7.875 17.543L10.459 14.959L12.041 16.541ZM12.041 25.541L7.875 29.707L4.83398 26.666L6.41602 25.084L7.875 26.543L10.459 23.959L12.041 25.541Z" fill="white"/>
</svg>
