<svg xmlns="http://www.w3.org/2000/svg" width="36" height="40" fill="none"><path fill="#00C700" d="M7.22 2.583A1.451 1.451 0 0 0 5.034.675l-2.5 2.863A9.2 9.2 0 0 0 .27 9.39l-.11 5.261a1.451 1.451 0 1 0 2.902.06l.108-5.26a6.3 6.3 0 0 1 1.55-4.003z"/><path fill="#00C700" fill-rule="evenodd" d="M6.849 12.813a8.154 8.154 0 0 1 8.139-7.643h1.077V3.718a1.935 1.935 0 0 1 3.87 0V5.17h1.078a8.154 8.154 0 0 1 8.139 7.643l.428 6.838a14.3 14.3 0 0 0 2.53 7.265 3.13 3.13 0 0 1-2.196 4.893l-6.592.79v2.08a5.322 5.322 0 0 1-10.643 0v-2.08l-6.593-.792a3.13 3.13 0 0 1-2.196-4.891 14.3 14.3 0 0 0 2.531-7.265zm8.139-4.74a5.25 5.25 0 0 0-5.243 4.922l-.425 6.838a17.2 17.2 0 0 1-3.046 8.739.227.227 0 0 0 .159.354l7.23.869a36.5 36.5 0 0 0 8.674 0l7.231-.869a.227.227 0 0 0 .159-.354 17.2 17.2 0 0 1-3.044-8.739l-.428-6.838a5.25 5.25 0 0 0-5.242-4.923zM18 37.097a2.42 2.42 0 0 1-2.418-2.42v-1.45h4.837v1.45A2.42 2.42 0 0 1 18 37.099" clip-rule="evenodd"/><path fill="#00C700" d="M28.919.535a1.45 1.45 0 0 0-.14 2.048l2.5 2.863a6.3 6.3 0 0 1 1.549 4.006l.11 5.258a1.452 1.452 0 0 0 2.902-.06l-.11-5.26a9.2 9.2 0 0 0-2.264-5.852l-2.5-2.863a1.45 1.45 0 0 0-2.047-.14"/></svg>