<svg width="22" height="26" viewBox="0 0 22 26" fill="none" xmlns="http://www.w3.org/2000/svg">
<path d="M13.2118 10.4123C13.2118 9.79864 12.968 9.2101 12.5341 8.77617C12.1001 8.34224 11.5116 8.09846 10.8979 8.09846C10.2843 8.09846 9.69572 8.34224 9.26179 8.77617C8.82786 9.2101 8.58408 9.79864 8.58408 10.4123C8.58408 11.026 8.82786 11.6145 9.26179 12.0484C9.69572 12.4824 10.2843 12.7262 10.8979 12.7262C11.5116 12.7262 12.1001 12.4824 12.5341 12.0484C12.968 11.6145 13.2118 11.026 13.2118 10.4123ZM15.5256 10.4123C15.5256 11.6397 15.0381 12.8167 14.1702 13.6846C13.3023 14.5524 12.1253 15.04 10.8979 15.04C9.67059 15.04 8.49352 14.5524 7.62565 13.6846C6.75779 12.8167 6.27023 11.6397 6.27023 10.4123C6.27023 9.18497 6.75779 8.0079 7.62565 7.14004C8.49352 6.27218 9.67059 5.78462 10.8979 5.78462C12.1253 5.78462 13.3023 6.27218 14.1702 7.14004C15.0381 8.0079 15.5256 9.18497 15.5256 10.4123ZM11.7448 25.0833L10.8979 25.9938L10.0511 25.0833C5.93588 20.6592 3.32124 17.6072 2.17241 15.8741C1.07021 14.2123 0.483395 12.2619 0.485617 10.2677C0.485617 4.59299 5.15149 0 10.8979 0C16.6444 0 21.3102 4.59299 21.3102 10.2677C21.3121 12.262 20.7249 14.2124 19.6223 15.8741C18.4746 17.6072 15.86 20.6592 11.7448 25.0833ZM17.6937 14.5969C18.5453 13.3138 18.9985 11.8076 18.9964 10.2677C18.9964 5.87833 15.3752 2.31385 10.8979 2.31385C6.42064 2.31385 2.79946 5.87833 2.79946 10.2677C2.79946 11.8284 3.25529 13.3173 4.10216 14.5969C5.08092 16.0743 7.35543 18.7537 10.8979 22.5936C14.4404 18.7526 16.7149 16.0743 17.6937 14.5969Z" fill="white"/>
</svg>
