<svg xmlns="http://www.w3.org/2000/svg" width="36" height="38" fill="none"><path stroke="#00C700" stroke-linecap="round" stroke-linejoin="round" stroke-width="2" d="m1 29.185 7.064 5.887a5.78 5.78 0 0 0 3.7 1.338h18.623a2.41 2.41 0 0 0 2.408-2.407 4.82 4.82 0 0 0-4.819-4.818H15.03m8.32-28.182a1.445 1.445 0 0 0-1.445 1.445v4.067H17.84a1.445 1.445 0 0 0-1.446 1.445v4.697a1.445 1.445 0 0 0 1.446 1.445h4.064v4.064a1.445 1.445 0 0 0 1.445 1.445h4.697a1.446 1.446 0 0 0 1.445-1.445v-4.064h4.064A1.445 1.445 0 0 0 35 12.657V7.96a1.445 1.445 0 0 0-1.445-1.445H29.49v-4.07A1.445 1.445 0 0 0 28.046 1z"/><path stroke="#00C700" stroke-linecap="round" stroke-linejoin="round" stroke-width="2" d="m9.671 26.293 2.168 2.168a3.066 3.066 0 1 0 4.336-4.335L12.81 20.76a5.78 5.78 0 0 0-4.087-1.694H1"/></svg>