<svg xmlns="http://www.w3.org/2000/svg" width="38" height="38" fill="none"><path stroke="#00C700" stroke-width="2.5" d="M8.182 36h21.636M12.443 9.352l3.28 3.28m0 0A4.64 4.64 0 0 1 19 11.271m-3.278 1.36a4.64 4.64 0 0 0-1.358 3.277m0 0H9.727m4.637 0c0 1.23.489 2.408 1.358 3.278m0 0-3.28 3.28m3.28-3.28A4.64 4.64 0 0 0 19 20.545m0 0v4.637m0-4.636c1.23 0 2.408-.49 3.278-1.359m0 0 3.28 3.28m-3.28-3.28a4.64 4.64 0 0 0 1.358-3.278m4.637 0h-4.637m0 0c0-1.23-.489-2.408-1.358-3.278m3.28-3.28-3.28 3.28m0 0A4.64 4.64 0 0 0 19 11.273m0 0V6.636M2 29.818h34V2H2zM12.818 36h12.364v-6.182H12.818z"/></svg>