<svg width="30" height="30" viewBox="0 0 30 30" fill="none" xmlns="http://www.w3.org/2000/svg">
<path d="M4.86668 2.99967C4.37161 2.99967 3.89681 3.19634 3.54674 3.54641C3.19668 3.89648 3.00001 4.37127 3.00001 4.86634V6.99967C3.00001 7.3533 2.85953 7.69243 2.60949 7.94248C2.35944 8.19253 2.0203 8.33301 1.66668 8.33301C1.31305 8.33301 0.973916 8.19253 0.723868 7.94248C0.473819 7.69243 0.333344 7.3533 0.333344 6.99967V4.86634C0.333344 3.66403 0.810961 2.51096 1.66113 1.66079C2.51129 0.810626 3.66436 0.333008 4.86668 0.333008H7.00001C7.35363 0.333008 7.69277 0.473484 7.94282 0.723532C8.19287 0.973581 8.33334 1.31272 8.33334 1.66634C8.33334 2.01996 8.19287 2.3591 7.94282 2.60915C7.69277 2.8592 7.35363 2.99967 7.00001 2.99967H4.86668ZM21.6667 1.66634C21.6667 1.31272 21.8072 0.973581 22.0572 0.723532C22.3072 0.473484 22.6464 0.333008 23 0.333008H25.1333C26.3357 0.333008 27.4887 0.810626 28.3389 1.66079C29.1891 2.51096 29.6667 3.66403 29.6667 4.86634V6.99967C29.6667 7.3533 29.5262 7.69243 29.2762 7.94248C29.0261 8.19253 28.687 8.33301 28.3333 8.33301C27.9797 8.33301 27.6406 8.19253 27.3905 7.94248C27.1405 7.69243 27 7.3533 27 6.99967V4.86634C27 4.37127 26.8033 3.89648 26.4533 3.54641C26.1032 3.19634 25.6284 2.99967 25.1333 2.99967H23C22.6464 2.99967 22.3072 2.8592 22.0572 2.60915C21.8072 2.3591 21.6667 2.01996 21.6667 1.66634ZM1.66668 21.6663C2.0203 21.6663 2.35944 21.8068 2.60949 22.0569C2.85953 22.3069 3.00001 22.6461 3.00001 22.9997V25.133C3.00001 25.6281 3.19668 26.1029 3.54674 26.4529C3.89681 26.803 4.37161 26.9997 4.86668 26.9997H7.00001C7.35363 26.9997 7.69277 27.1402 7.94282 27.3902C8.19287 27.6402 8.33334 27.9794 8.33334 28.333C8.33334 28.6866 8.19287 29.0258 7.94282 29.2758C7.69277 29.5259 7.35363 29.6663 7.00001 29.6663H4.86668C3.66436 29.6663 2.51129 29.1887 1.66113 28.3386C0.810961 27.4884 0.333344 26.3353 0.333344 25.133V22.9997C0.333344 22.6461 0.473819 22.3069 0.723868 22.0569C0.973916 21.8068 1.31305 21.6663 1.66668 21.6663ZM28.3333 21.6663C28.687 21.6663 29.0261 21.8068 29.2762 22.0569C29.5262 22.3069 29.6667 22.6461 29.6667 22.9997V25.133C29.6667 26.3353 29.1891 27.4884 28.3389 28.3386C27.4887 29.1887 26.3357 29.6663 25.1333 29.6663H23C22.6464 29.6663 22.3072 29.5259 22.0572 29.2758C21.8072 29.0258 21.6667 28.6866 21.6667 28.333C21.6667 27.9794 21.8072 27.6402 22.0572 27.3902C22.3072 27.1402 22.6464 26.9997 23 26.9997H25.1333C25.6284 26.9997 26.1032 26.803 26.4533 26.4529C26.8033 26.1029 27 25.6281 27 25.133V22.9997C27 22.6461 27.1405 22.3069 27.3905 22.0569C27.6406 21.8068 27.9797 21.6663 28.3333 21.6663ZM23 9.66634C23.3536 9.66634 23.6928 9.80682 23.9428 10.0569C24.1929 10.3069 24.3333 10.6461 24.3333 10.9997V18.9997C24.3333 19.3533 24.1929 19.6924 23.9428 19.9425C23.6928 20.1925 23.3536 20.333 23 20.333C22.6464 20.333 22.3072 20.1925 22.0572 19.9425C21.8072 19.6924 21.6667 19.3533 21.6667 18.9997V10.9997C21.6667 10.6461 21.8072 10.3069 22.0572 10.0569C22.3072 9.80682 22.6464 9.66634 23 9.66634ZM19 10.9997C19 10.6461 18.8595 10.3069 18.6095 10.0569C18.3594 9.80682 18.0203 9.66634 17.6667 9.66634C17.3131 9.66634 16.9739 9.80682 16.7239 10.0569C16.4738 10.3069 16.3333 10.6461 16.3333 10.9997V18.9997C16.3333 19.3533 16.4738 19.6924 16.7239 19.9425C16.9739 20.1925 17.3131 20.333 17.6667 20.333C18.0203 20.333 18.3594 20.1925 18.6095 19.9425C18.8595 19.6924 19 19.3533 19 18.9997V10.9997ZM12.3333 9.66634C12.687 9.66634 13.0261 9.80682 13.2762 10.0569C13.5262 10.3069 13.6667 10.6461 13.6667 10.9997V18.9997C13.6667 19.3533 13.5262 19.6924 13.2762 19.9425C13.0261 20.1925 12.687 20.333 12.3333 20.333C11.9797 20.333 11.6406 20.1925 11.3905 19.9425C11.1405 19.6924 11 19.3533 11 18.9997V10.9997C11 10.6461 11.1405 10.3069 11.3905 10.0569C11.6406 9.80682 11.9797 9.66634 12.3333 9.66634ZM8.33334 10.9997C8.33334 10.6461 8.19287 10.3069 7.94282 10.0569C7.69277 9.80682 7.35363 9.66634 7.00001 9.66634C6.64639 9.66634 6.30725 9.80682 6.0572 10.0569C5.80715 10.3069 5.66668 10.6461 5.66668 10.9997V18.9997C5.66668 19.3533 5.80715 19.6924 6.0572 19.9425C6.30725 20.1925 6.64639 20.333 7.00001 20.333C7.35363 20.333 7.69277 20.1925 7.94282 19.9425C8.19287 19.6924 8.33334 19.3533 8.33334 18.9997V10.9997Z" fill="white"/>
</svg>
