<svg xmlns="http://www.w3.org/2000/svg" width="169" height="47" fill="none"><path fill="#141416" fill-opacity=".7" fill-rule="evenodd" d="m98.754 46.241 11.016.013c.486-2.206 1.17-4.143 1.724-6.333l5.217-18.738 6.445 23.83c.147.64.119 1.278.761 1.278l10.17-.016c.276-.578.407-1.606.626-2.319.261-.849.403-1.595.661-2.532l8.675-31.49c.319-1.11.7-1.635-.077-2.24-.639-.386-7.755-.142-9.359-.075-.497 3.727-3.142 14.628-4.078 19.393l-1.595 6.303-4.449-17.52c-.52.082-.956.565-1.44.878-3.437 2.224-8.102 2.028-11.576-.047-.529-.315-1.133-.856-1.543-1.001l-5.097 17.953c-.111-.136-.079-.07-.187-.298-.144-.307-.013.026-.13-.338l-1.25-5.604c-.418-2.273-.92-4.37-1.436-6.63L98.925 7.612l-10.05-.038c-.766 1.218-.255 1.499.552 4.489l7.996 29.304c.43 1.494 1.018 3.385 1.332 4.874zm48.754-12.823c1.652 7.824 14.182 6.18 12.813-2.457-.495-3.124-3.838-5.744-7.641-5.02-3.024.577-5.992 3.591-5.172 7.477M56.427 19.407c-.701.876-.476 1.692-.476 3.044l.003 22.6c.042.848.126.605.371 1.238 5.913.068 5.063.701 5.064-4.03V23.596c0-1.163.381-3.733-.514-4.103-.566-.234-3.603-.096-4.447-.087zM115.709.237c-2.328.695-3.661 1.337-4.849 3.045-1.122 1.613-1.814 3.591-1.301 6.212.702 3.584 4.65 7.125 9.564 5.977 6.594-1.541 8.65-9.961 2.758-14.053-1.386-.963-3.917-1.857-6.172-1.183zM76.3 19.245l-2.325 1.203c-.682.401-1.329 1.241-2.017 1.426-.098.616.054.44-.564.598-.336-.865.002-1.78-.29-2.655-.92-.545-3.599-.472-4.75-.156-.652 1.242-.314 10.6-.314 12.938 0 1.863-.298 12.448.188 13.225.187.195-.135.075.388.296.489.206 3.824.226 4.276-.133.709-.578.355-3.097.355-4.221 0-1.693-.236-11.97.296-13.128.16-.35-.015-.17.307-.405.104-.982.641-1.945 1.3-2.582.024-.023.061-.055.086-.08l.407-.408c.747-.738 1.87-1.464 3.208-1.655 2.06-.296 4.437.076 5.487 1.74l.253.404c.02.028.051.064.07.092l.523 1.11c1.517 4.144-.12 17.533.805 18.98.457.7 1.155.49 2.27.486 3.628-.01 2.906.44 2.906-5.7 0-3.788.144-7.87-.006-11.622-.08-1.98-.467-3.1-1.027-4.622-.584-1.588-1.311-2.6-2.38-3.541l-1.224-.777c-.152-.075-.323-.154-.547-.258-.74-.343-1.387-.62-2.283-.703-2.338-.217-3.334-.078-5.398.148m-43.71 19.53c-.41-.089-.349.197-.236-.354-.435-.287-.444-.49-.628-.966-.2-.517-.322-.685-.294-1.37-.433-.341.092.33-.196-.257-.39-.793-.215-4.382-.156-5.197.08-1.09 1.002-3.681 1.73-4.04.115-.517-.146-.141.264-.582.307-.331-.055-.081.428-.24.156-.623 1.16-1.422 1.918-1.484.563-1.082 4.62-1.168 6.198-.854 1.145.229 1.763.507 2.542 1.013.553.36 1.59 1.068 1.733 1.866.316-.029.249-.08.113.215.392-.179.326-.225.164.173.218.062.312-.434.169.324.207.067.296-.414.159.332.216.066.296-.403.172.318.24.083.238-.468.187.441.072.914 1.178 2.227.556 7.274-.64 5.198-5.042 7.706-9.76 6.74l-1.973-.634c-.857-.41-1.505-.914-2.172-1.595zM51.122 24.41c-.768-.294-.546-.551-1.556-1.63l-1.528-1.407c-.573-.393-.759-.376-1.059-.957-.598.004-1.398-.53-2.372-.846-4.15-1.34-9.82-.623-13.217 1.626-2.13 1.41-1.627 1.302-2.533 2.398l-1.17 1.576-.066.098-.257.427c-.02.035-.04.077-.059.112-2.239 4.334-2.202 10.793.376 15.017l2.81 3.259c2.507 1.843 5.329 2.72 8.653 2.731 3.819.014 6.093-.644 9.161-2.905.02-.015.339-.296.35-.307 2.035-1.96 1.735-1.708 2.79-3.543 2.06-3.582 2.033-10.85.088-14.703-.34-.674-.386-.32-.41-.945zm97.159-5.608c-.181.162.266.255-.655.29l-.104.076c-.023.013-.073.054-.101.07s-.073.046-.104.063a5 5 0 0 1-.217.097l-1.702.705c-.075 1.24.013 2.28.044 3.493.025 1.002-.393 2.542.156 3.296 1.01-.159.299-.313 1.428-1.206.5-.396-.057-.129.577-.273.124-.518-.222-.086.409-.537l1.777-.994c.918-.468 1.858-.716 3.087-.799 6.602-.223 11.051 4.509 10.281 10.6-.262 2.067-1.122 3.47-2.117 4.765-1.768 2.3-6.417 4.244-10.371 2.793-1.577-.578-3.305-1.758-4.19-2.814-.77-.917-1.988-3.053-1.964-4.792l-.392-.564c-.266.805-.06.38-.471.634-2.531 4.92-.515 10.224 3.242 12.183 3.313 1.728 8.569 1.535 11.671-1.249.403-.36.653-.753 1.173-.9.023 1.051-.128 1.66.273 2.379.97.321 7.831.344 8.661-.013.53-.478.257-11.035.257-12.524 0-7.084.116-14.346-9.435-15.753-1.947-.287-4.109-.214-6.07.007-1.214.137-4.64 1.033-5.144.967zM9.667 20.428c-.133.561.155.271-.384.415-.028.606-.444.771-.84 1.223-.329.374-.585.915-1.153 1.103-.14.39-.415.667-.747 1.08-.298.37-.498.752-1.087.783-.395-2.768.368-14.144-.235-15.487-.739-.345-3.801-.33-4.798-.097-.605.41-.34 7.78-.34 8.91v23.409c0 1.244-.364 3.676.43 4.265.756.41 3.927.296 4.719-.013.573-1.704-.236-14.552.294-16.242.647.161 1.032.515 1.165 1.207.66.268 1.46 1.35 2.023 2.052.102.128.231.29.287.355.022.026.056.061.079.086l2.32 2.601c.5.45.458.032.512.901.594.21 1.5 1.178 1.668 1.852.27.045.428-.357.204.226.29.115.078-.193.5.318.31.374.154-.002.217.555.601.246 1.174.845 1.345 1.546.46.084.38.116.742.508.45.486.367.28.565.878l-.073.036c.694.242 1.908 1.813 2.4 2.406.14.17.285.393.35.465.104.12.342.306.47.354.826.303 5.656.194 6.316-.068.386-1.137-1.308-2.212-2.569-3.685l-1.627-1.812-.07-.092-5.295-5.8-.159-.175-.78-.88c-.58-.595-1.371-1.166-1.622-1.92-.714-.62-1.505-1.588-2.163-2.282-.343-.362-2.018-2.025-2.018-2.373 0-.628 3.678-3.685 4.137-4.771.226-.512.501-.66.83-1.025.299-.332.438-.643 1.002-.855l8.836-9.413c2.34-2.314-2.207-1.733-2.924-1.733-3.604 0-2.166-.127-5.303 3.309-.032.035-.13.13-.164.163l-6.252 6.98c-.3.35-.405.643-.807.74z" clip-rule="evenodd"/></svg>