<svg width="229" height="46" viewBox="0 0 229 46" fill="none" xmlns="http://www.w3.org/2000/svg">
<path d="M69.3636 16.1568V13.7237H53.918V36.3904H56.5305V26.9242H67.9737V24.4911H56.5305V16.1577H69.3636V16.1568ZM83.4029 20.9235V22.5232C82.0468 21.2569 80.1946 20.523 78.0116 20.523C73.6127 20.523 70.1065 24.156 70.1065 28.6565C70.1065 33.1902 73.6127 36.7901 78.0116 36.7901C80.1946 36.7901 82.0468 36.057 83.4029 34.7898V36.3895H85.9167V20.9226H83.4029V20.9235ZM78.3424 34.4565C75.1012 34.4565 72.6203 31.8567 72.6203 28.6565C72.6203 25.4563 75.1012 22.8566 78.3424 22.8566C80.36 22.8566 82.1464 23.6228 83.4029 25.4895V31.8227C82.1464 33.6894 80.36 34.4565 78.3424 34.4565ZM92.9766 23.457V20.9235H90.4628V36.3904H92.9766V26.3238C94.3327 24.1909 96.3832 23.0241 98.897 22.9569V20.557C96.4499 20.557 94.3985 21.6234 92.9766 23.457ZM120.246 20.5238C117.798 20.5238 115.913 21.4576 114.425 23.0904C113.367 21.3904 111.547 20.5238 109.199 20.5238C106.983 20.5238 105.396 21.2909 104.138 22.5904V20.9235H101.625V36.3904H104.138V25.4572C105.329 23.6577 107.016 22.8574 108.934 22.8574C111.282 22.8574 112.903 24.0905 112.903 27.1241V36.3904H115.416V27.1241C115.416 26.5236 115.383 25.9904 115.284 25.4904C116.507 23.6237 118.227 22.8574 120.079 22.8574C122.593 22.8574 124.18 24.1909 124.18 27.2576V36.3904H126.694V27.2576C126.694 22.8243 124.147 20.5247 120.245 20.5247L120.246 20.5238ZM133.392 30.8575L128.63 30.8243C128.993 35.1241 132.4 36.8241 136.535 36.8241C140.735 36.8241 144.042 35.1573 144.042 31.4238C144.042 28.557 142.025 27.0909 139.048 26.5236L136.07 26.0236C134.78 25.7906 134.384 25.2905 134.384 24.7233C134.384 24.1228 135.012 23.6228 136.401 23.6228C137.89 23.6228 139.048 24.156 139.146 25.356H143.876C143.645 21.0893 140.204 19.789 136.401 19.789C132.135 19.789 129.257 21.7892 129.257 25.1893C129.257 28.0229 131.208 29.5894 133.954 30.0555L137.195 30.6218C138.253 30.7885 138.882 31.1882 138.882 31.7555C138.882 32.4554 137.989 32.8551 136.567 32.8551C134.88 32.8551 133.623 32.2547 133.391 30.8548L133.392 30.8575ZM158.388 31.1908C157.429 31.5574 156.569 31.8576 155.544 31.8576C153.989 31.8576 153.03 31.0905 153.03 29.4245V24.8576H158.487V20.2245H153.03V14.7247H147.671V20.2245H144.529V24.8576H147.671V29.5912C147.671 33.9582 150.318 36.8241 154.683 36.8241C155.608 36.8241 157.329 36.7246 158.982 36.0238L158.387 31.1908H158.388ZM171.907 20.2245V21.0579C170.716 20.2576 169.294 19.7916 167.508 19.7916C163.175 19.7916 159.537 23.4587 159.537 28.2917C159.537 33.0916 163.176 36.825 167.508 36.825C169.294 36.825 170.716 36.3249 171.907 35.5247V36.3913H177.265V20.2245H171.907ZM168.599 32.2241C166.416 32.2241 164.796 30.5241 164.796 28.2909C164.796 26.0576 166.417 24.3576 168.599 24.3576C169.757 24.3576 170.882 24.6578 171.907 25.7906V30.7903C170.882 31.9239 169.757 32.2232 168.599 32.2232V32.2241ZM190.982 19.9574C188.6 19.9574 186.881 20.7237 185.458 21.9577V20.2245H180.067V36.3913H185.458V27.1249C186.714 25.8918 188.368 25.1919 190.982 25.0915V19.9583V19.9574ZM222.584 36.3904H229L222.386 26.8238L228.471 20.2236H222.088L216.531 26.2566V12.7236H211.14V36.3895H216.531V33.1893L218.747 30.7894L222.584 36.3895V36.3904ZM200.862 32.2573C198.546 32.2573 197.19 30.4909 197.19 28.2909C197.19 26.0908 198.546 24.3576 200.862 24.3576C202.483 24.3576 203.739 25.3909 204.004 26.8579H209.065C208.668 22.6916 205.262 19.7916 200.829 19.7916C195.801 19.7916 192.064 23.3915 192.064 28.2917C192.064 33.2251 195.801 36.825 200.829 36.825C205.261 36.825 208.667 33.925 209.065 29.7587H204.004C203.739 31.2257 202.483 32.259 200.862 32.259V32.2573Z" fill="white"/>
<path fill-rule="evenodd" clip-rule="evenodd" d="M23.5533 0C36.5613 0 47.1066 10.297 47.1066 23C47.1066 35.7021 36.5613 46 23.5533 46C10.5453 46 0 35.703 0 23C0 10.2979 10.5453 0 23.5533 0Z" fill="#00C700"/>
<path fill-rule="evenodd" clip-rule="evenodd" d="M26.0312 12.6575C26.0286 12.6549 26.0252 12.6662 26.0226 12.6706C26.0304 12.633 26.0226 12.6592 26.0364 12.6234C26.0382 12.6182 26.046 12.6007 26.0486 12.5955C26.0616 12.5702 26.0711 12.5589 26.0867 12.5388L26.0312 12.6583V12.6575ZM13.6026 17.0585L22.8264 23.3978V29.4823L13.5186 23.0601L13.6026 17.0585ZM14.9118 25.9452L22.8264 31.2608V37.3453L14.8278 31.9459L14.9118 25.9452ZM33.5016 17.0585L24.2777 23.3978V29.4823L33.5865 23.0601L33.5016 17.0585ZM32.311 25.9452L24.2777 31.2608V37.3453L32.3958 31.9459L32.311 25.9452ZM14.0061 10.5211C14.0676 10.5674 14.1715 10.6075 14.2511 10.6529C14.4442 10.7628 14.7594 11.0055 14.9257 11.1573C15.7804 11.9349 16.4844 13.1811 17.1355 14.1803C17.8378 15.2564 18.5158 16.1718 19.5636 16.8037C19.7584 16.9206 20.3733 17.1964 20.6322 17.213C20.6304 16.6344 20.7725 15.958 20.9474 15.4196C21.0868 14.9919 21.2678 14.608 21.4635 14.2152C21.518 14.107 21.647 13.9325 21.6557 13.8147C21.4366 13.5913 20.1828 12.7116 19.9464 12.5693C19.4571 12.2761 19.1168 12.0335 18.6059 11.7691L18.1409 11.523C18.3037 11.5439 18.9679 11.8197 19.1332 11.8982C20.0217 12.3189 20.6114 12.6418 21.4254 13.1846C21.5527 13.2692 21.7484 13.4316 21.8661 13.4848C21.9423 13.4193 22.1779 13.0319 22.2896 12.88C22.7494 12.2508 23.2308 11.7184 23.8023 11.1625C23.6621 10.974 23.0879 10.6337 22.8784 10.5133C22.5649 10.3326 22.2012 10.1851 21.8298 10.0464C19.9256 9.33947 17.3702 9.3386 15.3639 9.95385C15.0772 10.0411 14.168 10.3579 14.0043 10.522L14.0052 10.5229L14.0061 10.5211ZM26.0226 12.6706C26.0087 12.7814 25.9403 12.8966 25.8962 13.0092L25.555 14.0093C24.8215 16.2059 24.4639 18.9959 24.4916 21.3513C24.4977 21.861 24.4552 21.7929 24.967 21.5992C31.5022 19.1242 28.164 13.8836 28.4359 10.0682C28.5 9.16144 28.6992 8.95374 28.752 8.65527C26.4651 9.31329 24.6683 10.6049 23.2023 12.2656L22.5788 13.038L22.0436 13.8435C21.5111 14.6874 20.8391 16.2198 20.9725 17.686C21.079 18.8545 21.7007 19.9611 22.5719 20.6243C22.7788 20.7814 23.1434 21.0694 23.3668 21.1654C23.398 21.3103 23.3235 21.9596 23.3122 22.1708C23.2984 22.4151 23.2533 22.9353 23.2845 23.163L23.8543 23.0906C23.8872 22.9623 23.8682 22.5425 23.8707 22.3697C23.8985 20.627 23.9842 19.256 24.3046 17.5202C24.4873 16.5262 24.6882 15.8969 24.9765 14.9832C25.0848 14.6394 25.8303 12.8189 26.0235 12.6706H26.0226Z" fill="white"/>
</svg>
