<svg xmlns="http://www.w3.org/2000/svg" width="1005" height="201" fill="none"><path fill="#fff" d="M231.928 171.817c1.147 0 2.103-.862 2.103-2.009s-.956-2.008-2.103-2.008c-1.113 0-2.07.862-2.07 2.008 0 1.147.957 2.009 2.07 2.009m13.856 0c1.146 0 2.103-.862 2.103-2.009s-.957-2.008-2.103-2.008c-1.113 0-2.07.862-2.07 2.008 0 1.147.957 2.009 2.07 2.009m13.856 0c1.146 0 2.099-.862 2.099-2.009s-.956-2.008-2.099-2.008c-1.113 0-2.07.862-2.07 2.008 0 1.147.957 2.009 2.07 2.009m28.57-18.735v-3.156h-15.322v21.667h3.44v-8.57h10.48v-3.156h-10.48v-6.785zm21.021-3.535c-6.243 0-11.274 4.97-11.274 11.217 0 6.246 5.031 11.216 11.274 11.216s11.273-4.97 11.273-11.216c0-6.247-5.031-11.217-11.273-11.217m0 19.213c-4.428 0-7.804-3.569-7.804-7.996s3.376-8.031 7.804-8.031c4.427 0 7.803 3.599 7.803 8.031 0 4.431-3.376 7.996-7.803 7.996m37.201 2.837h4.203l-6.053-7.872c2.932-1.021 4.842-3.409 4.842-6.629 0-4.367-3.505-7.17-8.346-7.17h-8.696v21.667h3.44v-7.328h5.001l5.605 7.328zm-10.606-18.515h5.126c2.897 0 5.096 1.53 5.096 4.014s-2.199 4.013-5.096 4.013h-5.126v-8.031zm51.057 18.515h3.664l-9.557-21.667h-3.217l-9.587 21.667h3.664l2.229-5.195h10.575zm-11.532-8.251 4.013-9.338 3.984 9.338zm34.687-3.505v3.186h7.294c-.763 3.315-3.216 5.737-7.04 5.737-4.617 0-7.738-3.599-7.738-7.776 0-4.906 3.41-8.252 7.962-8.252 2.548 0 5.575 1.212 6.687 4.557h3.664c-1.272-5.16-5.733-7.742-10.415-7.742-6.307 0-11.369 4.716-11.369 11.437 0 6.022 4.747 10.992 11.213 10.992 3.695 0 6.273-1.594 7.803-4.112l.255 3.729h2.707v-11.756zm38.188 11.756h4.204l-6.053-7.872c2.931-1.021 4.841-3.409 4.841-6.629 0-4.367-3.505-7.17-8.346-7.17h-8.696v21.667h3.441v-7.328h5.001l5.604 7.328zm-10.605-18.515h5.126c2.897 0 5.096 1.53 5.096 4.014s-2.199 4.013-5.096 4.013h-5.126v-8.031zm25.414-3.156v21.667h3.44v-21.667zm26.595 18.865c-4.427 0-7.772-3.376-7.772-8.031 0-4.686 3.345-8.031 7.772-8.031 3.6 0 6.083 2.039 6.945 5.384h3.536c-1.018-5.194-5.066-8.57-10.481-8.57-6.242 0-11.243 4.716-11.243 11.217 0 6.47 5.001 11.247 11.243 11.247 5.415 0 9.463-3.44 10.481-8.635h-3.536c-.858 3.38-3.345 5.419-6.945 5.419m40.801-18.865h-3.41v12.14c0 3.983-2.453 6.725-6.083 6.725s-6.053-2.742-6.053-6.725v-12.14h-3.44v12.14c0 6.087 3.824 9.911 9.493 9.911 5.7 0 9.493-3.824 9.493-9.911zm15.735 18.481v-18.481h-3.44v21.667h15.003v-3.186zm34.972-18.481h-18.761v3.156h7.674v18.515h3.41v-18.515h7.677zm29.174 0h-3.406v12.14c0 3.983-2.453 6.725-6.083 6.725s-6.053-2.742-6.053-6.725v-12.14h-3.44v12.14c0 6.087 3.82 9.911 9.493 9.911 5.699 0 9.493-3.824 9.493-9.911v-12.14zm26.341 21.667h4.203l-6.052-7.871c2.931-1.022 4.841-3.41 4.841-6.63 0-4.367-3.505-7.169-8.346-7.169h-8.695v21.666h3.44v-7.328h5.001l5.604 7.328zm-10.605-18.515h5.129c2.898 0 5.096 1.53 5.096 4.014s-2.198 4.013-5.096 4.013h-5.129v-8.031zm42.615 18.515h3.664l-9.553-21.667h-3.216l-9.588 21.667h3.664l2.229-5.194h10.575l2.229 5.194zm-11.532-8.251 4.014-9.337 3.979 9.337zm29.398 5.065v-18.481h-3.44v21.667h15.002v-3.186zm46.439-15.325v-3.156h-15.542v21.667h15.542v-3.186h-12.105v-5.957h10.829v-3.156h-10.829v-6.212zm29.842 18.515-7.803-10.738 7.579-10.929h-4.173l-5.699 8.191-5.704-8.191h-4.173l7.579 10.929-7.773 10.738h3.984l6.113-8.156 6.083 8.156zm19.715-2.806c-4.427 0-7.773-3.376-7.773-8.031 0-4.686 3.346-8.031 7.773-8.031 3.6 0 6.083 2.039 6.945 5.384h3.535c-1.017-5.194-5.065-8.57-10.48-8.57-6.242 0-11.243 4.716-11.243 11.217 0 6.47 5.001 11.247 11.243 11.247 5.415 0 9.459-3.44 10.48-8.635h-3.535c-.858 3.38-3.345 5.419-6.945 5.419m37.934-15.709v-3.156h-15.542v21.667h15.542v-3.186h-12.106v-5.957h10.83v-3.156h-10.83v-6.212zm15.128 15.325v-18.481h-3.44v21.667h15.002v-3.186zm25.893 0v-18.481h-3.441v21.667h15.003v-3.186zm37.998-15.325v-3.156h-15.542v21.667h15.542v-3.186h-12.105v-5.957h10.829v-3.156h-10.829v-6.212zm27.233-3.156v15.614l-12.899-15.614h-2.643v21.667h3.441v-15.295l12.773 15.295h2.738v-21.667zm26.561 18.865c-4.427 0-7.772-3.376-7.772-8.031 0-4.686 3.345-8.031 7.772-8.031 3.6 0 6.084 2.039 6.945 5.384h3.536c-1.018-5.194-5.066-8.57-10.481-8.57-6.242 0-11.243 4.716-11.243 11.217 0 6.47 5.001 11.247 11.243 11.247 5.415 0 9.463-3.44 10.481-8.635h-3.536c-.858 3.38-3.345 5.419-6.945 5.419m37.934-15.709v-3.156h-15.542v21.667h15.542v-3.186h-12.105v-5.957h10.829v-3.156h-10.829v-6.212zM304.159 42.75V32.165h-67.731v98.624h11.457V89.596h50.179V79.01h-50.179V42.75zm61.563 20.74v6.96c-5.946-5.509-14.068-8.702-23.641-8.702-19.29 0-34.664 15.807-34.664 35.39 0 19.726 15.374 35.389 34.664 35.389 9.573 0 17.695-3.19 23.641-8.703v6.96h11.023V63.487h-11.023zm-22.191 58.883c-14.212 0-25.091-11.311-25.091-25.236 0-13.924 10.879-25.236 25.091-25.236 8.848 0 16.681 3.334 22.191 11.457v27.556c-5.51 8.122-13.343 11.456-22.191 11.456zm64.173-47.86V63.492H396.68v67.297h11.024v-43.8c5.946-9.284 14.938-14.358 25.961-14.65V61.896c-10.731 0-19.726 4.64-25.961 12.618M527.28 61.753c-10.731 0-19.001 4.063-25.524 11.167-4.64-7.397-12.618-11.167-22.916-11.167-9.717 0-16.677 3.337-22.191 8.991v-7.252h-11.023v67.297h11.023V83.217c5.221-7.83 12.618-11.312 21.029-11.312 10.298 0 17.402 5.366 17.402 18.565v40.318h11.023V90.47c0-2.613-.144-4.933-.581-7.109 5.366-8.122 12.907-11.456 21.029-11.456 11.023 0 17.984 5.802 17.984 19.146v39.737h11.023V91.051c0-19.29-11.168-29.3-28.282-29.3zm57.649 44.962-20.885-.144c1.595 18.708 16.533 26.105 34.665 26.105 18.42 0 32.921-7.252 32.921-23.497 0-12.473-8.847-18.853-21.902-21.32l-13.054-2.177c-5.658-1.013-7.397-3.19-7.397-5.657 0-2.613 2.756-4.789 8.847-4.789 6.527 0 11.604 2.32 12.037 7.541h20.74c-1.014-18.564-16.1-24.222-32.777-24.222-18.709 0-31.327 8.703-31.327 23.497 0 12.33 8.555 19.146 20.596 21.173l14.213 2.465c4.64.725 7.397 2.464 7.397 4.932 0 3.046-3.915 4.785-10.154 4.785-7.397 0-12.906-2.613-13.924-8.703zm109.609 1.45c-4.207 1.595-7.978 2.901-12.474 2.901-6.816 0-11.023-3.337-11.023-10.586V80.61h23.93V60.45h-23.93V36.52h-23.497v23.93h-13.78v20.16h13.78v20.595c0 19.001 11.604 31.471 30.746 31.471 4.059 0 11.604-.433 18.853-3.482l-2.609-21.029zm59.281-47.715v3.627c-5.221-3.482-11.459-5.51-19.289-5.51-19.001 0-34.953 15.956-34.953 36.984 0 20.885 15.956 37.129 34.953 37.129 7.833 0 14.068-2.176 19.289-5.658v3.771h23.497V60.449zm-14.505 52.211c-9.572 0-16.677-7.397-16.677-17.114s7.108-17.113 16.677-17.113c5.077 0 10.01 1.306 14.505 6.234v21.755c-4.495 4.932-9.428 6.234-14.505 6.234zm98.15-53.373c-10.443 0-17.984 3.334-24.223 8.703v-7.54H789.6v70.342h23.641v-40.32c5.51-5.365 12.763-8.41 24.223-8.847zm138.577 71.501h28.139l-29.008-41.625 26.688-28.718h-27.995l-24.366 26.25V27.813h-23.641v102.971h23.641V116.86l9.717-10.442 16.825 24.366zm-95.252-17.983c-10.153 0-16.1-7.686-16.1-17.259 0-9.572 5.947-17.113 16.1-17.113 7.109 0 12.618 4.495 13.78 10.878h22.191c-1.739-18.127-16.677-30.745-36.115-30.745-22.046 0-38.435 15.663-38.435 36.984 0 21.466 16.389 37.129 38.435 37.129 19.434 0 34.372-12.618 36.115-30.746h-22.191c-1.162 6.383-6.671 10.879-13.78 10.879z"/><path fill="#fff" fill-rule="evenodd" d="M206.566 100.074C206.566 44.803 160.324 0 103.283 0S0 44.807 0 100.074c0 55.272 46.242 100.075 103.283 100.075s103.283-44.807 103.283-100.075m-92.442-44.97c.01-.02.02-.042.028-.034v.004l.243-.52-.018.023c-.058.074-.098.123-.149.224a2 2 0 0 0-.054.121c-.03.078-.037.088-.04.1-.003.011-.003.023-.02.105l-.001.003c-.853.669-4.113 8.566-4.586 10.06l-.065.204c-1.23 3.866-2.095 6.583-2.882 10.834-1.405 7.553-1.781 13.518-1.902 21.1-.003.208.001.496.005.817.012.845.027 1.916-.078 2.32l-2.498.315c-.112-.808-.001-2.461.077-3.62.017-.263.033-.5.044-.697.015-.265.052-.688.095-1.172.105-1.193.242-2.754.145-3.202-.872-.372-2.234-1.405-3.163-2.11l-.323-.245c-3.82-2.885-6.546-7.7-7.013-12.785-.585-6.379 2.361-13.047 4.697-16.719l2.346-3.504 2.734-3.36c6.429-7.227 14.308-12.847 24.336-15.71-.073.409-.209.778-.371 1.216-.351.953-.822 2.228-1.015 4.932-.314 4.38.473 9.194 1.277 14.103 2.242 13.695 4.607 28.142-16.488 36.069-1.18.443-1.688.735-1.909.59-.198-.13-.163-.617-.176-1.669-.121-10.248 1.447-22.388 4.663-31.945l1.496-4.352c.059-.149.128-.3.197-.45.157-.342.314-.685.357-1.02l.004-.003h-.003zm-14.026 46.698L59.651 74.219l-.369 26.113 40.816 27.944zm0 34.212-34.706-23.128-.368 26.109 35.074 23.493zm6.364-34.212 40.448-27.583.372 26.113-40.82 27.944zm0 34.212 35.227-23.128.372 26.109-35.599 23.493zM62.056 46.125c-.237-.114-.471-.227-.636-.35h-.004l-.003-.004c.717-.714 4.704-2.092 5.961-2.472 8.798-2.677 20.004-2.673 28.354.402 1.629.604 3.224 1.246 4.598 2.032.919.524 3.437 2.005 4.052 2.825-2.506 2.422-4.618 4.739-6.634 7.477-.183.246-.44.635-.71 1.04-.453.683-.937 1.412-1.147 1.591-.338-.152-.823-.507-1.274-.838-.238-.174-.466-.341-.659-.468-3.569-2.362-6.155-3.767-10.05-5.597-.726-.342-3.638-1.542-4.352-1.633l2.039 1.07c1.49.766 2.649 1.49 3.89 2.263.624.39 1.27.792 1.988 1.22 1.037.619 6.535 4.446 7.496 5.418-.028.366-.323.856-.577 1.279-.102.17-.198.329-.267.464-.858 1.709-1.651 3.38-2.263 5.24-.767 2.347-1.39 5.29-1.382 7.807-1.135-.072-3.831-1.272-4.686-1.78-4.594-2.75-7.567-6.733-10.647-11.415-.536-.816-1.08-1.67-1.636-2.542-2.402-3.77-5.01-7.863-8.054-10.611-.73-.661-2.111-1.717-2.958-2.195a8 8 0 0 0-.439-.223" clip-rule="evenodd"/></svg>