<svg xmlns="http://www.w3.org/2000/svg" width="33" height="33" fill="none"><path stroke="#000" stroke-linecap="round" stroke-linejoin="round" stroke-opacity=".5" stroke-width="2" d="M31.431 31.244 21.287 21.163m3.382-8.401c0 1.544-.306 3.073-.901 4.5a11.8 11.8 0 0 1-2.566 3.816 11.8 11.8 0 0 1-3.839 2.55 11.9 11.9 0 0 1-9.057 0 11.8 11.8 0 0 1-3.84-2.55 11.8 11.8 0 0 1-2.565-3.816 11.7 11.7 0 0 1-.901-4.5c0-3.12 1.247-6.111 3.466-8.317A11.87 11.87 0 0 1 12.834 1c3.139 0 6.149 1.24 8.368 3.445a11.73 11.73 0 0 1 3.467 8.317"/></svg>