<svg xmlns="http://www.w3.org/2000/svg" width="37" height="37" fill="none"><path fill="#00C700" d="M36.438 5.688V3.125h-3.844V.563H30.03v2.562h-1.28a2.566 2.566 0 0 0-2.562 2.563V8.25a2.565 2.565 0 0 0 2.562 2.563h5.125v2.562h-7.687v2.563h3.843V18.5h2.563v-2.562h1.281a2.565 2.565 0 0 0 2.563-2.563v-2.562a2.566 2.566 0 0 0-2.563-2.563H28.75V5.688zM28.75 23.625v2.563h3.313l-4.594 4.594-2.937-2.938a1.28 1.28 0 0 0-.904-.375h-.003c-.34 0-.665.135-.905.375l-6.782 6.782 1.811 1.812 5.877-5.876 2.937 2.938a1.28 1.28 0 0 0 1.812 0l5.5-5.5v3.313h2.563v-7.688zM3.125 36.438H.563V30.03c0-4.945 4.023-8.968 8.968-8.968h7.688a8.98 8.98 0 0 1 6.684 2.989l-1.909 1.709a6.4 6.4 0 0 0-4.775-2.136H9.53a6.413 6.413 0 0 0-6.406 6.406zM13.375 18.5a8.969 8.969 0 1 0 0-17.937 8.969 8.969 0 0 0 0 17.937m0-15.375a6.406 6.406 0 1 1 0 12.813 6.406 6.406 0 0 1 0-12.813"/></svg>