<svg xmlns="http://www.w3.org/2000/svg" width="39" height="39" fill="none"><path fill="#00C700" d="M27.209 33.905h1.666v-7.04h-1.668zm4.583 0h1.668v-7.04h-1.67zM6 10.182h22.667V8.03H6zM30.333 39q-3.62 0-6.142-2.508-2.524-2.508-2.524-6.105t2.524-6.105 6.142-2.506 6.145 2.506T39 30.387q0 3.595-2.522 6.103-2.526 2.508-6.145 2.508M0 36.098V3.478q0-1.446 1.023-2.462T3.5 0h27.667q1.451 0 2.476 1.016a3.34 3.34 0 0 1 1.023 2.463v12.795q-.529-.194-1.049-.331a9 9 0 0 0-1.118-.216V3.48q0-.498-.416-.913t-.919-.413H3.501q-.5 0-.918.413-.42.414-.416.913v28.919h13.745q.147.883.381 1.726.237.845.657 1.61l-.074.074-2.459-1.779-2.916 2.07-2.917-2.07-2.916 2.07-2.919-2.07zm6.002-9.687h10.202q.122-.592.3-1.109.177-.516.415-1.043H6.002zm0-8.113H21.84a11.3 11.3 0 0 1 2.275-1.389 9.6 9.6 0 0 1 2.594-.764H5.999z"/></svg>