<svg xmlns="http://www.w3.org/2000/svg" width="44" height="39" fill="none"><path fill="#00C700" fill-rule="evenodd" d="M33.087 0a4.09 4.09 0 0 1 3.374 1.776l.178.286 6.821 11.932a4.09 4.09 0 0 1-.425 4.671l-.233.252-18.993 18.992a2.557 2.557 0 0 1-3.409.187l-.208-.185L1.199 18.917a4.09 4.09 0 0 1-.818-4.618l.16-.307L7.358 2.06A4.09 4.09 0 0 1 10.576.012L10.909 0zm0 4.092H10.91L4.09 16.026l17.908 17.908 17.908-17.908zm-4.95 2.046a2.046 2.046 0 0 1 0 4.092h-4.093v3.16c1.551.144 2.96.445 4.1.872.808.303 1.533.688 2.073 1.168.54.481.988 1.14.988 1.96s-.448 1.482-.988 1.96c-.54.481-1.265.866-2.073 1.167-1.215.456-2.737.771-4.413.9.205.326.313.703.313 1.088v4.092a2.046 2.046 0 1 1-4.092 0v-4.092c0-.4.115-.773.313-1.088-1.675-.129-3.198-.442-4.413-.9-.808-.301-1.532-.686-2.072-1.166-.54-.481-.989-1.14-.989-1.96s.448-1.482.989-1.96c.54-.481 1.264-.866 2.072-1.167 1.138-.43 2.547-.73 4.1-.873V10.23H15.86a2.046 2.046 0 1 1 0-4.092zm-4.095 9.309a2.046 2.046 0 0 1-4.088 0c-1.154.102-2.29.347-3.384.73-.675.254-1.145.53-1.434.784-.24.213-.286.352-.296.407l-.003.023c0 .026.01.174.3.43.288.255.76.531 1.433.78 1.34.504 3.258.835 5.428.835s4.088-.33 5.428-.834c.673-.252 1.146-.528 1.432-.782a.94.94 0 0 0 .287-.364l.014-.065-.014-.066a.94.94 0 0 0-.287-.364c-.286-.254-.759-.532-1.432-.782-.9-.337-2.062-.6-3.384-.732" clip-rule="evenodd"/></svg>