<svg width="44" height="63" viewBox="0 0 44 63" fill="none" xmlns="http://www.w3.org/2000/svg">
<path d="M15.0262 47.582C14.4505 47.582 13.8985 47.8106 13.4914 48.2177C13.0844 48.6247 12.8557 49.1768 12.8557 49.7524C12.8557 50.328 13.0844 50.8801 13.4914 51.2871C13.8985 51.6942 14.4505 51.9228 15.0262 51.9228V47.582ZM29.4958 51.9228C30.0714 51.9228 30.6235 51.6942 31.0305 51.2871C31.4376 50.8801 31.6663 50.328 31.6663 49.7524C31.6663 49.1768 31.4376 48.6247 31.0305 48.2177C30.6235 47.8106 30.0714 47.582 29.4958 47.582V51.9228ZM20.0905 59.8812C20.0905 60.4568 20.3192 61.0089 20.7262 61.4159C21.1333 61.8229 21.6853 62.0516 22.261 62.0516C22.8366 62.0516 23.3887 61.8229 23.7957 61.4159C24.2028 61.0089 24.4314 60.4568 24.4314 59.8812H20.0905ZM20.0905 42.5176V49.7524H24.4314V42.5176H20.0905ZM22.261 47.582H15.0262V51.9228H22.261V47.582ZM29.4958 47.582H22.261V51.9228H29.4958V47.582ZM20.0905 49.7524V59.8812H24.4314V49.7524H20.0905Z" fill="#00C700"/>
<path d="M12.1321 4.71211C16.3885 2.25576 21.3927 1.43043 26.2124 2.38985C31.0322 3.34927 35.3388 6.02803 38.3301 9.92709C41.3213 13.8262 42.7933 18.6796 42.4716 23.5834C42.15 28.4872 40.0567 33.1068 36.5818 36.5818C33.1068 40.0567 28.4872 42.15 23.5834 42.4716C18.6796 42.7933 13.8262 41.3213 9.92709 38.3301C6.02803 35.3388 3.34927 31.0322 2.38985 26.2124C1.43043 21.3927 2.25576 16.3885 4.71211 12.1321" stroke="#00C700" stroke-width="2.5" stroke-linecap="round"/>
</svg>
