<svg width="54" height="48" viewBox="0 0 54 48" fill="none" xmlns="http://www.w3.org/2000/svg">
<path d="M27 24H18.6667C14.2464 24 10.0072 22.2616 6.88155 19.1673C3.75595 16.0729 2 11.8761 2 7.5V2H10.3333C14.7536 2 18.9928 3.73839 22.1184 6.83274C25.2441 9.92709 27 14.1239 27 18.5V46M27 29.5C27 25.1239 28.7559 20.9271 31.8816 17.8327C35.0072 14.7384 39.2464 13 43.6667 13H52V15.75C52 20.1261 50.2441 24.3229 47.1184 27.4173C43.9928 30.5116 39.7536 32.25 35.3333 32.25H27" stroke="#00C700" stroke-width="3" stroke-linecap="round" stroke-linejoin="round"/>
</svg>
