<svg width="46" height="46" viewBox="0 0 46 46" fill="none" xmlns="http://www.w3.org/2000/svg">
<path d="M25.4167 20.5837L37.5 8.50034M39.9167 10.917L35.0834 6.08367L41.125 2.45867L43.5417 4.87534L39.9167 10.917ZM3.72712 15.6899C2.56685 14.5307 1.76865 13.0591 1.42968 11.4544C1.09072 9.84968 1.22561 8.18102 1.81795 6.65159L5.25445 10.0881H10.0878V5.25475L6.65128 1.81825C8.18082 1.22458 9.85001 1.08857 11.4555 1.42679C13.061 1.76502 14.5334 2.56288 15.6934 3.72317C16.8535 4.88346 17.651 6.35608 17.9889 7.96163C18.3268 9.56718 18.1904 11.2363 17.5964 12.7658L33.2322 28.404C34.7616 27.81 36.4308 27.6736 38.0363 28.0115C39.6419 28.3494 41.1145 29.1469 42.2748 30.3069C43.4351 31.467 44.2329 32.9394 44.5712 34.5449C44.9094 36.1504 44.7734 37.8195 44.1797 39.3491L40.7456 35.9126H35.9123V40.7459L39.3488 44.1824C37.8196 44.7761 36.1508 44.9123 34.5456 44.5745C32.9404 44.2367 31.4681 43.4394 30.308 42.2797C29.1478 41.1201 28.3499 39.6481 28.0113 38.0431C27.6728 36.438 27.8083 34.7692 28.4013 33.2398L12.7606 17.5991C11.2318 18.1904 9.56413 18.3248 7.96039 17.9858C6.35664 17.6469 4.88593 16.8492 3.72712 15.6899Z" stroke="#00C700" stroke-width="2" stroke-linecap="round" stroke-linejoin="round"/>
<path d="M23.4905 29.042L9.94753 42.585C9.64449 42.8886 9.28456 43.1295 8.88834 43.2938C8.49211 43.4582 8.06736 43.5428 7.6384 43.5428C7.20944 43.5428 6.78469 43.4582 6.38847 43.2938C5.99224 43.1295 5.63231 42.8886 5.32928 42.585L3.41527 40.671C3.11167 40.368 2.8708 40.0081 2.70646 39.6118C2.54211 39.2156 2.45752 38.7909 2.45752 38.3619C2.45752 37.9329 2.54211 37.5082 2.70646 37.112C2.8708 36.7157 3.11167 36.3558 3.41527 36.0528L16.9583 22.5098" stroke="#00C700" stroke-width="2" stroke-linecap="round" stroke-linejoin="round"/>
</svg>
