<svg width="51" height="50" viewBox="0 0 51 50" fill="none" xmlns="http://www.w3.org/2000/svg">
<path fill-rule="evenodd" clip-rule="evenodd" d="M49.8267 2.91759L48.4814 2.70361L48.1284 1.38698L50.1579 0.841797L49.8267 2.91759ZM31.8083 21.7674L30.6484 22.4816L30.6457 22.4789L30.6416 22.4721L30.628 22.4503L30.5816 22.3726L30.4181 22.0904C30.2273 21.7566 30.0432 21.419 29.8661 21.0778C29.305 20.0052 28.8159 18.8965 28.4022 17.7589C27.9415 16.4723 27.5463 14.9989 27.485 13.5733C27.425 12.1531 27.6894 10.6115 28.7471 9.40259C29.697 8.31767 31.488 7.31861 33.3702 6.45449C35.3206 5.5563 37.6159 4.6949 39.7898 3.94936C42.4826 3.02992 45.2025 2.19177 47.9458 1.43605L48.0821 1.39789L48.1298 1.38426L48.4842 2.70225L49.8294 2.91623L49.8212 2.96666L49.7981 3.11114C49.662 3.94729 49.5194 4.78236 49.3701 5.61627C49.007 7.66698 48.6107 9.71169 48.1816 11.7496C47.6964 14.0408 47.1321 16.4423 46.5338 18.4527C46.2672 19.3719 45.9547 20.2771 45.5974 21.165C45.2867 21.9146 44.9187 22.6424 44.4716 23.1549C43.5148 24.248 42.0251 24.5901 40.7234 24.6773C39.3659 24.7687 37.8612 24.6037 36.5078 24.3639C35.3007 24.1466 34.1053 23.8691 32.9259 23.5325C32.4433 23.3965 31.9635 23.2511 31.4866 23.0963L31.4008 23.0663L31.3776 23.0581L31.3708 23.0568H31.368L31.8083 21.7674ZM31.8083 21.7674L30.6484 22.4816L30.9046 22.8973L31.368 23.0568L31.8083 21.7674ZM32.7242 20.6321C34.12 21.0661 35.5405 21.4165 36.978 21.6815C38.2374 21.9037 39.4968 22.0291 40.5408 21.9582C41.6434 21.8846 42.1968 21.6148 42.419 21.3613C42.5607 21.1977 42.7924 20.8106 43.0786 20.121C43.3995 19.3209 43.6801 18.5052 43.9196 17.6772C44.488 15.769 45.0345 13.4479 45.5143 11.1867C45.9747 8.99906 46.3964 6.80343 46.7791 4.60086L46.3579 4.72352C44.8464 5.16921 42.8047 5.79754 40.6744 6.52809C38.54 7.26 36.3415 8.08733 34.5083 8.931C32.6056 9.80603 31.3217 10.6006 30.7983 11.199C30.3799 11.676 30.1645 12.4107 30.2095 13.456C30.2531 14.496 30.5516 15.6777 30.9687 16.8376C31.4448 18.15 32.0321 19.4195 32.7242 20.6321ZM6.65201 6.34818L6.29901 7.6648L4.9524 7.87879L4.62256 5.80436L6.65201 6.34818ZM19.8483 23.1576L21.0081 23.8705L21.0109 23.8677L21.0136 23.8623L21.0245 23.8446L21.064 23.7792L21.2003 23.5474C21.8521 22.4093 22.4061 21.2179 22.8563 19.986C23.2352 18.9284 23.5651 17.7031 23.6155 16.5091C23.6673 15.3192 23.4465 13.9917 22.5278 12.9422C21.7155 12.0127 20.2122 11.184 18.6856 10.4807C17.0896 9.74605 15.2155 9.04276 13.445 8.43624C11.2521 7.68804 9.03718 7.0058 6.8033 6.39043L6.69154 6.35908L6.65201 6.34818L6.29901 7.6648L4.9524 7.87879L4.95921 7.91968L4.97829 8.03826L5.05189 8.48258C5.41956 10.6872 5.83354 12.8839 6.29355 15.0712C6.68881 16.9357 7.1495 18.8943 7.63744 20.5367C7.88277 21.3572 8.13901 22.1218 8.40751 22.7665C8.66239 23.3798 8.97451 24.0054 9.36704 24.4525C10.2121 25.4202 11.511 25.7064 12.5864 25.7773C13.7204 25.8536 14.9647 25.7159 16.0756 25.521C17.4705 25.2716 18.846 24.9236 20.1917 24.4797L20.2612 24.4565L20.2817 24.4497L20.2885 24.447L19.8483 23.1576ZM19.8483 23.1576L21.0081 23.8705L20.7519 24.2875L20.2885 24.447L19.8483 23.1576ZM18.931 22.0209C19.0173 21.8665 19.1182 21.6788 19.2336 21.458C19.5579 20.8338 19.9614 19.9833 20.2899 19.0647C20.6238 18.1351 20.8582 17.2015 20.8923 16.3932C20.9277 15.5768 20.756 15.0575 20.4766 14.7359C20.0909 14.297 19.0959 13.67 17.5462 12.9572C16.0687 12.2771 14.2914 11.6079 12.5605 11.015C11.0526 10.5001 9.53393 10.0175 8.00544 9.56751L8.01089 9.60158C8.2426 10.91 8.57243 12.6764 8.96088 14.5069C9.34932 16.3414 9.79229 18.2183 10.2502 19.7598C10.4806 20.5312 10.7068 21.1977 10.9249 21.7211C11.1566 22.2758 11.3311 22.5579 11.4183 22.6588C11.5301 22.7856 11.8913 22.9995 12.769 23.0581C13.5882 23.1127 14.5886 23.0145 15.6026 22.836C16.7281 22.6339 17.8397 22.3626 18.931 22.0209ZM15.9461 35.0141C15.5999 35.0332 15.4309 35.0822 15.3873 35.1013C14.7698 35.3807 12.8944 36.0349 11.2752 36.5869C10.4438 36.8718 9.64645 37.1389 9.05765 37.3366L9.01949 37.3502V44.7143C9.25937 44.7034 9.51697 44.6939 9.78002 44.6843C10.9086 44.6434 12.2511 44.6025 12.8331 44.6271C15.2755 44.7239 17.1101 45.3018 18.8083 45.8374L18.8451 45.8497C20.4371 46.3512 21.9118 46.8119 23.8431 46.9578C24.3883 46.9986 24.9185 47.0518 25.4132 47.1009H25.4201C27.32 47.2917 28.5712 47.3871 29.5403 47.0354C30.294 46.7615 33.054 45.4817 35.8372 44.0819C37.2138 43.3895 38.5631 42.6849 39.6358 42.0811C40.1742 41.7785 40.6308 41.5086 40.981 41.2824C41.1546 41.1697 41.2945 41.0743 41.4008 40.9961L41.5235 40.9007L41.5617 40.868C41.698 40.7304 41.8424 40.2506 41.608 39.7995C41.4977 39.5885 41.3154 39.4241 41.0942 39.336C40.8216 39.2175 40.3582 39.1261 39.6222 39.2475C37.9621 39.52 35.979 40.3187 33.9986 41.1243L33.9713 41.1365C32.9981 41.5318 32.0223 41.9284 31.1568 42.2174C30.3254 42.494 29.4026 42.7421 28.5985 42.6944C27.4945 42.6262 25.5577 42.34 23.9603 42.0811C23.0423 41.9326 22.1255 41.7773 21.2099 41.6149L21.0327 41.5836L20.97 41.5713L21.2289 38.8672L27.4577 38.9422H27.4713C27.5441 38.9343 27.6161 38.9207 27.6867 38.9013C27.902 38.8467 28.2714 38.7118 28.7362 38.3833C28.8793 38.2811 29.0674 38.093 29.2432 37.8409C29.3159 37.7355 29.3777 37.6328 29.4285 37.5328C28.6692 37.484 27.9146 37.3773 27.1715 37.2139C26.7668 37.1258 26.3654 37.0235 25.968 36.9072L25.9216 36.8936L18.2931 35.1954L18.2209 35.1831L17.9346 35.1395C17.6229 35.0936 17.3097 35.0586 16.9956 35.0345C16.6465 35.0052 16.296 34.9984 15.9461 35.0141ZM18.5602 33.861L18.8069 32.5212L18.8315 32.5253L26.6249 34.259L26.6822 34.2767L26.6931 34.2808L26.7449 34.2958L26.9602 34.3571C27.1497 34.4089 27.4223 34.4798 27.7466 34.5507C28.409 34.6938 29.2377 34.826 30.0037 34.826C30.7711 34.826 31.6052 35.1122 32.055 35.9273C32.4393 36.6251 32.3439 37.3802 32.209 37.879C32.0834 38.32 31.8967 38.7411 31.6543 39.1302C32.0695 38.9667 32.5084 38.7904 32.9709 38.6014L33.0554 38.566C34.9336 37.8027 37.1852 36.8868 39.1792 36.5583C41.4962 36.1794 43.234 37.0108 44.0286 38.5483C44.7292 39.9044 44.5738 41.6926 43.5039 42.7803C43.2354 43.0529 42.836 43.3295 42.4544 43.5762C41.9683 43.8837 41.4738 44.1778 40.9715 44.4581C39.8471 45.0905 38.4555 45.817 37.0598 46.5189C34.3039 47.905 31.4008 49.2612 30.4685 49.5992C28.852 50.1853 26.982 49.9985 25.3206 49.8322L25.1475 49.8145C24.6446 49.763 24.1412 49.7176 23.6373 49.6782C21.3748 49.5065 19.6411 48.96 18.0573 48.4611L18.0232 48.4502C16.3195 47.9132 14.7848 47.4348 12.724 47.3517C12.2715 47.3339 11.053 47.3666 9.87816 47.4103C9.21655 47.4343 8.55505 47.4611 7.89368 47.4907L7.71785 47.4989L6.29219 47.5643V35.3848L7.48751 34.9882C8.45743 34.6659 9.42605 34.3397 10.3934 34.0096C12.0889 33.4303 13.798 32.8292 14.2642 32.6194C14.7644 32.3931 15.3327 32.3195 15.788 32.2922C16.2718 32.265 16.7693 32.2854 17.2041 32.3181C17.7274 32.3599 18.2485 32.425 18.7661 32.513L18.7947 32.5185H18.8029L18.8056 32.5199H18.8083L18.5602 33.861Z" fill="#00C700"/>
<path fill-rule="evenodd" clip-rule="evenodd" d="M40.572 10.7997C40.7081 10.916 40.8199 11.058 40.901 11.2175C40.9822 11.3771 41.0311 11.551 41.045 11.7295C41.059 11.908 41.0376 12.0874 40.9822 12.2576C40.9267 12.4278 40.8383 12.5854 40.722 12.7214C36.659 17.4618 31.601 24.4089 29.3684 30.0556C29.3026 30.2221 29.2046 30.374 29.08 30.5025C28.9555 30.6311 28.8068 30.7339 28.6425 30.805C28.4782 30.8762 28.3016 30.9142 28.1226 30.9171C27.9436 30.9199 27.7658 30.8875 27.5993 30.8216C27.4329 30.7558 27.281 30.6578 27.1524 30.5332C27.0238 30.4086 26.9211 30.26 26.8499 30.0957C26.7788 29.9314 26.7407 29.7547 26.7379 29.5758C26.735 29.3968 26.7675 29.219 26.8333 29.0525C29.2362 22.975 34.5355 15.7499 38.6502 10.9482C38.8856 10.6739 39.2203 10.5042 39.5807 10.4766C39.941 10.449 40.2977 10.5657 40.572 10.801M13.6262 15.1721C13.4856 15.283 13.3683 15.4205 13.2809 15.5768C13.1936 15.7331 13.1379 15.9051 13.117 16.0829C13.0961 16.2608 13.1104 16.441 13.1592 16.6133C13.208 16.7856 13.2903 16.9465 13.4013 17.087C16.4571 20.9647 19.7936 25.9272 21.3774 30.0434C21.5134 30.3719 21.7723 30.6343 22.099 30.7746C22.4258 30.9148 22.7944 30.9219 23.1262 30.7942C23.458 30.6665 23.7268 30.4142 23.8753 30.0911C24.0237 29.768 24.04 29.3997 23.9207 29.0648C22.1883 24.5615 18.6487 19.34 15.5412 15.3997C15.3175 15.1158 14.9903 14.9323 14.6315 14.8897C14.2726 14.847 13.9102 14.9486 13.6262 15.1721Z" fill="#00C700"/>
<path d="M0.841797 32.2812H9.01959V49.9998H0.841797V32.2812Z" fill="#00C700"/>
</svg>
