<svg xmlns="http://www.w3.org/2000/svg" width="23" height="26" fill="none"><path fill="#141416" fill-opacity=".5" fill-rule="evenodd" d="M20.444 24.612v-2.556a3.833 3.833 0 0 0-3.833-3.833H6.39a3.833 3.833 0 0 0-3.833 3.833v2.556a1.278 1.278 0 1 1-2.556 0v-2.556a6.39 6.39 0 0 1 6.389-6.389h10.22A6.39 6.39 0 0 1 23 22.058v2.555a1.278 1.278 0 1 1-2.556 0M5.111 6.722a6.389 6.389 0 1 1 12.777 0 6.389 6.389 0 0 1-12.777 0m2.557.001a3.833 3.833 0 1 0 7.666 0 3.833 3.833 0 0 0-7.666 0" clip-rule="evenodd"/></svg>