<svg width="33" height="33" viewBox="0 0 33 33" fill="none" xmlns="http://www.w3.org/2000/svg">
<path d="M2.53846 4.12524C2.53846 3.24942 3.24923 2.53861 4.125 2.53861H7.61538V11.5139L4.03362 9.57437C3.58123 9.3292 3.20348 8.96636 2.9403 8.5242C2.67712 8.08204 2.53828 7.57698 2.53846 7.06241V4.12524ZM10.1538 12.8885V2.53861H22.8462V12.8885L16.6523 16.2446C16.6056 16.2701 16.5532 16.2835 16.5 16.2835C16.4468 16.2835 16.3944 16.2701 16.3477 16.2446L10.1538 12.8885ZM25.3846 11.5139V2.53861H28.875C29.7508 2.53861 30.4615 3.24942 30.4615 4.12524V7.06241C30.4617 7.57698 30.3229 8.08204 30.0597 8.5242C29.7965 8.96636 29.4188 9.3292 28.9664 9.57437L25.3846 11.5139ZM4.125 0C3.03098 0 1.98177 0.434622 1.20818 1.20826C0.434597 1.98189 0 3.03116 0 4.12524V7.06241C2.30978e-05 8.03425 0.262563 8.98803 0.759876 9.82297C1.25719 10.6579 1.9708 11.343 2.82531 11.8058L12.9601 17.2968C11.2684 18.1003 9.90039 19.4555 9.08097 21.1396C8.26154 22.8237 8.03948 24.7366 8.45127 26.5636C8.86306 28.3907 9.88421 30.0233 11.3468 31.193C12.8095 32.3628 14.6266 33 16.4994 33C18.3722 33 20.1892 32.3628 21.6519 31.193C23.1145 30.0233 24.1357 28.3907 24.5475 26.5636C24.9593 24.7366 24.7372 22.8237 23.9178 21.1396C23.0983 19.4555 21.7303 18.1003 20.0386 17.2968L30.1747 11.8058C31.0292 11.343 31.7428 10.6579 32.2401 9.82297C32.7374 8.98803 33 8.03425 33 7.06241V4.12524C33 3.03116 32.5654 1.98189 31.7918 1.20826C31.0182 0.434622 29.969 0 28.875 0H4.125ZM10.7885 24.7514C10.7885 23.2366 11.3902 21.7837 12.4613 20.7125C13.5325 19.6414 14.9852 19.0396 16.5 19.0396C18.0148 19.0396 19.4675 19.6414 20.5387 20.7125C21.6098 21.7837 22.2115 23.2366 22.2115 24.7514C22.2115 26.2663 21.6098 27.7192 20.5387 28.7903C19.4675 29.8615 18.0148 30.4633 16.5 30.4633C14.9852 30.4633 13.5325 29.8615 12.4613 28.7903C11.3902 27.7192 10.7885 26.2663 10.7885 24.7514Z" fill="white"/>
</svg>
