<svg width="26" height="32" viewBox="0 0 26 32" fill="none" xmlns="http://www.w3.org/2000/svg">
<path d="M13.6239 29.2235L0 15.5996V18.3828C0 19.1204 0.292238 19.8301 0.821049 20.345L11.6617 31.1856C12.7471 32.2711 14.5145 32.2711 15.5999 31.1856L24.2418 22.5437C25.3273 21.4583 25.3273 19.6909 24.2418 18.6055L13.6239 29.2235Z" fill="white"/>
<path d="M11.6617 24.2279C12.2044 24.7706 12.9141 25.049 13.6239 25.049C14.3336 25.049 15.0433 24.7706 15.586 24.2279L24.2279 15.586C25.3134 14.5006 25.3134 12.7332 24.2279 11.6478L13.3873 0.807133C12.8724 0.292238 12.1627 0 11.4251 0H2.78322C1.25245 0 0 1.25245 0 2.78322V11.4251C0 12.1627 0.292238 12.8724 0.821049 13.3873L11.6617 24.2279ZM2.78322 2.78322H11.4251L22.2657 13.6239L13.6239 22.2657L2.78322 11.4251V2.78322Z" fill="white"/>
</svg>
