<svg width="34" height="34" viewBox="0 0 34 34" fill="none" xmlns="http://www.w3.org/2000/svg">
<path d="M30.6 20.4H34V23.8H30.6C28.254 23.8 25.942 23.205 23.8 22.1C19.55 24.31 14.45 24.31 10.2 22.1C8.058 23.205 5.729 23.8 3.4 23.8H0V20.4H3.4C5.763 20.4 8.126 19.601 10.2 18.139C14.348 21.046 19.652 21.046 23.8 18.139C25.874 19.601 28.237 20.4 30.6 20.4ZM30.6 30.6H34V34H30.6C28.254 34 25.942 33.405 23.8 32.3C19.55 34.51 14.45 34.51 10.2 32.3C8.058 33.405 5.729 34 3.4 34H0V30.6H3.4C5.763 30.6 8.126 29.801 10.2 28.339C14.348 31.246 19.652 31.246 23.8 28.339C25.874 29.801 28.237 30.6 30.6 30.6ZM8.5 0L1.7 6.8H6.8V15.3H10.2V6.8H15.3M25.5 0L18.7 6.8H23.8V15.3H27.2V6.8H32.3" fill="white"/>
</svg>
