<svg xmlns="http://www.w3.org/2000/svg" width="34" height="28" fill="none"><path fill="#141416" fill-rule="evenodd" d="M30.56 8.007A4 4 0 0 0 30.27 8h-4.04c-3.308 0-6.139 2.605-6.139 6s2.832 6 6.14 6h4.04q.153.002.29-.006a2.81 2.81 0 0 0 2.633-2.605c.006-.096.006-.2.006-.296v-6.185c0-.096 0-.2-.007-.296a2.81 2.81 0 0 0-2.633-2.605M25.877 15.6c.85 0 1.54-.716 1.54-1.6 0-.883-.69-1.6-1.54-1.6-.853 0-1.543.717-1.543 1.6s.69 1.6 1.543 1.6" clip-rule="evenodd"/><path fill="#141416" fill-rule="evenodd" d="M30.269 22.4a.352.352 0 0 1 .353.445c-.32 1.139-.83 2.112-1.648 2.928-1.198 1.2-2.716 1.73-4.592 1.982C22.558 28 20.23 28 17.29 28h-3.38c-2.94 0-5.27 0-7.092-.245-1.876-.253-3.394-.784-4.592-1.98-1.197-1.2-1.728-2.718-1.981-4.594C0 19.358 0 17.03 0 14.09v-.18c0-2.94 0-5.27.245-7.094.253-1.875.784-3.394 1.98-4.592C3.425 1.027 4.943.496 6.819.244 8.642 0 10.97 0 13.91 0h3.38c2.94 0 5.27 0 7.092.245 1.876.253 3.394.784 4.592 1.98.818.82 1.328 1.791 1.648 2.93a.353.353 0 0 1-.353.445H26.23c-4.539 0-8.539 3.584-8.539 8.4s4 8.4 8.54 8.4zM6 6.4a1.2 1.2 0 0 0 0 2.4h6.4a1.2 1.2 0 1 0 0-2.4z" clip-rule="evenodd"/></svg>