<svg xmlns="http://www.w3.org/2000/svg" width="113" height="90" fill="none"><path fill="#141416" fill-opacity=".7" d="M35.795 19.943c0-2.846-2.095-5.153-4.68-5.153s-4.679 2.307-4.679 5.153v27.862c0 2.846 2.095 5.153 4.68 5.153s4.679-2.307 4.679-5.153zM61.062 8.7c0-4.805-2.095-8.7-4.68-8.7-2.583 0-4.678 3.895-4.678 8.7v47.04c0 4.804 2.095 8.699 4.679 8.699s4.68-3.895 4.68-8.7zM48.897 32.223c0-2.365-2.095-4.283-4.68-4.283s-4.679 1.918-4.679 4.283v23.162c0 2.365 2.095 4.283 4.68 4.283s4.679-1.918 4.679-4.283zm25.969-8.416c0-2.197-2.096-3.977-4.68-3.977s-4.679 1.78-4.679 3.977v21.507c0 2.196 2.095 3.977 4.68 3.977s4.679-1.78 4.679-3.977zm12.633-2.995c0-3.77-2.095-6.827-4.68-6.827s-4.678 3.057-4.678 6.827v36.92c0 3.77 2.094 6.826 4.679 6.826 2.584 0 4.679-3.056 4.679-6.827zm13.57 12.687c0-1.423-2.095-2.577-4.68-2.577S91.71 32.076 91.71 33.5v13.93c0 1.424 2.095 2.577 4.68 2.577s4.679-1.153 4.679-2.576zm-78.141-5.964c0-1.423-2.095-2.576-4.68-2.576s-4.679 1.153-4.679 2.576v13.931c0 1.423 2.095 2.577 4.68 2.577s4.679-1.154 4.679-2.577zM4.445 43.804c2.455 0 4.445-2.003 4.445-4.473s-1.99-4.473-4.445-4.473S0 36.861 0 39.331s1.99 4.473 4.445 4.473m104.11 0c2.455 0 4.445-2.003 4.445-4.473s-1.99-4.473-4.445-4.473-4.445 2.003-4.445 4.473 1.99 4.473 4.445 4.473M8.952 84.055l-5.391-20.22h2.758l3.09 13.255q.5 2.083.86 4.138.776-3.242.914-3.738l3.867-13.655h3.243l2.91 10.234q1.095 3.807 1.58 7.159a99 99 0 0 1 1.012-4.4l3.188-12.993h2.702l-5.571 20.22h-2.592L17.24 68.65q-.54-1.93-.638-2.373a49 49 0 0 1-.596 2.373l-4.31 15.406zm31.488-1.806q-1.386 1.172-2.675 1.655a7.7 7.7 0 0 1-2.744.482q-2.426 0-3.728-1.172-1.303-1.186-1.303-3.02 0-1.076.485-1.96a4.1 4.1 0 0 1 1.29-1.434 6.2 6.2 0 0 1 1.8-.813q.736-.194 2.218-.373 3.021-.359 4.449-.855.014-.51.014-.648 0-1.518-.707-2.138-.956-.841-2.841-.841-1.76 0-2.606.62-.831.608-1.233 2.166l-2.44-.331q.334-1.56 1.096-2.51.762-.966 2.203-1.477 1.441-.524 3.34-.524 1.885 0 3.063.442 1.178.44 1.732 1.117.555.662.777 1.683.124.634.124 2.29v3.31q0 3.461.153 4.386.165.91.637 1.751H40.94q-.388-.772-.5-1.806m-.208-5.545q-1.358.552-4.075.938-1.538.22-2.175.496a2.15 2.15 0 0 0-.984.814 2.1 2.1 0 0 0-.347 1.172q0 .993.748 1.656.763.661 2.218.662 1.44 0 2.564-.621 1.122-.635 1.65-1.724.4-.842.401-2.483zm10.491 7.351-5.599-14.648h2.633l3.16 8.773a43 43 0 0 1 .943 2.951q.332-1.157.928-2.786l3.271-8.938h2.564l-5.571 14.648zm20.179-4.717 2.578.317q-.61 2.249-2.26 3.49-1.648 1.242-4.212 1.241-3.23 0-5.128-1.972-1.885-1.986-1.885-5.558 0-3.697 1.913-5.738 1.912-2.042 4.961-2.042 2.952 0 4.823 2 1.87 2.001 1.871 5.628 0 .22-.014.662H62.573q.138 2.413 1.372 3.696t3.077 1.283q1.371 0 2.342-.717.97-.718 1.538-2.29m-8.19-4.013h8.218q-.166-1.85-.943-2.773-1.191-1.434-3.09-1.434-1.719 0-2.897 1.145-1.163 1.144-1.289 3.061m19.362 6.511.36 2.193a9.3 9.3 0 0 1-1.885.22q-1.358 0-2.106-.427-.749-.428-1.054-1.117-.305-.705-.305-2.938v-8.428h-1.83v-1.93h1.83V65.78l2.481-1.49v5.117h2.509v1.931h-2.509v8.566q0 1.062.125 1.365.138.304.43.483.305.18.859.18.415 0 1.095-.097"/><path fill="#141416" fill-opacity=".7" d="M84.54 66.69v-2.855h2.494v2.855zm0 17.365V69.407h2.494v14.648zm6.901 0V71.338h-2.203v-1.93h2.203v-1.56q0-1.475.264-2.192.36-.966 1.26-1.559.915-.607 2.55-.607 1.055 0 2.33.248l-.375 2.166a8.4 8.4 0 0 0-1.469-.138q-1.137 0-1.608.483-.47.483-.47 1.807v1.351h2.868v1.931h-2.869v12.717zm7.193 5.642-.277-2.331q.818.22 1.427.22.832 0 1.331-.276t.818-.772q.236-.372.762-1.848.069-.207.222-.607l-5.586-14.676h2.689l3.063 8.483a38 38 0 0 1 1.067 3.393q.43-1.71 1.026-3.338l3.146-8.538h2.494l-5.599 14.897q-.9 2.413-1.4 3.324-.665 1.227-1.524 1.793-.86.579-2.051.579-.72 0-1.608-.303"/></svg>