<svg xmlns="http://www.w3.org/2000/svg" width="27" height="26" fill="none"><path fill="#141416" d="M13.249.286c7.1 0 12.857 5.756 12.857 12.857S20.35 26 13.249 26a12.8 12.8 0 0 1-6.467-1.742L.397 26l1.738-6.387a12.8 12.8 0 0 1-1.743-6.47C.392 6.043 6.148.286 13.249.286M8.867 7.1l-.257.01a1.2 1.2 0 0 0-.478.13q-.21.118-.378.292c-.155.146-.242.272-.336.394a3.5 3.5 0 0 0-.728 2.157c.003.63.167 1.244.425 1.817.526 1.16 1.39 2.388 2.533 3.525.275.274.545.55.835.805a12.15 12.15 0 0 0 4.937 2.63l.73.113c.239.013.476-.005.716-.017.374-.02.74-.12 1.07-.297q.253-.13.493-.283.001.002.16-.116c.174-.128.281-.22.425-.37.107-.11.2-.24.27-.388.1-.21.2-.61.242-.942.03-.255.021-.394.018-.48-.006-.138-.12-.28-.245-.34l-.748-.336s-1.118-.488-1.802-.799a.6.6 0 0 0-.227-.053.62.62 0 0 0-.486.164c-.006-.003-.092.07-1.022 1.197a.45.45 0 0 1-.473.167 2 2 0 0 1-.246-.085c-.16-.067-.214-.092-.324-.139a7.8 7.8 0 0 1-2.025-1.29c-.162-.14-.312-.295-.466-.444a8 8 0 0 1-1.312-1.63l-.076-.123a1.2 1.2 0 0 1-.13-.263c-.05-.19.078-.341.078-.341s.312-.342.457-.527a6 6 0 0 0 .338-.48c.152-.244.2-.495.12-.689q-.54-1.32-1.116-2.624c-.076-.172-.3-.296-.505-.32l-.208-.02a4 4 0 0 0-.519.004z"/></svg>