<svg xmlns="http://www.w3.org/2000/svg" width="47" height="46" fill="none"><path fill="#141416" fill-opacity=".7" d="M32.242 0q-2.22.07-4.303.8h-.138a.8.8 0 0 0-.212.143 8 8 0 0 0-1.48.631l-.893.412c-.353.194-.776.554-1.01.702-.236.143-.494.29-.706.458C20.89 1.09 17.72-.024 14.453 0c-1.483 0-2.963.216-4.371.703-8.674 2.905-11.8 12.71-9.189 21.28 1.48 4.38 3.901 8.377 7.072 11.643a90.8 90.8 0 0 0 14.877 12.008l.588.366.61-.39a90 90 0 0 0 14.968-12.008c3.149-3.266 5.572-7.239 7.075-11.618 2.656-8.57-.47-18.376-9.237-21.332a10.4 10.4 0 0 0-2.09-.506h-.281C33.815.046 33.159 0 32.5 0zM11.304 7.651c.963-.341 2.02.194 2.373 1.21.33 1.017-.188 2.131-1.175 2.492-1.506.58-2.514 2.109-2.514 3.8v.076a2.12 2.12 0 0 1-.447 1.501 1.95 1.95 0 0 1-1.34.702c-.963-.027-1.785-.823-1.856-1.842v-.288c-.07-3.392 1.925-6.465 4.959-7.65"/></svg>