<svg xmlns="http://www.w3.org/2000/svg" width="25" height="25" fill="none"><path stroke="#00C700" stroke-linecap="round" stroke-linejoin="round" stroke-width="1.4" d="M6.123 4.167H18.37c2.254 0 4.082 1.866 4.082 4.167v5.208c0 2.302-1.828 4.167-4.082 4.167h-8.165c-2.254 0-4.082-1.865-4.082-4.167zm0 0c0-1.15-.914-2.083-2.04-2.083H2.04"/><path stroke="#00C700" stroke-width="1.4" d="M11.226 21.354c0 .863-.686 1.562-1.531 1.562-.846 0-1.53-.7-1.53-1.562s.684-1.563 1.53-1.563c.845 0 1.53.7 1.53 1.563Zm9.185 0c0 .863-.685 1.562-1.53 1.562-.846 0-1.531-.7-1.531-1.562s.685-1.563 1.53-1.563c.846 0 1.531.7 1.531 1.563Z"/><path stroke="#00C700" stroke-linecap="round" stroke-linejoin="round" stroke-width="1.4" d="M14.288 8.334v5.208m2.552-2.604h-5.104"/></svg>