<svg xmlns="http://www.w3.org/2000/svg" width="196" height="56" fill="none"><path fill="#fff" d="M0 28C0 12.536 12.573 0 28.082 0h139.836C183.427 0 196 12.536 196 28s-12.573 28-28.082 28H28.082C12.572 56 0 43.464 0 28"/><path fill="#015401" d="M73.024 21.714v-8h2.602q1.41 0 2.316.492a3.06 3.06 0 0 1 1.352 1.394q.447.891.447 2.126 0 1.223-.447 2.125a3.08 3.08 0 0 1-1.352 1.383q-.906.48-2.316.48zm1.215-1.028h1.341q1.09 0 1.72-.355.642-.354.917-1.017.285-.663.286-1.588 0-.925-.286-1.6a2 2 0 0 0-.917-1.029q-.63-.366-1.72-.366h-1.34zm9.458 1.165a2.95 2.95 0 0 1-1.467-.365 2.8 2.8 0 0 1-1.02-1.04q-.379-.675-.379-1.566t.379-1.554a2.73 2.73 0 0 1 1.043-1.04q.653-.377 1.455-.377a2.8 2.8 0 0 1 1.456.377q.654.365 1.032 1.04.39.663.39 1.554t-.39 1.566a2.76 2.76 0 0 1-1.032 1.04 2.95 2.95 0 0 1-1.467.365m0-1.04q.436 0 .802-.217a1.6 1.6 0 0 0 .608-.64q.23-.434.229-1.074 0-.64-.23-1.063a1.5 1.5 0 0 0-.595-.651 1.55 1.55 0 0 0-.803-.217q-.435 0-.814.217a1.6 1.6 0 0 0-.596.651q-.228.423-.229 1.063 0 .64.23 1.074.228.423.595.64t.803.217m5.124.903-1.673-5.668h1.215l1.1 4.274 1.238-4.274h1.353l1.237 4.274 1.1-4.274h1.216l-1.674 5.668h-1.249l-1.307-4.457-1.306 4.457zm7.787 0v-5.668h1.077l.092.994a1.95 1.95 0 0 1 .768-.823 2.26 2.26 0 0 1 1.18-.308q1.032 0 1.616.64.596.639.596 1.908v3.257h-1.203v-3.131q0-1.646-1.353-1.646-.675 0-1.123.48-.435.48-.435 1.372v2.925zm6.76 0v-8.228h1.215v8.228zm5.413.137a2.95 2.95 0 0 1-1.467-.365 2.8 2.8 0 0 1-1.02-1.04q-.378-.675-.378-1.566t.378-1.554a2.73 2.73 0 0 1 1.043-1.04 2.86 2.86 0 0 1 1.456-.377q.813 0 1.455.377.654.365 1.032 1.04.39.663.39 1.554t-.39 1.566a2.75 2.75 0 0 1-1.032 1.04 2.95 2.95 0 0 1-1.467.365m0-1.04q.436 0 .803-.217a1.6 1.6 0 0 0 .607-.64q.23-.434.229-1.074 0-.64-.229-1.063a1.5 1.5 0 0 0-.596-.651 1.55 1.55 0 0 0-.802-.217q-.436 0-.814.217a1.6 1.6 0 0 0-.596.651q-.23.423-.229 1.063 0 .64.229 1.074.229.423.596.64t.802.217m6.128 1.04q-.722 0-1.192-.24a1.66 1.66 0 0 1-.699-.628 1.7 1.7 0 0 1-.229-.869q0-.823.642-1.303.641-.48 1.833-.48h1.491v-.102q0-.663-.367-.995-.356-.33-.929-.331-.504 0-.882.251-.368.24-.447.72h-1.215q.057-.617.412-1.051.368-.446.917-.674.563-.24 1.227-.24 1.192 0 1.845.628.654.617.653 1.692v3.485h-1.054l-.103-.971a2.2 2.2 0 0 1-.699.788q-.459.32-1.204.32m.241-.982q.492 0 .825-.229.344-.24.527-.629.195-.388.241-.857h-1.352q-.723 0-1.032.252a.79.79 0 0 0-.298.628q0 .39.286.617.299.218.803.218m6.827.982q-.826 0-1.456-.388a2.7 2.7 0 0 1-.986-1.063q-.355-.675-.355-1.531 0-.857.355-1.52.356-.675.986-1.052a2.8 2.8 0 0 1 1.467-.388q.676 0 1.181.262.515.264.802.743v-3.428h1.215v8.228h-1.089l-.126-.88a2.6 2.6 0 0 1-.757.709q-.481.309-1.237.308m.217-1.051q.78 0 1.273-.537.504-.538.504-1.383 0-.857-.504-1.383-.493-.537-1.273-.537t-1.283.537q-.505.526-.505 1.383 0 .56.229.994.23.434.631.686.412.24.928.24m10.071 1.051a2.95 2.95 0 0 1-1.467-.365 2.8 2.8 0 0 1-1.02-1.04q-.38-.675-.379-1.566 0-.891.379-1.554.389-.675 1.043-1.04.653-.377 1.455-.377a2.8 2.8 0 0 1 1.456.377q.653.365 1.032 1.04.389.663.389 1.554t-.389 1.566a2.77 2.77 0 0 1-1.032 1.04 2.95 2.95 0 0 1-1.467.365m0-1.04q.435 0 .802-.217.378-.217.608-.64.228-.434.229-1.074 0-.64-.229-1.063a1.5 1.5 0 0 0-.596-.651 1.55 1.55 0 0 0-.803-.217q-.435 0-.814.217a1.6 1.6 0 0 0-.596.651q-.228.423-.229 1.063 0 .64.229 1.074.23.423.596.64.367.217.803.217m4.202.903v-5.668h1.078l.091.994q.264-.526.768-.823a2.26 2.26 0 0 1 1.181-.308q1.031 0 1.616.64.596.639.596 1.908v3.257h-1.204v-3.131q0-1.646-1.352-1.646-.676 0-1.123.48-.436.48-.436 1.372v2.925zm12.033 0q-.837 0-1.33-.4-.493-.411-.493-1.451v-2.8h-.974v-1.017h.974l.149-1.44h1.066v1.44h1.605v1.017h-1.605v2.8q0 .469.195.651.207.172.699.172h.654v1.028zm2.25 0v-8.228h1.215v3.474q.286-.492.791-.766.516-.285 1.134-.285 1.02 0 1.605.64.585.639.585 1.908v3.257h-1.204v-3.131q0-1.646-1.318-1.646-.688 0-1.146.48-.447.48-.447 1.372v2.925zm9.42.137q-.837 0-1.49-.365a2.7 2.7 0 0 1-1.009-1.04q-.366-.663-.367-1.543 0-.891.356-1.566.366-.675 1.008-1.051.654-.377 1.513-.377.837 0 1.456.377.62.365.963.983a2.75 2.75 0 0 1 .332 1.611q0 .126-.011.286h-4.425q.058.822.539 1.257.493.423 1.135.423.516 0 .859-.229.356-.24.528-.64h1.215q-.23.801-.917 1.337-.677.537-1.685.537m0-4.948a1.7 1.7 0 0 0-1.078.366q-.47.354-.573 1.074h3.21q-.035-.663-.47-1.052-.436-.388-1.089-.388M72.58 42.286l4.108-11.2h2.31l4.108 11.2h-2.182l-.899-2.592h-4.38l-.915 2.592zm3.626-4.192h3.258l-1.637-4.656zm8.299 7.712V34.35h1.83l.224 1.136a3.7 3.7 0 0 1 1.011-.928q.642-.4 1.653-.4 1.123 0 2.006.544a3.9 3.9 0 0 1 1.396 1.488q.513.944.513 2.144t-.513 2.144a3.93 3.93 0 0 1-1.396 1.472q-.883.528-2.006.528-.899 0-1.573-.336a2.83 2.83 0 0 1-1.09-.944v4.608zm4.285-5.12q.978 0 1.62-.656.642-.657.642-1.696 0-1.04-.642-1.712t-1.62-.672q-.996 0-1.637.672-.626.655-.626 1.696t.626 1.712q.641.656 1.637.656m6.183 5.12V34.35h1.83l.224 1.136a3.7 3.7 0 0 1 1.011-.928q.642-.4 1.653-.4 1.123 0 2.006.544a3.9 3.9 0 0 1 1.396 1.488q.513.944.513 2.144t-.513 2.144a3.94 3.94 0 0 1-1.396 1.472q-.883.528-2.006.528-.899 0-1.573-.336a2.83 2.83 0 0 1-1.09-.944v4.608zm4.285-5.12q.978 0 1.62-.656.642-.657.642-1.696 0-1.04-.642-1.712t-1.62-.672q-.996 0-1.637.672-.626.655-.626 1.696t.626 1.712q.641.656 1.637.656m13.89 1.792q-1.236 0-2.182-.416-.947-.433-1.493-1.216-.545-.8-.561-1.936h2.166q.032.783.562 1.328.545.528 1.492.528.819 0 1.3-.384.481-.4.481-1.056 0-.688-.433-1.072-.418-.384-1.123-.624l-1.509-.512q-1.299-.448-1.989-1.152-.675-.705-.674-1.872-.016-.993.465-1.696a3.2 3.2 0 0 1 1.348-1.104q.85-.4 1.958-.4 1.122 0 1.973.4.867.4 1.348 1.12.498.72.53 1.712h-2.199q-.015-.593-.465-1.04-.433-.465-1.22-.464-.674-.017-1.139.336-.449.335-.449.992 0 .56.353.896.352.32.963.544.61.223 1.396.48a9.5 9.5 0 0 1 1.524.672q.69.384 1.107 1.024.418.624.418 1.616 0 .879-.45 1.632-.449.751-1.332 1.216-.882.448-2.166.448m9.238-.192q-1.251 0-2.006-.608-.754-.609-.754-2.16v-3.456h-1.364V34.35h1.364l.241-2.128h1.813v2.128h2.15v1.712h-2.15v3.472q0 .575.241.8.257.208.866.208h.995v1.744zm6.823.192q-1.155 0-2.086-.528a3.97 3.97 0 0 1-1.46-1.456q-.53-.945-.53-2.176 0-1.233.546-2.16.546-.944 1.46-1.472.931-.528 2.086-.528 1.14 0 2.054.528a3.8 3.8 0 0 1 1.46 1.472q.546.927.546 2.16 0 1.231-.546 2.176a3.8 3.8 0 0 1-1.46 1.456q-.93.528-2.07.528m0-1.776q.802 0 1.396-.592.594-.609.594-1.792 0-1.185-.594-1.776-.594-.608-1.38-.608-.818 0-1.412.608-.578.591-.578 1.776 0 1.183.578 1.792.594.592 1.396.592m5.912 1.584V34.35h1.83l.192 1.488q.434-.769 1.172-1.216.754-.465 1.765-.464v2.16h-.578q-.673 0-1.203.208a1.66 1.66 0 0 0-.835.72q-.288.512-.289 1.424v3.616zm10.089.192q-1.204 0-2.134-.512a3.7 3.7 0 0 1-1.46-1.44q-.53-.929-.53-2.144 0-1.232.513-2.192a3.8 3.8 0 0 1 1.445-1.488q.93-.544 2.182-.544 1.172 0 2.07.512.899.511 1.396 1.408.514.879.514 1.968 0 .176-.016.368 0 .192-.016.4h-6.05q.065.927.642 1.456.594.528 1.428.528.626 0 1.043-.272a1.77 1.77 0 0 0 .642-.736h2.086q-.225.752-.754 1.376a3.6 3.6 0 0 1-1.284.96q-.754.352-1.717.352m.016-6.656q-.755 0-1.332.432-.577.416-.738 1.28h3.964q-.049-.785-.578-1.248-.53-.464-1.316-.464m-96.458 6.847c-2.012 1.945-4.21 1.638-6.325.716-2.238-.942-4.292-.983-6.653 0-2.958 1.27-4.518.901-6.284-.716-10.022-10.3-8.544-25.985 2.834-26.558 2.772.143 4.702 1.515 6.325 1.638 2.423-.491 4.743-1.904 7.331-1.72 3.101.246 5.442 1.474 6.982 3.686-6.407 3.829-4.887 12.244.986 14.6-1.17 3.07-2.69 6.122-5.216 8.374zM38.46 15.989c-.308-4.567 3.41-8.335 7.68-8.703.596 5.283-4.805 9.214-7.68 8.702"/></svg>