<svg xmlns="http://www.w3.org/2000/svg" width="234" height="65" fill="none"><path fill="#141416" fill-opacity=".7" fill-rule="evenodd" d="M222.99 48.442c0-.29-.046-.382-.046-.684v-2.51l2.102.185c.702.041 1.406.183 2.148.183-.207.288-3.828 2.794-4.207 2.828zm-89.795 3.056h8.411V2.325h-8.411zm47.963-31.156v-4.655c.002-.223.069-.547-.135-.547h-7.472v36.356h8.233c.174 0 .14-.147.138-.315-.036-4.678-.005-9.464-.005-14.144 0-2.376-.116-5.005.13-7.166.123-1.082.335-2.09.733-2.9.357-.728 1.049-1.522 2.088-1.522.508 0 .752-.002 1.21.228.8.4 1.119 1.13 1.35 2.044.277 1.092.393 2.769.393 4.16v19.615h8.366l-.09-23.81c-.012-.25.017-.529-.002-.773-.039-.475-.051-1.003-.089-1.505-.232-3.018-.904-6.592-2.831-8.883a6.8 6.8 0 0 0-1.195-1.154c-2.144-1.641-5.106-1.536-7.216.076-.292.224-.865.727-1.099 1.025l-.584.684c-.267.343-.467.635-.713 1.007l-.62 1.056c-.103.208-.19.34-.299.561-.053.108-.082.163-.135.274-.029.06-.048.105-.074.153l-.017.029-.017.029c-.053.084-.017.033-.058.079zM156.772 44.06c-.906 0-1.482-.14-1.996-.93-.788-1.21-.791-3.381.263-4.535 1.34-1.468 3.078-1.838 4.976-3.001.178-.11.301-.202.472-.293.005.206.046.18.046.41 0 2.829.234 8.349-3.758 8.349zm-10.111-18.293v.502h8.144c0-1.082.41-2.752 1.447-3.316 1.012-.552 2.586-.405 3.495.283 1.042.79 1.235 3.525-.116 4.62-.149.123-.248.226-.421.346-1.225.847-2.722.917-4.108 1.24-1.664.39-3.086.756-4.591 1.524-.691.353-1.292.705-1.866 1.2-.581.5-1.015.974-1.415 1.66a9 9 0 0 0-.909 2.173c-.241.847-.359 1.59-.489 2.558-.159 1.187-.063 1.343-.108 2.216-.015.267-.078.377-.027.71.065.435.019 1.058.065 1.485.024.23.044.523.051.725.065 1.571.725 4.148 1.478 5.472.185.327.366.64.59.948.22.3.603.796.883 1.017.576.449.706.679 1.61 1.094 1.044.477 1.868.547 3.086.547 1.757 0 3.399-.79 4.416-1.564.998-.758 1.519-1.377 2.235-2.282l.639-.897c0 .355.492 3.11.492 3.467h8.411c0-1.879-.031-.655-.545-1.956-.496-1.257-.352-2.713-.352-4.157V27.318c0-1.747-.077-3.843-.422-5.592-.672-3.43-2.536-5.815-5.638-7.025-2.999-1.17-7.071-1.12-9.971.06-.709.288-1.24.605-1.83 1.008-.294.2-.499.4-.777.621a4.7 4.7 0 0 0-.708.737c-.106.139-.193.225-.309.37-.12.15-.195.266-.306.417a6.5 6.5 0 0 0-.53.873c-.08.158-.155.257-.239.439l-.617 1.562c-.415 1.394-.755 3.157-.755 4.978zm-44.115 11.36c0-2.589.186-5.57 1.092-7.963.152-.4.297-.803.473-1.158.417-.84.634-1.291 1.207-2.054.208-.276.912-1.113 1.146-1.296.168-.131.258-.27.414-.398.304-.25.586-.496.902-.722.159-.115.316-.216.489-.321 1.343-.814 2.592-1.289 4.176-1.49 2.775-.353 5.383.223 7.611 1.792.824.58 1.863 1.59 2.468 2.411l.644.94c.212.363.374.663.569 1.063.364.744.648 1.507.892 2.375 1.015 3.623.94 8.788.055 12.425-.405 1.663-1.135 3.35-2.017 4.558-.241.331-1.032 1.272-1.319 1.528-.656.588-1.348 1.14-2.112 1.589-1.116.655-2.973 1.283-4.342 1.321l-2.324-.05c-1.596-.151-3.416-.847-4.701-1.775-.157-.113-.296-.228-.46-.353l-.871-.753c-1.815-1.871-2.546-3.287-3.262-5.799-.453-1.59-.73-3.843-.73-5.868zm-3.49-13.502-1.392-.497c-.494-.16-.998-.288-1.516-.417-3.296-.82-6.748-.497-9.277 1.583-.188.154-.301.269-.485.418-.402.326-1.309 1.38-1.68 1.845l-.774.988v-4.153c.003-.21.06-.456-.135-.456h-5.95c-.103 0-.135.032-.135.137V53.41h6.89V37.9c0-1.648.198-3.483.622-4.887.309-1.029.721-2.197 1.428-2.97.465-.51.508-.587 1.13-1.038 1.013-.732 2.705-1.322 4.161-1.322 1.08 0 1.898.01 2.954.273.561.14 1.482.355 1.923.595-.313 1.372-.597 2.227-.761 3.74-.442 4.127-.403 8.913.877 12.835.434 1.334 1.06 2.934 1.825 4.115.166.256.285.467.456.722.168.247.313.446.492.686l.544.676c.716.768 1.194 1.344 2.069 2.042l.68.537c.132.091.207.156.34.247.241.164.45.317.699.473.253.158.489.298.742.43.924.486 1.362.748 2.445 1.113 3.696 1.245 7.818 1.46 11.615.494 2.7-.689 4.65-1.747 6.779-3.352.135-.103.2-.167.321-.266.612-.504.991-.935 1.538-1.487.323-.327 1.092-1.33 1.331-1.699 1.355-2.087 1.907-3.419 2.524-5.911.253-1.02.395-2.023.528-3.112.427-3.49.376-7.79-.456-11.184-.704-2.874-1.678-4.928-3.421-7.188-.185-.24-.34-.412-.53-.645l-1.16-1.187c-.12-.116-.188-.147-.313-.274-.109-.108-.2-.17-.314-.274-.619-.56-2.034-1.537-2.777-1.912-1.42-.717-2.623-1.266-4.24-1.607-2.606-.552-5.01-.667-7.679-.31-.718.097-1.596.267-2.276.464-1.931.556-4.033 1.477-5.578 2.658-.14.108-.258.187-.391.285l-2.148 1.963c-.178.237-.578.647-.96 1.166-.127.172-.52.676-.561.84zM145.453 65l-4.564-.046c-.347 0-.564-.043-.849-.048-.612-.007-1.198.005-1.75-.04-.275-.024-.651-.003-.938-.003-.352 0-.547-.045-.848-.048-.632 0-1.162-.045-1.746-.043l-1.786-.048c-.277-.024-.511-.046-.854-.043l-4.32-.202c-.511-.079-2.852-.115-3.43-.196l-.883-.058c-.144-.007-.301.01-.446-.002l-3.806-.271c-.333-.017-.531-.044-.851-.046-.217-.002-.234-.031-.403-.043-.962-.077-2.011-.115-3.001-.223l-10.82-.965c-.547-.033-1.145-.12-1.664-.175-1.637-.175-3.266-.312-4.9-.523-2.137-.276-4.32-.484-6.476-.787-2.184-.307-4.284-.535-6.45-.861l-6.335-.93c-2.112-.3-4.192-.656-6.263-1.006a544 544 0 0 1-16.895-3.164l-7.435-1.634c-1.957-.417-3.898-.943-5.865-1.41-.03.361-.326 1.168-.441 1.556-.051.168-.126.315-.14.497h-6.442c.007-.279.441-1.466.554-1.807.14-.427.533-1.42.565-1.796-.466-.11-.907-.245-1.38-.375a195 195 0 0 1-10.585-3.258l-6.319-2.317c-1.24-.48-3.715-1.502-4.85-2.078-.203-.103-.398-.18-.61-.29-.945-.487-1.97-.895-2.87-1.454-.187-.115-.366-.185-.554-.302-.723-.449-1.466-.83-2.174-1.296-1.037-.679-2.098-1.38-3.016-2.214l-2.11-2.229c-.246-.362-.453-.655-.68-1.04C.16 32.636 0 31.748 0 30.378c0-2.065 1.543-3.838 2.946-4.978 1.138-.923 2.399-1.598 3.689-2.26.901-.463 1.79-.803 2.74-1.175.488-.19.953-.367 1.445-.533a77 77 0 0 1 2.975-.936c6.326-1.863 13.129-2.94 19.645-3.874 1.673-.24 12.36-1.569 14.075-1.569.113-.24.226-.672.318-.952.096-.298.205-.626.301-.924l1.835-5.657C50.25 6.655 52.22.744 52.392 0h6.711c.03.353 1.02 3.001 1.157 3.428.926 2.853 1.992 5.624 2.92 8.474.92 2.826 1.955 5.657 2.92 8.473.359 1.049.77 2.382 1.16 3.38.428 1.109.742 2.26 1.156 3.383.102.276.2.595.302.878l.872 2.531c.384 1.145.791 2.222 1.165 3.376.92 2.838 1.998 5.635 2.92 8.473.551 1.701 1.18 3.37 1.745 5.062.364 1.09.759 2.32 1.16 3.378.117.31 1.11 3.095 1.137 3.402h-6.89c-.277-.588-.46-1.435-.665-2.059l-3.983-12.316c-.116-.355-.61-1.766-.632-2.047H46.263c-.188.399-.735 2.387-.89 2.88-.151.484-.286.935-.426 1.434l-1.73 5.714c-.15.447-.242.994-.442 1.42.236.02.564.12.769.173l3.693.888c2.486.533 4.901 1.151 7.411 1.658 2.032.41 4.065.825 6.078 1.24 2.025.418 4.103.736 6.123 1.147 1.034.21 2.086.343 3.125.554 1.007.204 2.056.35 3.11.523l19.06 2.783c1.11.156 2.164.247 3.278.398 1.565.214 3.317.365 4.904.566l7.454.746c.229.02.576.075.81.087l5.036.432c.55.084 1.107.062 1.668.124l5.555.403c.214.005.202.036.402.048.148.008.295-.01.442.008.147.016.197.04.407.04l1.297.091c.145.008.301-.01.446.003.212.017.605.021.841.055.782.11 1.825.034 2.582.151.528.082 1.184.003 1.714.077.466.065 1.225.07 1.76.077.504.007 1.182.096 1.698.093 1.446-.005 2.972.144 4.431.135.342-.003.496.048.848.045.299-.002.598 0 .897-.002.323-.003.494.048.849.048 1.229-.005 2.331.045 3.58.045.634 0 1.133.046 1.789.046h5.725c1.649 0 3.156-.046 4.788-.046.451 0 .726-.048 1.164-.045.384 0 .832.021 1.208 0l2.281-.091c1.519.002 3.165-.19 4.655-.183l7.92-.501c.352-.005.761-.082 1.118-.091 1.039-.027 3.306-.314 4.388-.408 2.707-.23 5.916-.636 8.561-1.034 5.465-.82 10.778-1.768 16.123-3.13a101 101 0 0 0 7.464-2.198c.229-.077 6.42-2.287 6.907-2.72h-1.7c0-.754-.491-2.736-.491-3.468l-.08.101c-.856 1.18-.955 1.332-1.989 2.397-2.24 2.305-6.41 3.083-9.197 1.187-.892-.604-1.524-1.396-2.081-2.348-.549-.936-.95-2.049-1.222-3.27-.66-2.98-.721-7.665.285-10.578.161-.472.323-.856.532-1.28 1.249-2.51 4.034-3.774 6.584-4.42.475-.12.972-.242 1.476-.364 1.81-.44 4.006-.511 5.091-2.2.531-.826.526-2.227.205-3.136-.557-1.574-2.89-1.816-4.079-1.18-1.041.556-1.475 2.267-1.475 3.332h-8.144c0-2.992.448-5.506 1.859-7.912l.59-.857 1.408-1.439c.133-.113.239-.194.384-.293 2.731-1.864 6.321-2.233 9.628-1.679a11.2 11.2 0 0 1 3.638 1.307c1.314.747 2.283 1.877 3.048 3.189.853 1.466 1.19 2.946 1.371 4.85.285 2.985.176 6.598.176 9.859v10.035c.196-.106.335-.245.504-.398l1.413-1.205c.574-.475.506-.619 1.133-.55l5.627.514c.214.017.552.067.766.084.285.022.543.026.827.07.212.03.581.072.779.072-.118.52-.366 4.275-.48 5.167l-.183 2.047c-.036.35-.06.695-.089 1.005-.027.283.05.3-.128.463l-.591.494c-.11.091-.18.156-.294.247-1.024.82-1.981 1.727-3.004 2.548-.204.166-.38.365-.6.482 0-1.087.224-2.135.268-3.193.043-1.01.267-2.207.267-3.193-.171.091-.299.204-.448.319-.137.105-.265.204-.41.312-1.425 1.099-2.975 1.994-4.503 2.934a8 8 0 0 1-.485.28l-4.385 2.236c-.347.17-.675.296-1.03.456-1.362.617-2.779 1.217-4.192 1.701l-4.419 1.517c-8.795 2.845-20.545 4.865-29.609 5.757-.876.087-1.787.209-2.688.271-.425.03-.926.113-1.346.135l-4.788.364c-.214.005-.407.034-.67.048l-2.104.135c-.437.004-.933.098-1.384.093l-3.445.183c-.246.014-.516-.015-.762 0l-2.102.09c-.914-.002-1.876.092-2.819.092-.978 0-1.887.05-2.907.045-.287-.002-.422.036-.646.046zm65.499-20.939h-.357c-1.476 0-2.192-1.516-2.192-3.056 0-1.065.217-1.68.818-2.404.398-.48 1.08-.993 1.641-1.29.953-.505 1.854-.865 2.879-1.445l.926-.562c.012.142.046.161.046.32 0 2.557.202 6.287-1.874 7.854-.424.32-1.152.585-1.885.585zM55.567 5.743l.115.384c.046.185.073.252.118.427l.688 2.538c.69 2.469 1.668 5.79 2.463 8.21l1.03 3.239c.091.285.164.501.258.787l1.285 4.07c.195.632 2.047 6.274 2.054 6.529H48.052l1-3.177c.092-.28.162-.544.247-.799l2.025-6.42c.082-.247.185-.542.253-.791.342-1.267 1.092-3.479 1.514-4.798.35-1.09.624-2.164.938-3.287.159-.569.284-1.106.421-1.667.14-.571.263-1.154.403-1.735.133-.554.258-1.142.369-1.72.108-.561.217-1.221.347-1.79zM36.955 47.71 29.6 45.584c-.422-.122-.813-.266-1.198-.374-1.401-.393-4.718-1.54-5.948-2.01-.39-.149-.78-.264-1.157-.418l-3.433-1.336c-.887-.362-2.982-1.228-3.862-1.674l-2.654-1.308c-.198-.1-.309-.173-.492-.273-2.283-1.253-4.205-2.452-6.126-4.247-.09-.081-.106-.134-.18-.225-.18-.219-.27-.262-.57-.653-.923-1.204-1.405-2.425-.528-3.824.251-.4.49-.629.808-.955.152-.156.284-.264.45-.408 1.158-.995 3.605-2.255 5.083-2.802 1.441-.532 2.317-.875 3.869-1.346.911-.275 1.818-.53 2.722-.782 1.6-.446 4.093-.986 5.692-1.312 5.933-1.209 12.037-2.078 18.093-2.764.499-.057 1.046-.13 1.572-.175.508-.045 1.07-.134 1.572-.177.54-.046 1.05-.084 1.593-.154l1.58-.17c-.018.216-.203.684-.276.907l-.301.923c-.203.617-.424 1.221-.598 1.855-.229.842-.894 2.75-1.205 3.7l-1.79 5.52-.3.923-2.684 8.303-.593 1.814-1.5 4.63c-.076.238-.267.72-.284.94z" clip-rule="evenodd"/></svg>