<svg xmlns="http://www.w3.org/2000/svg" width="115" height="115" fill="none"><g filter="url(#a)"><circle cx="57.245" cy="53.245" r="49.245" fill="#00C700"/><circle cx="57.245" cy="53.245" r="48.376" stroke="#fff" stroke-width="1.738"/></g><path fill="#fff" d="M68.236 54.019c.58 0 1.142.068 1.704.153v-5.264a3.406 3.406 0 0 0-3.407-3.407h-1.704v-3.407a8.52 8.52 0 0 0-8.517-8.517 8.52 8.52 0 0 0-8.517 8.517v3.407h-1.703a3.407 3.407 0 0 0-3.407 3.407v17.035a3.395 3.395 0 0 0 3.407 3.407h13.303a10.15 10.15 0 0 1-1.38-5.11c0-5.64 4.583-10.221 10.221-10.221M51.202 42.094a5.104 5.104 0 0 1 5.11-5.11 5.103 5.103 0 0 1 5.11 5.11v3.407h-10.22zm5.11 18.738a3.407 3.407 0 1 1 3.407-3.407 3.395 3.395 0 0 1-3.407 3.407m17.886.426-8.091 8.092-4.684-5.11 1.975-1.977 2.709 2.709 6.115-6.116z"/><defs><filter id="a" width="114.49" height="114.49" x="0" y="0" color-interpolation-filters="sRGB" filterUnits="userSpaceOnUse"><feFlood flood-opacity="0" result="BackgroundImageFix"/><feColorMatrix in="SourceAlpha" result="hardAlpha" values="0 0 0 0 0 0 0 0 0 0 0 0 0 0 0 0 0 0 127 0"/><feOffset dy="4"/><feGaussianBlur stdDeviation="4"/><feComposite in2="hardAlpha" operator="out"/><feColorMatrix values="0 0 0 0 0.658333 0 0 0 0 0.658333 0 0 0 0 0.658333 0 0 0 0.25 0"/><feBlend in2="BackgroundImageFix" result="effect1_dropShadow_287_1647"/><feBlend in="SourceGraphic" in2="effect1_dropShadow_287_1647" result="shape"/></filter></defs></svg>