<svg xmlns="http://www.w3.org/2000/svg" width="52" height="46" fill="none"><path fill="#00C700" stroke="#00C700" stroke-width=".5" d="m38.528 26.548 6.79-7.825a2.036 2.036 0 0 1 3.074 2.667L39.1 32.1c-1.108 1.191-2.658 1.896-4.138 1.896h-10.29a7.3 7.3 0 0 0-2.822.561 7.3 7.3 0 0 0-2.393 1.6l-1.98 1.979a1.027 1.027 0 0 0 1.452 1.452l1.98-1.98a5.3 5.3 0 0 1 3.764-1.559H34.96c1.06 0 2.108-.239 3.113-.707a8.3 8.3 0 0 0 2.542-1.859l.003-.003.017-.018.002-.003 9.305-10.723a4.086 4.086 0 0 0-.408-5.767 4.093 4.093 0 0 0-5.768.409l.19.164-.19-.164-6.79 7.824a1.027 1.027 0 0 0 1.55 1.345Z"/><path fill="#00C700" stroke="#00C700" stroke-width=".5" d="M12.84 45.25a1.03 1.03 0 0 1-.726-.3L1.051 33.885a1.027 1.027 0 0 1 0-1.451l5.362-5.363c.401-.4 1.051-.4 1.452 0L18.93 38.135c.4.4.4 1.05 0 1.451l-5.363 5.363zm0 0c.273 0 .534-.108.726-.3zm0-2.478L3.228 33.16l3.911-3.911 9.612 9.612z"/><path fill="#00C700" stroke="#00C700" stroke-width=".5" d="m36.73 25.966.002.01v.002q.007.078.007.167a1.935 1.935 0 0 1-1.932 1.933H23.889a1.027 1.027 0 0 0 0 2.052h10.917a3.99 3.99 0 0 0 3.987-3.985q0-.187-.018-.366a3.98 3.98 0 0 0-1.15-2.452 3.96 3.96 0 0 0-2.818-1.168H14.38c-.974 0-1.924.19-2.823.562-.9.372-1.705.91-2.393 1.599l-2.751 2.75.177.177-.177-.177a1.027 1.027 0 0 0 1.452 1.452l2.752-2.752a5.3 5.3 0 0 1 3.763-1.559h20.427a1.93 1.93 0 0 1 1.924 1.754Z"/><path fill="#00C700" stroke="#00C700" stroke-width=".5" d="M24.807 23.186a1.027 1.027 0 0 0 2.053 0V1.776a1.027 1.027 0 0 0-2.053 0z"/><path fill="#00C700" stroke="#00C700" stroke-width=".5" d="M19.249 10.898a7.13 7.13 0 0 1-3.886-3.879l-.618-1.487a1.027 1.027 0 0 1 .553-1.342l1.488-.618a7.13 7.13 0 0 1 5.49-.006 7.13 7.13 0 0 1 3.887 3.878l-.231.096.23-.096.619 1.488a1.026 1.026 0 0 1-.554 1.342zm0 0c.883.364 1.81.546 2.738.546.933 0 1.866-.184 2.752-.553l1.487-.617zm-1.99-4.666-.225-.54.54-.224a5.127 5.127 0 0 1 6.693 2.764l.225.54-.54.224.096.23-.096-.23a5.1 5.1 0 0 1-3.92.004 5.08 5.08 0 0 1-2.774-2.768Zm12.448 12.999a7.2 7.2 0 0 1-2.753-.552l-1.487-.618.096-.231a.777.777 0 0 1-.42-1.015zm0 0c.927 0 1.855-.182 2.738-.546a7.13 7.13 0 0 0 3.886-3.878l-.23-.096.23.096.618-1.488a1.027 1.027 0 0 0-.554-1.341l-1.487-.618a7.13 7.13 0 0 0-5.49-.006 7.13 7.13 0 0 0-3.887 3.878zm4.953-5.752-.224.54a5.127 5.127 0 0 1-6.694 2.764l-.54-.225.225-.54A5.1 5.1 0 0 1 30.2 13.25a5.1 5.1 0 0 1 3.92.005z"/></svg>