<svg width="47" height="33" viewBox="0 0 47 33" fill="none" xmlns="http://www.w3.org/2000/svg">
<path d="M18.6631 3.50228L3.1873 30.3356H34.139L30.4021 23.8548C31.437 24.3931 32.5551 24.7532 33.7096 24.92L37.17 30.9189C37.2724 31.0964 37.3263 31.2977 37.3263 31.5026C37.3262 31.7075 37.2722 31.9087 37.1697 32.0861C37.0672 32.2635 36.9197 32.4108 36.7422 32.5131C36.5647 32.6154 36.3634 32.6692 36.1585 32.6689H1.16664C0.961846 32.6689 0.760665 32.615 0.583314 32.5126C0.405962 32.4102 0.258689 32.263 0.156296 32.0856C0.0539035 31.9082 -1.30064e-06 31.7071 0 31.5023C1.30068e-06 31.2975 0.0539085 31.0963 0.156304 30.9189L17.6528 0.583282C17.7552 0.40594 17.9025 0.258676 18.0798 0.156289C18.2572 0.0539018 18.4584 0 18.6631 0C18.8679 0 19.0691 0.0539018 19.2464 0.156289C19.4238 0.258676 19.5711 0.40594 19.6735 0.583282L25.5301 10.7368C25.0967 11.8216 24.8494 12.9717 24.7986 14.1388L18.6631 3.50228Z" fill="white"/>
<path fill-rule="evenodd" clip-rule="evenodd" d="M32.0589 22.0584C33.0558 22.4801 34.1276 22.6963 35.21 22.6942C37.078 22.6977 38.8891 22.0514 40.3329 20.8661L44.9085 25.4406L46.6679 23.6812L41.9965 19.0099C42.8998 17.617 43.3526 15.9799 43.2935 14.3209C43.2343 12.6618 42.6661 11.0611 41.666 9.73608C40.6658 8.41105 39.2822 7.42585 37.7029 6.91422C36.1236 6.40258 34.4251 6.3893 32.8379 6.87617C31.2508 7.36304 29.8519 8.32648 28.8312 9.63571C27.8105 10.9449 27.2173 12.5365 27.1322 14.1945C27.0471 15.8524 27.4743 17.4964 28.3556 18.9032C29.237 20.3101 30.5299 21.4116 32.0589 22.0584ZM29.61 14.6057C29.61 16.091 30.2 17.5153 31.2502 18.5655C32.3004 19.6157 33.7248 20.2057 35.21 20.2057C36.6952 20.2057 38.1196 19.6157 39.1698 18.5655C40.22 17.5153 40.81 16.091 40.81 14.6057C40.81 13.1205 40.22 11.6962 39.1698 10.6459C38.1196 9.59574 36.6952 9.00575 35.21 9.00575C33.7248 9.00575 32.3004 9.59574 31.2502 10.6459C30.2 11.6962 29.61 13.1205 29.61 14.6057Z" fill="white"/>
<path d="M17.2046 23.3922H20.1213V26.3089H17.2046V23.3922ZM18.6629 11.7197C17.8579 11.7197 17.2046 12.3731 17.2046 13.1781V19.5947C17.2046 19.9815 17.3582 20.3524 17.6317 20.6259C17.9052 20.8994 18.2761 21.0531 18.6629 21.0531C19.0497 21.0531 19.4206 20.8994 19.6941 20.6259C19.9676 20.3524 20.1213 19.9815 20.1213 19.5947V13.1781C20.1213 12.3731 19.4679 11.7197 18.6629 11.7197Z" fill="white"/>
</svg>
