<svg xmlns="http://www.w3.org/2000/svg" width="48" height="37" fill="none"><path stroke="#00C700" stroke-linecap="round" stroke-width="2.5" d="M39.215 16.678c1.24-.326 2.332-1.116 3.07-2.219a5.7 5.7 0 0 0 .934-3.759c-.138-1.318-.736-2.524-1.68-3.386a4.9 4.9 0 0 0-3.437-1.29M8.96 16.678c-1.24-.326-2.332-1.116-3.071-2.219a5.7 5.7 0 0 1-.933-3.759c.138-1.318.736-2.524 1.68-3.386a4.9 4.9 0 0 1 3.437-1.29m30.63 17.467.267-.075c2.526-.71 5.031 1.187 5.031 3.81a7.917 7.917 0 0 1-7.917 7.917H38M7.297 23.491l-.266-.075C4.505 22.706 2 24.603 2 27.226a7.917 7.917 0 0 0 7.917 7.917H10"/><path stroke="#00C700" stroke-width="2.5" d="M24 16.857c4.26 0 7.715-3.326 7.715-7.428S28.26 2 24 2s-7.714 3.326-7.714 7.429S19.74 16.857 24 16.857Zm-12.286 9.107c0-3.344 3.29-5.695 6.454-4.613l1.797.615c2.615.895 5.455.895 8.07 0l1.797-.615c3.164-1.082 6.454 1.27 6.454 4.613 0 5.385-4.366 9.75-9.75 9.75h-5.071a9.75 9.75 0 0 1-9.75-9.75Z"/></svg>