<svg xmlns="http://www.w3.org/2000/svg" width="47" height="52" fill="none"><path fill="#00C700" d="M9.54 32.916h26.342c.54 0 .976-.436.976-.976 0-2.593-2.131-4.724-4.776-4.724a4.82 4.82 0 0 0-3.055 1.078c-1.258-1.36-3.235-2.233-5.366-2.439V24.47c1.155-.103 3.106-.488 4.467-1.849 2.029-2.028 1.9-5.34 1.875-5.469 0-.488-.411-.898-.925-.924-.154 0-3.389-.154-5.443 1.849v-3.57c3.569-.487 6.342-3.517 6.342-7.214C29.977 3.26 26.69 0 22.685 0s-7.292 3.286-7.292 7.292c0 3.697 2.773 6.727 6.342 7.215v3.569c-2.028-1.977-5.29-1.85-5.443-1.85-.488 0-.899.412-.925.925 0 .129-.154 3.44 1.875 5.47 1.36 1.36 3.286 1.745 4.467 1.848v1.386c-2.13.206-4.056 1.079-5.314 2.44a4.82 4.82 0 0 0-3.056-1.079c-2.619 0-4.776 2.131-4.776 4.724 0 .54.437.976.976.976m15.43-13.403c.873-.873 2.157-1.18 3.056-1.283-.103.873-.411 2.182-1.259 3.055-.872.873-2.156 1.155-3.055 1.258.103-.873.41-2.182 1.258-3.055zm-6.342 1.772c-.873-.873-1.18-2.157-1.258-3.055.873.102 2.183.41 3.056 1.258.873.873 1.18 2.157 1.258 3.055-.873-.103-2.183-.41-3.056-1.258m-1.31-13.967a5.364 5.364 0 0 1 5.367-5.367c2.953 0 5.366 2.414 5.366 5.367s-2.413 5.366-5.366 5.366-5.366-2.414-5.366-5.366m-3.953 21.824c.924 0 1.823.462 2.362 1.207.18.256.488.436.822.41.333 0 .616-.18.796-.462.95-1.566 3.055-2.567 5.391-2.567 2.337 0 4.468 1 5.392 2.567.18.282.462.462.796.462s.642-.128.822-.41a2.92 2.92 0 0 1 2.362-1.207c1.232 0 2.26.77 2.67 1.848h-24.11a2.85 2.85 0 0 1 2.671-1.848z"/><path fill="#00C700" d="M23.66 11.606v-.694a2.438 2.438 0 0 0-.976-4.673.515.515 0 0 1-.513-.513c0-.54.925-.616 1.002-.077.077.513.59.873 1.104.796.513-.077.873-.59.796-1.104a2.35 2.35 0 0 0-1.438-1.797v-.488a.975.975 0 1 0-1.952 0v.462a2.438 2.438 0 0 0 .976 4.673c.283 0 .514.23.514.513 0 .514-.899.617-1.002.103a.967.967 0 0 0-1.9.36 2.37 2.37 0 0 0 1.438 1.771v.719a.975.975 0 1 0 1.951 0zm22.467 25.162c-.206-1.053-1.053-1.823-2.183-1.952a8.7 8.7 0 0 0-4.493.59l-6.342 2.671a3.4 3.4 0 0 0 0-1.027 2.2 2.2 0 0 0-.282-.796c-.514-1.027-1.67-1.72-2.927-1.771l-12.787-.514c-2.285-.077-4.519.41-6.496 1.438L8.152 36.69c-.18-.308-.385-.59-.693-.822a2.32 2.32 0 0 0-1.694-.36l-3.929.745C.63 36.485-.192 37.666.04 38.874l2.003 10.5a2.25 2.25 0 0 0 2.208 1.823c.128 0 .282 0 .41-.051l3.929-.745c1.001-.18 1.694-1.027 1.771-2.002 1.618-.206 3.287-.206 4.853.102l8.062 1.644a11.5 11.5 0 0 0 2.106.205c2.208 0 4.442-.668 6.264-1.9l13.378-9.243c.847-.59 1.283-1.54 1.103-2.465zM8.228 48.553l-3.928.744c-.154 0-.334-.077-.385-.256L1.939 38.539a.34.34 0 0 1 .257-.385l3.928-.744h.051c.077 0 .154.025.18.05.051.027.103.104.129.206L8.46 48.168a.34.34 0 0 1-.257.385zM43.944 37.64l-13.377 9.243c-1.977 1.335-4.544 1.849-6.907 1.386l-8.062-1.643a17 17 0 0 0-3.26-.334c-.745 0-1.49.052-2.208.154l-1.233-6.47-.257-1.386 2.85-1.49c1.695-.873 3.62-1.335 5.546-1.232l12.787.514c.564 0 1.078.308 1.309.744a.43.43 0 0 1 .077.257c.077.41-.128.873-.565 1.181l-1.566 1.181-.41.18-6.702.41c-.54.026-.924.488-.899 1.028.026.539.514.975 1.027.898l6.856-.41s.205-.026.308-.078l.642-.282h.025l10.245-4.34c1.104-.461 2.31-.615 3.492-.461.308.051.488.18.539.41.051.232-.129.411-.308.54z"/></svg>