<svg width="47" height="45" viewBox="0 0 47 45" fill="none" xmlns="http://www.w3.org/2000/svg">
<path d="M31.625 29.5833C31.625 27.3273 25.2264 25.5 17.3333 25.5M31.625 29.5833C31.625 31.8394 25.2264 33.6667 17.3333 33.6667C9.44025 33.6667 3.04167 31.8394 3.04167 29.5833M31.625 29.5833V39.663C31.625 41.9885 25.2264 43.875 17.3333 43.875C9.44025 43.875 3.04167 41.9905 3.04167 39.663V29.5833M31.625 29.5833C39.4323 29.5833 45.9167 27.5682 45.9167 25.5V5.08333M17.3333 25.5C9.44025 25.5 3.04167 27.3273 3.04167 29.5833M17.3333 25.5C8.31325 25.5 1 23.4849 1 21.4167V11.2083M17.3333 7.125C8.31325 7.125 1 8.95229 1 11.2083M1 11.2083C1 13.4644 8.31325 15.2917 17.3333 15.2917C17.3333 17.3599 23.9749 19.375 31.7822 19.375C39.5895 19.375 45.9167 17.3599 45.9167 15.2917M45.9167 5.08333C45.9167 2.82729 39.5875 1 31.7822 1C23.9769 1 17.6478 2.82729 17.6478 5.08333M45.9167 5.08333C45.9167 7.33938 39.5875 9.16667 31.7822 9.16667C23.9769 9.16667 17.6478 7.33938 17.6478 5.08333M17.6478 5.08333V25.8389" stroke="white" stroke-width="2"/>
</svg>
