<svg width="42" height="40" viewBox="0 0 42 40" fill="none" xmlns="http://www.w3.org/2000/svg">
<path d="M39.9971 17.1991H20.6737C18.5155 17.1991 17.4364 17.1991 16.551 17.714C15.6638 18.2307 15.1318 19.1674 14.066 21.0444L5.2469 38.0063M39.9971 17.1991C39.9971 16.1352 36.1974 13.3994 36.1974 13.3994M39.9971 17.1991C39.9971 18.263 36.1974 20.9988 36.1974 20.9988M3.8999 32.9565C3.8999 32.9565 4.35207 37.4896 5.245 38.0063C6.13793 38.525 10.2701 36.6517 10.2701 36.6517" stroke="white" stroke-width="3" stroke-linecap="round" stroke-linejoin="round"/>
<path d="M28.4783 17.1988C28.5581 16.6074 28.598 16.0051 28.598 15.3921C28.598 7.99594 22.6438 2 15.299 2C7.95415 2 2 7.99594 2 15.3921C2 20.7326 5.10626 25.4993 9.59942 27.648" stroke="white" stroke-width="3" stroke-linecap="round" stroke-linejoin="round"/>
</svg>
