<svg width="48" height="48" viewBox="0 0 48 48" fill="none" xmlns="http://www.w3.org/2000/svg">
<path d="M23.8727 0C10.7626 0 0.09375 10.6688 0.09375 23.7789C0.09375 36.889 10.7626 47.5578 23.8727 47.5578C36.9828 47.5578 47.6516 36.889 47.6516 23.7789C47.6516 10.6688 36.9828 0 23.8727 0ZM23.8727 3.96315C34.8407 3.96315 43.6884 12.8109 43.6884 23.7789C43.6932 28.5227 41.9922 33.1101 38.8957 36.7039C37.4287 38.4065 35.6949 39.8322 33.7775 40.9354C30.3949 42.8815 26.8212 39.8492 26.8212 35.9468V32.5957C26.8212 30.9176 28.1816 29.5572 29.8597 29.5572H30.0073C31.4213 29.5572 32.6241 28.526 32.84 27.1285C33.1084 25.3916 31.7648 23.8245 30.0073 23.8245H29.8352C28.1706 23.8245 26.8212 22.4751 26.8212 20.8106V20.6936C26.8212 18.3157 27.604 16.2014 29.8293 16.2014H30.7364C32.2108 16.2014 33.406 15.0061 33.406 13.5318C33.406 12.1961 32.4195 11.0512 31.0856 10.982C30.4903 10.9512 29.7797 10.9304 28.9356 10.9304C23.6884 10.9304 20.613 13.7006 20.613 20.0139V21.1276C20.613 22.617 19.4055 23.8245 17.916 23.8245C16.4266 23.8245 15.2191 25.0319 15.2191 26.5214V26.8603C15.2191 28.3497 16.4266 29.5572 17.916 29.5572C19.4055 29.5572 20.613 30.7646 20.613 32.2541V35.8693C20.613 39.7647 17.0143 42.7625 13.6719 40.762C11.8263 39.6574 10.1593 38.2506 8.74668 36.5845C5.71379 33.0075 4.05153 28.4686 4.0569 23.7789C4.0569 12.8109 12.9046 3.96315 23.8727 3.96315Z" fill="#341FC8"/>
</svg>
