<svg width="38" height="38" viewBox="0 0 38 38" fill="none" xmlns="http://www.w3.org/2000/svg">
<path d="M29.2003 0.634766H9.01175C6.76672 0.634766 4.61365 1.5266 3.02618 3.11407C1.43871 4.70154 0.546875 6.85462 0.546875 9.09964V29.2882C0.546875 31.5332 1.43871 33.6863 3.02618 35.2738C4.61365 36.8612 6.76672 37.7531 9.01175 37.7531H29.2003C31.4453 37.7531 33.5984 36.8612 35.1859 35.2738C36.7733 33.6863 37.6652 31.5332 37.6652 29.2882V9.09964C37.6652 6.85462 36.7733 4.70154 35.1859 3.11407C33.5984 1.5266 31.4453 0.634766 29.2003 0.634766ZM13.0967 30.5997C13.1026 30.7033 13.0874 30.807 13.0518 30.9045C13.0162 31.002 12.9611 31.0912 12.8897 31.1666C12.8184 31.242 12.7325 31.3021 12.6371 31.343C12.5418 31.384 12.439 31.4051 12.3353 31.4049H8.94703C8.74286 31.3994 8.54892 31.3143 8.40665 31.1678C8.26438 31.0212 8.18506 30.8249 8.18563 30.6206V16.529C8.18283 16.4273 8.20046 16.326 8.23747 16.2312C8.27447 16.1364 8.33011 16.05 8.4011 15.977C8.47208 15.9041 8.55697 15.8461 8.65073 15.8066C8.7445 15.767 8.84525 15.7466 8.94703 15.7467H12.3353C12.4371 15.7464 12.538 15.7666 12.6319 15.806C12.7258 15.8455 12.8108 15.9035 12.8818 15.9765C12.9528 16.0494 13.0085 16.136 13.0454 16.2309C13.0823 16.3258 13.0997 16.4272 13.0967 16.529V30.5997ZM10.5783 12.7829C10.2115 12.7802 9.8488 12.7052 9.51094 12.5623C9.17308 12.4193 8.86669 12.2113 8.60924 11.9499C8.35179 11.6886 8.14834 11.3791 8.0105 11.0392C7.87266 10.6992 7.80313 10.3354 7.80588 9.96859C7.80863 9.60176 7.88361 9.23906 8.02653 8.9012C8.16945 8.56334 8.37752 8.25694 8.63885 7.9995C8.90019 7.74205 9.20967 7.5386 9.54963 7.40076C9.88959 7.26292 10.2534 7.19339 10.6202 7.19614C11.3483 7.21982 12.0384 7.52711 12.5431 8.05244C13.0478 8.57778 13.3273 9.27956 13.3218 10.008C13.3163 10.7365 13.0264 11.434 12.5138 11.9517C12.0013 12.4694 11.3067 12.7664 10.5783 12.7791M31.1685 30.5769C31.1681 30.7693 31.0927 30.9541 30.9584 31.092C30.8241 31.2298 30.6414 31.31 30.449 31.3154H26.8723C26.6797 31.3095 26.497 31.2289 26.3627 31.0907C26.2285 30.9526 26.1532 30.7676 26.1528 30.575V24.0574C26.1528 23.0847 26.4497 19.8259 23.5716 19.8259C21.3274 19.8259 20.8839 22.1101 20.7982 23.1265V30.7234C20.7983 30.9164 20.7233 31.1019 20.5889 31.2404C20.4546 31.379 20.2716 31.4599 20.0787 31.4658H16.6086C16.5112 31.4658 16.4148 31.4466 16.3248 31.4092C16.2349 31.3719 16.1531 31.3172 16.0844 31.2482C16.0156 31.1793 15.9611 31.0974 15.924 31.0074C15.8869 30.9173 15.8679 30.8208 15.8682 30.7234V16.4605C15.8736 16.2674 15.9543 16.0841 16.093 15.9497C16.2317 15.8153 16.4174 15.7404 16.6105 15.741H20.0787C20.2718 15.7404 20.4576 15.8153 20.5963 15.9497C20.7349 16.0841 20.8156 16.2674 20.8211 16.4605V17.6882C21.3275 16.9471 22.0266 16.3582 22.8431 15.9852C23.6596 15.6122 24.5624 15.4691 25.4542 15.5715C31.2313 15.5715 31.2104 20.968 31.2104 24.0364L31.1685 30.5769Z" fill="#2F6AD8"/>
</svg>
