<svg xmlns="http://www.w3.org/2000/svg" width="20" height="20" fill="none"><g clip-path="url(#a)"><path fill="#908C8C" d="M10 5.417A8.14 8.14 0 0 1 17.35 10 8.13 8.13 0 0 1 10 14.583 8.13 8.13 0 0 1 2.65 10 8.14 8.14 0 0 1 10 5.417m0-1.667C5.833 3.75 2.275 6.342.833 10c1.442 3.658 5 6.25 9.167 6.25s7.725-2.592 9.166-6.25c-1.441-3.658-5-6.25-9.166-6.25m0 4.167a2.084 2.084 0 1 1-.002 4.168A2.084 2.084 0 0 1 10 7.917m0-1.667A3.756 3.756 0 0 0 6.25 10 3.756 3.756 0 0 0 10 13.75 3.756 3.756 0 0 0 13.75 10 3.756 3.756 0 0 0 10 6.25"/></g><defs><clipPath id="a"><path fill="#fff" d="M0 0h20v20H0z"/></clipPath></defs></svg>