<svg xmlns="http://www.w3.org/2000/svg" width="27" height="27" fill="none"><path fill="#141416" d="M13.249.429C6.16.429.392 6.197.392 13.286S6.16 26.143 13.249 26.143s12.857-5.768 12.857-12.857S20.337.429 13.249.429m0 2.143c5.93 0 10.714 4.784 10.714 10.714a10.69 10.69 0 0 1-9.12 10.585v-7.46h3.052l.478-3.1h-3.53v-1.693c0-1.286.423-2.43 1.627-2.43h1.934V6.485c-.34-.046-1.06-.145-2.418-.145-2.837 0-4.5 1.498-4.5 4.911v2.06H8.57v3.1h2.916v7.434a10.69 10.69 0 0 1-8.952-10.558c0-5.93 4.784-10.714 10.715-10.714"/></svg>