<svg xmlns="http://www.w3.org/2000/svg" width="40" height="38" fill="none"><path fill="#00C700" fill-rule="evenodd" d="M32.887 23.202c3.922 0 7.113 3.32 7.113 7.399S36.81 38 32.887 38c-3.925 0-7.118-3.32-7.118-7.4 0-4.079 3.193-7.399 7.118-7.399m0 3.584c-2.035 0-3.69 1.712-3.69 3.815 0 2.105 1.656 3.814 3.69 3.814 2.032 0 3.684-1.709 3.684-3.814 0-2.103-1.652-3.815-3.684-3.815M16.184 28.9c.946 0 1.714.803 1.714 1.793s-.768 1.792-1.714 1.792H1.78c-.946 0-1.714-.803-1.714-1.792 0-.99.768-1.793 1.714-1.793zM7.115 0c3.925 0 7.116 3.322 7.116 7.402s-3.19 7.397-7.116 7.397C3.193 14.799 0 11.48 0 7.402S3.193 0 7.115 0m0 3.585c-2.032 0-3.686 1.711-3.686 3.817 0 2.103 1.654 3.812 3.686 3.812 2.035 0 3.687-1.71 3.687-3.812 0-2.106-1.652-3.817-3.687-3.817m29.893 2.152c.947 0 1.715.803 1.715 1.792 0 .99-.768 1.793-1.715 1.793h-14.4c-.946 0-1.714-.803-1.714-1.793s.768-1.792 1.714-1.792z" clip-rule="evenodd"/></svg>