<svg xmlns="http://www.w3.org/2000/svg" width="142" height="69" fill="none"><path fill="#141416" fill-opacity=".7" fill-rule="evenodd" d="M9.33 12.403c0 .56.017 1.63.138 2.145.163.694.266 1.198.53 1.852l.772 1.608c0 .784-1.213-1.308-1.373-1.653-.285-.615-.476-1.109-.607-1.774-.03-.144-.06-.22-.084-.363-.279-1.566.009-3.42.577-4.692a8 8 0 0 1 1.624-2.394c.662-.66 1.46-1.298 2.32-1.699.664-.31 1.532-.635 2.286-.74 1.053-.148 1.729-.22 2.808-.035.841.143 1.23.23 2.025.556.103.043.164.065.279.119.11.051.138.066.233.114 1.113.577 1.227.744 2.069 1.454l.65.69c.311.402 1.104 1.45 1.14 1.884l-3.166 1.944c-.273.177-.527.324-.802.489l-2.387 1.483c-.145.086-.262.168-.397.249l-1.199.736c-.14.091-.254.154-.403.242l-1.19.745c-.156.094-3.036 1.903-3.211 1.95-.27-.508-.514-.908-.72-1.513-.108-.318-.195-.554-.26-.88-.04-.2-.084-.281-.105-.44-.135-1.072-.179-1.485-.027-2.594a7.9 7.9 0 0 1 2.242-4.556c.544-.543.576-.593 1.234-1.05.125-.086.214-.157.326-.22.4-.226.965-.445 1.034-.703-.182.005-.477.069-.688.106-.473.085-1.451.436-1.888.643-.853.404-2.128 1.138-2.579 1.987a7 7 0 0 0-.151.295c-.095.198-.187.35-.272.571-.26.678-.56 1.53-.665 2.263L9.332 12.4zm15.983 23.91v28.87c0 .151.047.297.199.297h5.658c.327 0 .198-1.047.198-1.39V53.03h10.92c.342 0 1.39.127 1.39-.198v-4.713c0-.278-.558-.198-.844-.198-3.655.002-7.497-.047-11.12.003-.542.008-.345.09-.345-1.143 0-1.328.057-4.245-.003-5.31-.029-.526-.048-.395 1.64-.395H44.72c.297 0 .894.106.894-.198v-4.564c0-.152-.046-.297-.199-.297H25.513c-.152 0-.199.145-.199.297m94.353-.1v28.97c0 .133.023.136.049.247.111.026.115.05.249.05h21.838a.19.19 0 0 0 .198-.198V60.57c0-.237-.402-.149-.843-.149h-14.543q-.25 0-.499.003c-.211.004-.394.05-.394-.15v-7.54c0-.243.512-.15.744-.15l13.555.005c.185 0 .343.038.343-.153v-4.713a.19.19 0 0 0-.199-.198h-14.443v-6.3c0-.216.265-.153.495-.15 3.162.043 6.606.001 9.778.001 1.686 0 3.557.078 5.218.007.357-.015.243-.121.243-1.049v-3.968c-.112-.026-.114-.05-.248-.05h-21.342a.19.19 0 0 0-.198.199zm-35.34 14.384.05 1.389c.062 1.238.322 2.421.662 3.604.04.142.053.207.104.343l.492 1.392c.29.769.647 1.544 1.071 2.254.406.676.84 1.316 1.38 1.893.106.114.117.16.223.274.45.485.955.951 1.484 1.344.186.137.358.277.54.403.376.264.725.504 1.15.735.62.334 1.33.582 1.997.832l1.063.327c.182.038.19.08.375.12l1.59.297c.99.135 1.952.22 2.956.22l2.029-.106c.476-.05 1.369-.17 1.833-.3.167-.047.182-.062.404-.092.47-.063 1.859-.563 2.274-.704l.395-.15c.66-.25 1.359-.614 2.006-.923.146-.07.206-.112.357-.188.153-.076.211-.107.352-.193l.503-.291a17 17 0 0 0 1.76-1.218c.199-.156.496-.297.496-.596V49.756c0-.175-.221-.198-.397-.198h-12.16q-.347 0-.347.347v4.415c0 .182.077.24.149.347h6.7c.074.313-.002 2.498-.001 3.126.001.782.08.616-.671 1.063l-4.156 1.7c-.922.275-2.47.378-3.383.183-1.053-.224-1.438-.28-2.478-.797a6.7 6.7 0 0 1-1.61-1.12l-.552-.539c-.095-.11-.166-.177-.254-.292a8.6 8.6 0 0 1-1.176-2.098c-.263-.68-.516-1.383-.613-2.115a4 4 0 0 0-.087-.459c-.102-.411-.208-1.497-.208-1.975 0-.953-.044-2.005.09-2.935l.492-2.435c.036-.1.047-.095.09-.209.357-.994.878-1.898 1.624-2.642.544-.544 1.072-1.038 1.758-1.418l1.093-.495c.144-.052.281-.089.413-.134.886-.303 1.882-.396 2.879-.396.697 0 1.341.063 2.002.23l1.039.35c.051.022.057.02.106.043l.492.253a5.6 5.6 0 0 1 2.266 2.299l.519 1.167c.123.356.229.32.798.2l5.068-.937c.128-.035.246-.03.171-.328-.386-1.52-1.177-3.378-2.274-4.58l-.207-.238c-.039-.046-.046-.057-.092-.106-.849-.922-1.912-1.63-3.027-2.184l-.659-.284c-.118-.044-.151-.06-.248-.098-.089-.036-.116-.037-.223-.075l-1.294-.395c-.223-.048-.303-.096-.519-.126-.245-.033-.312-.061-.532-.112-.477-.113-1.28-.139-1.792-.194a17.7 17.7 0 0 0-4.12.064l-1.565.271c-.85.215-1.618.45-2.427.799-1.425.614-2.774 1.483-3.87 2.581l-.873.962c-.078.095-.139.138-.215.232-.08.101-.124.186-.203.293-.54.724-.982 1.471-1.398 2.274-.22.423-.366.832-.558 1.277-.054.125-.074.216-.117.33l-.608 2.122c-.03.13-.024.274-.058.437l-.23 1.605c-.044.583-.096 1.136-.096 1.789zm-13.699-4.315c-.085-.023-.103-.014-.194-.203l-.421-.918c-.174-.34-.464-.684-.703-1.084l-1.698-3.313-.677-2.25c-.147-.7-.276-1.965-.276-2.65 0-.675.149-1.173.149-1.834l1.605-.628c.597-.247.388-.215.877-.215.89 0 .9.294 1.467.767.449.375.953.875 1.462 1.267l.893.794c-2.685 0-2.484-.241-2.482.694v9.574zm2.284-21.231c-.879 0-1.145-.05-1.95-.335l-1.78-.7c-.05-.024-.138-.077-.192-.106.05-.189.063-.078.12-.326l.439-1.892c.114-.586.588-.905.968-1.315.105-.114.117-.161.222-.275.29-.314.994-1.235 1.373-.652.221.337.185 1.465.253 1.534.133.064.211.03.363-.032.142-.06.263-.104.381-.166l.19-2.34c.081-.71-.068-.82-.31-1.36l-.09-.207c-.338-.692-.638-1.332-1.272-1.805a3.2 3.2 0 0 0-.826-.463c-.273-.104-.16-.089-.506-.14-.808-.116-1.228-.118-2.05.214-.413.167-.82.393-1.178.658a6.94 6.94 0 0 0-2.049 2.466c-.299.599-.2.884-.198 1.589.003 1.059-.055.665.955 1.674 1.08 1.08.831.584.831 2.493 0 .239-.158.284-.31.434l-1.915 1.857c-.683.596-1.174 1.32-1.76 2.01-.172.2-.206.198-.32.474-.175.425-.472 1.269-.507 1.725-.115 1.5.146 1.795.382 3.088l.446 2.333c.156.98.378 1.944.504 2.92l.302 1.93c.018.24.01.282.056.489.208.964.265 1.914.465 2.858.037.176.036.39.064.532l.896 4.71c.5 2.101.352 1.534 1.27 3.245l1.017 1.762c.083.138.133.253.21.386l1.627 3.383c.102.243.555 1.005.555 1.233 0 .16-.564.701-.695.794-.069.05-.132.09-.206.142-.126.09-.107.073-.247.149-.405.22-1.147.563-1.595.638l-.64.104c-.718.092-1.685.13-2.395-.022-.196-.041-.163-.048-.377-.07-.753-.073-2.029-.721-2.543-1.228-.056-.055-.074-.07-.129-.12l-.125-.122a4 4 0 0 1-.76-1.125c-.485-1.04-.448-2.06-.57-3.2-.122-1.134-.042-2.51-.042-3.73V37.007c0-.38-.023-.635-.049-.942-.555-.13-4.883-.05-5.807-.05a.19.19 0 0 0-.199.199V51.64c0 1.451.043 4.866.312 6.186.09.436.099.954.24 1.398.06.188.118.432.185.608.375 1.003.847 1.792 1.504 2.614.13.161.203.291.353.44 1.171 1.182 2.67 2.168 4.288 2.61l1.028.212c.246.062.465.088.728.117.25.027.454.088.694.1.28.013.55-.022.824.02 1.073.163 3.568.093 4.566-.092.927-.172 1.764-.272 2.61-.664l.773-.32c.293-.132.847-.472 1.105-.532l1.082 1.844c.178.297 2.295 3.635 2.749 2.63.226-.501-.075-1.294-.234-1.77l-.358-1.08-.187-.556c-.133-.4-.235-.746-.372-1.117-.111-.302-.519-1.398-.523-1.653-.004-.213.4-.66.53-.873l.476-1.01c.088-.202.122-.335.199-.547l.218-.823c.024-.13.055-.208.08-.316l.406-2.52c.034-.433.011-.99.06-1.428.19-1.68.093-6.806.093-8.689v-8.78c-.001-1.19-.01-.464.549-.89.178-.136.502-.638.642-.846.575 0 .753.021 1.21-.13.273-.092.775-.393.775-.664 0-.139-.174-.245-.261-.334-.126-.127-.146-.195-.271-.324-.165-.172-.499-.452-.56-.682.333-.077 1.095-.066 1.488-.1l2.979-.197c1 .007.85-.282 1.874-1.303l.813-.774c.303-.241.584-.47.887-.7l.906-.731c.169-.125.292-.21.446-.348l.883-.705c.13-.111.095-.057.145-.253.043-.167.052-.182.09-.306l.324-1.264c.03-.125.06-.14.103-.294.034-.127.03-.206.067-.33.074-.25.047-.415.238-.557.133-.1.343-.2.5-.295.836-.503 2.95-1.687 2.95-2.657 0-.3-.2-.574-.358-.733-.178-.18-.496-.319-.635-.507.044-.164.373-.49.51-.633.367-.385 1.278-1.713 1.278-2.245 0-.912.037-.889-.496-1.687.124-.534.943-1.307.943-3.423l-.05-.843c-.532-.124-1.396-.038-1.992-.145-.278-.05-.173-.164-.102-.357l.233-.862c.118-.407.3-1.023.359-1.427.069-.476.5-2.517-.334-2.517-.368 0-1.93.452-2.333.545-.138-.258-.237-.593-.355-.885-.14-.344-.867-2.34-1.383-2.34-.514 0-.651.343-.816.772-.048.125-.091.263-.128.37l-.198.744c-.113.65-.378 1.253-.533 1.897-.053.221-.056.199-.117.378l-2.765 6.96-1.985 3.82-.373.62a34 34 0 0 1-1.962 2.9c-.275.37-.587.694-.913 1.022-.33.332-1.181 1.107-1.635.567-.472-.559.073-1.177.378-1.676l1.914-2.849c.438-.612.837-1.266 1.261-1.914l2.075-3.483c.745-1.337 1.437-2.748 1.96-4.19l.696-2.282c.025-.15.009-.206.044-.352.213-.877.238-1.306-.69-1.654l-.756-.285c-.375-.136-.26-.28-.577-.962-.296-.634-1.04-2.29-1.83-2.29-.204 0-.528.205-.596.346-.082.168-.082.583-.1.842l-.195 2.684c-.007.28-.077.588-.123.869-.099.593-.083 1.128-.195 1.74-.03.162-.058.198-.076.369l-.14.853c-.027.184-.026.288-.056.44l-.147.795c-.218.784-.335 1.612-.536 2.392-.035.138-.078.225-.105.341a21 21 0 0 1-.785 2.59l-.527 1.408c-.463 1.092-.943 2.215-1.61 3.203-.635.94-1.121 1.64-1.968 2.398-.433.388-1.063.757-1.675.757zM27.894 7.442c-.158-.592-1.644-2.093-2.198-2.566-.148-.125-.293-.22-.453-.34-.828-.626-2.177-1.301-3.22-1.545-.154-.036-.187-.027-.328-.068-.608-.177-1.165-.243-1.84-.243-.19 0-.019-.015-.15.049.139.261.05.093.804.337l.29.107c1.041.383 2.106.989 2.938 1.727.663.588 1.362 1.278 1.822 2.049.179.3.875 1.235.896 1.485-.185.043-.14.083-.347.1-.02-.231-.172-.433-.273-.621l-.705-1.131c-.394-.539-.832-.974-1.318-1.461-.643-.645-1.386-1.095-2.186-1.535l-.637-.306c-.65-.275-1.414-.56-2.137-.643-.36-.042-.466-.103-.835-.107-.698-.007-1.327-.077-2.08.005-.178.02-.274.072-.501.095-.722.071-1.494.338-2.16.62-.028.013-.07.032-.103.045a8 8 0 0 0-1.722.957c-.128.097-.219.151-.349.248-.153.113-.21.179-.353.291-.695.543-1.285 1.21-1.786 1.935A10.3 10.3 0 0 0 7.7 9.384l-.206.688c-.091.482-.223.812-.25 1.338-.059 1.138-.164 1.44.014 2.668l.181.86a11.2 11.2 0 0 0 1.495 3.319c.125.187.39.434.447.645-.133.18-1.908 1.217-2.31 1.46L4.737 21.8c-1.092.671-2.432 1.459-3.496 2.161-.237.156-.992.674-1.241.694v.247c.207.076.434.604.548.792l3.668 5.908c.087.134.152.263.241.404.096.153.171.268.267.427 1.46 2.42 2.99 4.792 4.448 7.211l3.525 5.703c.074.133.056.094.135.214.642.976 1.216 1.984 1.83 2.981l5.61 9.076c.08.12.062.08.135.214.154.278.365.568.535.854l1.035 1.694c.087.137.392.807.588.707.115-.058.018-.342.017-.566-.043-9.376 0-18.752 0-28.128.112-.025.116-.049.25-.049h36.877c.262 0 .048.07.347 0-.007-.33-.525-.951-.71-1.273-.069-.12-.068-.139-.147-.25-.13-.182-.206-.332-.324-.52l-1.247-2.027c-.207-.347-.41-.65-.626-1.01l-2.482-4.018c-.114-.192-.193-.302-.304-.49l-.33-.514c-.221-.354-.4-.67-.62-1.018l-1.878-3.034c-.113-.204-.189-.293-.306-.488L44.55 7.116c-.216-.36-.418-.676-.62-1.016-1.01-1.695-2.113-3.367-3.127-5.061l-.31-.483c-.098-.151-.273-.358-.29-.556h-.249c-.07.196-.516.386-.697.494l-1.508.924c-.151.09-.228.143-.365.23-.07.043-.109.061-.186.112L32.88 4.437c-.153.092-.267.142-.405.24-1.16.827-2.563 1.53-3.772 2.332-.032.021-.044.03-.09.058-.234.141-.433.35-.718.373z" clip-rule="evenodd"/></svg>