<svg xmlns="http://www.w3.org/2000/svg" width="58" height="52" fill="none"><path fill="#00C700" d="M31.152 50.642a2.063 2.063 0 0 1-2.86.575 47.2 47.2 0 0 0-26.23-7.904 2.062 2.062 0 1 1 0-4.126 51.33 51.33 0 0 1 28.515 8.596 2.06 2.06 0 0 1 .574 2.86M2.061 30.937a2.062 2.062 0 1 0 0 4.125 55.38 55.38 0 0 1 38.974 15.91 2.064 2.064 0 1 0 2.887-2.944 59.48 59.48 0 0 0-41.86-17.09m53.626 4.125a55.8 55.8 0 0 0-12.528 1.416 68 68 0 0 1 4.125 3.393 52 52 0 0 1 8.403-.684 2.062 2.062 0 0 1 0 4.126c-1.547 0-3.076.074-4.602.221a71 71 0 0 1 4.11 4.677 2.062 2.062 0 1 1-3.218 2.578A63.68 63.68 0 0 0 2.063 26.813a2.062 2.062 0 1 1 0-4.125c4.15 0 8.292.377 12.375 1.126v-9.376a2.06 2.06 0 0 1 .824-1.65L31.763.412a2.06 2.06 0 0 1 2.475 0l16.5 12.375a2.06 2.06 0 0 1 .825 1.65v8.376a71 71 0 0 1 4.126-.127 2.062 2.062 0 0 1 0 4.125A63.5 63.5 0 0 0 33.963 30.6a67 67 0 0 1 4.76 2.779 59.9 59.9 0 0 1 16.964-2.441 2.062 2.062 0 0 1 0 4.125M26.812 16.5h12.375a2.06 2.06 0 0 1 2.063 2.063v5.656a67 67 0 0 1 6.188-1.031v-7.72L33 4.642 18.563 15.469V24.7a65 65 0 0 1 6.187 1.851v-7.99a2.06 2.06 0 0 1 2.063-2.062m2.081 11.671a68 68 0 0 1 8.232-2.92v-4.626h-8.25v7.538z"/></svg>