<svg xmlns="http://www.w3.org/2000/svg" width="50" height="50" fill="none"><path stroke="#00C700" stroke-linecap="round" stroke-linejoin="round" stroke-width="3" d="M22.444 9.667c0 2.033 1.346 3.983 3.743 5.42 2.396 1.439 5.646 2.246 9.035 2.246s6.639-.807 9.035-2.245S48 11.7 48 9.667s-1.346-3.984-3.743-5.421S38.611 2 35.222 2s-6.639.808-9.035 2.246-3.743 3.387-3.743 5.42"/><path stroke="#00C700" stroke-linecap="round" stroke-linejoin="round" stroke-width="3" d="M22.444 9.667v10.222c0 4.235 5.722 7.667 12.778 7.667S48 24.124 48 19.889V9.667"/><path stroke="#00C700" stroke-linecap="round" stroke-linejoin="round" stroke-width="3" d="M22.444 19.889V30.11c0 4.234 5.722 7.667 12.778 7.667S48 34.345 48 30.11V19.889"/><path stroke="#00C700" stroke-linecap="round" stroke-linejoin="round" stroke-width="3" d="M22.444 30.112v10.222c0 4.234 5.722 7.666 12.778 7.666S48 44.569 48 40.335V30.112M12.222 17.334H5.833a3.833 3.833 0 1 0 0 7.666H8.39a3.833 3.833 0 0 1 0 7.667H2m5.111 0v2.556m0-20.445v2.556"/></svg>