<svg xmlns="http://www.w3.org/2000/svg" width="24" height="24" fill="none"><path fill="#4285F4" fill-rule="evenodd" d="M20.16 12.193c0-.602-.054-1.182-.154-1.738H12v3.287h4.575a3.9 3.9 0 0 1-1.697 2.566v2.133h2.747c1.608-1.48 2.535-3.66 2.535-6.248" clip-rule="evenodd"/><path fill="#34A853" fill-rule="evenodd" d="M12 20.5c2.295 0 4.22-.76 5.626-2.06l-2.747-2.132c-.761.51-1.735.812-2.879.812-2.214 0-4.088-1.496-4.756-3.505h-2.84v2.203A8.5 8.5 0 0 0 12 20.5" clip-rule="evenodd"/><path fill="#FBBC05" fill-rule="evenodd" d="M7.244 13.615A5.1 5.1 0 0 1 6.977 12c0-.56.097-1.105.267-1.615V8.183h-2.84A8.5 8.5 0 0 0 3.5 12c0 1.371.328 2.67.904 3.817z" clip-rule="evenodd"/><path fill="#EA4335" fill-rule="evenodd" d="M12 6.88c1.248 0 2.369.43 3.25 1.272l2.438-2.438C16.215 4.342 14.29 3.5 12 3.5a8.5 8.5 0 0 0-7.596 4.683l2.84 2.202C7.912 8.375 9.786 6.881 12 6.881" clip-rule="evenodd"/></svg>