<svg xmlns="http://www.w3.org/2000/svg" width="197" height="56" fill="none"><path fill="#fff" d="M0 28C0 12.536 12.637 0 28.225 0h140.55C184.363 0 197 12.536 197 28s-12.637 28-28.225 28H28.225C12.637 56 0 43.464 0 28"/><path fill="#015401" d="M76.9 21.851q-1.142 0-1.994-.514a3.5 3.5 0 0 1-1.325-1.44q-.472-.926-.472-2.16 0-1.223.484-2.16a3.56 3.56 0 0 1 1.37-1.463q.9-.537 2.12-.537 1.383 0 2.305.663.92.662 1.198 1.829h-1.383a1.77 1.77 0 0 0-.726-1.006q-.54-.366-1.394-.366-1.267 0-1.993.812-.725.81-.725 2.24 0 1.428.714 2.228.715.8 1.9.8 1.2 0 1.798-.674.61-.675.714-1.794h-2.189v-.938h3.422v4.343h-1.118l-.103-1.177q-.404.63-1.014.972t-1.59.342m5.307-.137v-8h5.127v.983h-3.906v2.492h3.56v.96h-3.56v2.582h3.906v.983zm8.471 0v-7.017h-2.385v-.983h5.98v.983h-2.374v7.017zm7.64 0v-8h1.22v8zm4.747 0v-7.017h-2.385v-.983h5.979v.983h-2.373v7.017zm11.361.137q-1.199 0-2.097-.525a3.7 3.7 0 0 1-1.406-1.452q-.507-.936-.507-2.16 0-1.222.507-2.148a3.7 3.7 0 0 1 1.406-1.463q.899-.525 2.097-.526 1.197 0 2.096.526.899.525 1.394 1.463.507.925.507 2.148t-.507 2.16q-.495.925-1.394 1.452-.899.525-2.096.525m0-1.085q.83 0 1.44-.366.621-.366.967-1.051.346-.686.346-1.635 0-.948-.346-1.634a2.5 2.5 0 0 0-.967-1.051q-.61-.366-1.44-.366t-1.452.366a2.5 2.5 0 0 0-.968 1.051q-.334.686-.334 1.634 0 .949.334 1.635.346.685.968 1.051t1.452.366m5.358.948v-8h1.221l4.043 6.023v-6.023h1.222v8h-1.222l-4.043-6.023v6.023zM78.611 42.478q-1.597 0-2.79-.72a4.9 4.9 0 0 1-1.855-2q-.66-1.296-.661-3.008 0-1.728.677-3.04a5.04 5.04 0 0 1 1.952-2.064q1.275-.752 3.016-.752 1.984 0 3.29.944 1.307.943 1.694 2.608h-2.307a2.22 2.22 0 0 0-.935-1.216q-.678-.448-1.742-.448-1.694 0-2.613 1.072-.92 1.055-.92 2.912 0 1.855.904 2.88.919 1.008 2.484 1.008 1.532 0 2.306-.816.79-.832.952-2.176h-2.855v-1.536h4.935v6.16H82.24l-.161-1.472a3.8 3.8 0 0 1-1.371 1.232q-.824.432-2.097.432m11.329 0q-1.161 0-2.096-.528a4 4 0 0 1-1.468-1.456q-.532-.945-.532-2.176 0-1.233.548-2.16.549-.944 1.468-1.472.935-.528 2.097-.528 1.144 0 2.064.528a3.8 3.8 0 0 1 1.468 1.472q.548.927.548 2.16 0 1.231-.548 2.176a3.83 3.83 0 0 1-1.468 1.456 4.16 4.16 0 0 1-2.08.528m0-1.776q.807 0 1.404-.592.597-.609.596-1.792 0-1.185-.596-1.776-.597-.608-1.387-.608-.823 0-1.42.608-.58.591-.58 1.776 0 1.183.58 1.792.597.592 1.403.592m9.781 1.776q-1.162 0-2.097-.528a4 4 0 0 1-1.468-1.456q-.532-.945-.532-2.176 0-1.233.548-2.16.549-.944 1.468-1.472.935-.528 2.097-.528 1.145 0 2.064.528a3.8 3.8 0 0 1 1.468 1.472q.548.927.548 2.16 0 1.231-.548 2.176a3.83 3.83 0 0 1-1.468 1.456 4.16 4.16 0 0 1-2.08.528m0-1.776q.806 0 1.403-.592.597-.609.597-1.792 0-1.185-.597-1.776-.597-.608-1.387-.608-.823 0-1.42.608-.58.591-.58 1.776 0 1.183.58 1.792.597.592 1.404.592m8.825-.784q-.58 0-1.081-.128l-.596.592q.274.144.742.24t1.516.192q1.596.144 2.322.752t.726 1.68q0 .704-.387 1.328-.387.64-1.194 1.024-.805.4-2.064.4-1.71 0-2.758-.64-1.048-.624-1.048-1.888 0-1.073 1.048-1.856a4 4 0 0 1-.565-.304 3 3 0 0 1-.403-.336v-.368l1.403-1.472q-.935-.816-.935-2.096 0-.8.387-1.456a2.87 2.87 0 0 1 1.129-1.04q.726-.384 1.758-.384.678 0 1.258.192h3.032v1.248l-1.371.096q.323.607.323 1.344 0 .8-.387 1.456a2.73 2.73 0 0 1-1.129 1.04q-.726.384-1.726.384m0-1.568q.63 0 1.032-.336.42-.336.42-.96t-.42-.96q-.403-.336-1.032-.336-.662 0-1.064.336-.404.336-.404.96t.404.96q.402.336 1.064.336m-1.935 4.912q0 .592.548.88.564.303 1.371.304.774 0 1.258-.32.484-.304.484-.832a.93.93 0 0 0-.323-.72q-.306-.288-1.242-.352a13 13 0 0 1-1.225-.144q-.468.255-.678.56-.193.303-.193.624m7.731-.976v-11.52h2.064v11.52zm8.061.192q-1.21 0-2.145-.512a3.7 3.7 0 0 1-1.468-1.44q-.532-.929-.532-2.144 0-1.232.516-2.192a3.8 3.8 0 0 1 1.451-1.488q.936-.544 2.194-.544 1.177 0 2.08.512a3.6 3.6 0 0 1 1.404 1.408q.516.879.516 1.968 0 .176-.016.368 0 .192-.017.4h-6.08q.064.927.645 1.456.596.528 1.436.528.628 0 1.048-.272.435-.288.645-.736h2.097q-.226.752-.758 1.376a3.6 3.6 0 0 1-1.291.96q-.757.352-1.725.352m.016-6.656q-.759 0-1.339.432-.58.416-.742 1.28h3.984q-.048-.785-.581-1.248-.532-.464-1.322-.464m9.628 6.464v-11.2h4.177q1.354 0 2.242.448.887.447 1.322 1.232.436.783.436 1.76 0 .927-.42 1.712-.419.768-1.306 1.248-.887.464-2.274.464h-2.113v4.336zm2.064-6h1.984q1.08 0 1.548-.464.484-.48.484-1.296 0-.833-.484-1.296-.468-.48-1.548-.48h-1.984zm7.684 6v-11.52h2.065v11.52zm6.932.192q-1.032 0-1.694-.32-.66-.336-.983-.88a2.3 2.3 0 0 1-.323-1.2q0-1.104.871-1.792t2.613-.688h2.032v-.192q0-.816-.468-1.2-.467-.384-1.161-.384a1.97 1.97 0 0 0-1.097.304q-.468.288-.58.864h-2.016a2.8 2.8 0 0 1 .58-1.504 3.3 3.3 0 0 1 1.323-.976q.806-.352 1.806-.352 1.71 0 2.694.848t.984 2.4v4.88h-1.758l-.194-1.28q-.355.639-1 1.056-.629.416-1.629.416m.468-1.6q.886 0 1.371-.576.5-.576.629-1.424h-1.758q-.823 0-1.178.304a.9.9 0 0 0-.355.72q0 .464.355.72.356.255.936.256m6.815 4.928 1.855-4.048h-.484l-3.113-7.408h2.242l2.242 5.584 2.338-5.584h2.194l-5.081 11.456zM49.5 26.402 33.11 10.1l20.85 11.874zM28.835 9.142c-.966.502-1.611 1.415-1.611 2.6V44.25c0 1.186.646 2.099 1.61 2.6L47.89 27.992zm31.57 16.619-4.373-2.512L51.156 28l4.878 4.75 4.463-2.51c1.336-1.053 1.336-3.426-.09-4.48M33.114 45.9l20.85-11.875-4.463-4.427z"/></svg>