<svg xmlns="http://www.w3.org/2000/svg" width="131" height="77" fill="none"><path fill="#141416" fill-opacity=".7" fill-rule="evenodd" d="M6.37 22.21 26.632.763a2.4 2.4 0 0 1 3.484-.025l20.673 21.224c.966.99.978 2.624.029 3.63L30.556 47.039a2.4 2.4 0 0 1-3.484.025L6.398 25.837c-.965-.99-.978-2.624-.028-3.63zm5.697 1.787L28.433 6.676l16.69 17.13L28.76 41.13 12.07 23.994z" clip-rule="evenodd"/><path fill="#141416" fill-opacity=".7" fill-rule="evenodd" d="M29.028 22.21 49.289.763a2.4 2.4 0 0 1 3.484-.025l20.674 21.224c.965.99.978 2.624.028 3.63l-20.26 21.447a2.4 2.4 0 0 1-3.484.025L29.056 25.837c-.965-.99-.978-2.624-.028-3.63zm5.697 1.787L51.091 6.676l16.69 17.13L51.418 41.13l-16.69-17.135z" clip-rule="evenodd"/><path fill="#141416" fill-opacity=".7" fill-rule="evenodd" d="M51.689 22.21 71.95.763a2.4 2.4 0 0 1 3.483-.025l20.674 21.224c.965.99.978 2.624.028 3.63L75.876 47.039a2.4 2.4 0 0 1-3.484.025L51.717 25.837c-.965-.99-.978-2.624-.028-3.63zm5.697 1.787L73.752 6.676l16.69 17.13L74.08 41.13 57.39 23.994z" clip-rule="evenodd"/><path fill="#141416" fill-opacity=".7" fill-rule="evenodd" d="M74.35 22.21 94.612.763a2.4 2.4 0 0 1 3.483-.025l20.674 21.224c.966.99.978 2.624.029 3.63L98.536 47.039a2.4 2.4 0 0 1-3.484.025L74.378 25.837c-.965-.99-.978-2.624-.028-3.63zm5.697 1.787L96.413 6.676l16.69 17.13L96.74 41.13 80.05 23.994z" clip-rule="evenodd"/><path fill="#141416" fill-opacity=".7" d="M.151 76.612v-1.04h.845q.73 0 1.059-.25.327-.263.327-.751v-7.677q0-.801-1.222-.801H0v-1.04l4.765-.263v9.78q0 .451.315.727.327.275 1.121.275h.681v1.04zm1.84-16.968a1.5 1.5 0 0 1 .442-1.09q.453-.45 1.109-.45.681 0 1.097.45.428.45.428 1.09 0 .65-.454 1.102a1.52 1.52 0 0 1-1.096.438 1.41 1.41 0 0 1-1.097-.476q-.429-.488-.428-1.064m6.39-.326v-1.14h9.68q2.8 0 4.349 1.228 1.563 1.215 1.563 3.256 0 1.766-1.235 2.93-1.223 1.153-3.34 1.402.87.063 1.777.339.92.275 1.55.613 2.169 1.127 2.168 3.632 0 2.704-2.23 3.982-1.236.689-3.14.94-.92.111-2.76.112H8.382v-1.14h.328q1.6 0 2.08-.225.49-.225.491-.977V60.52q0-.714-.34-.951-.34-.25-1.185-.25zm5.71 8.44v6.3q0 .876.328 1.139.34.263 1.563.263h.428q3.378 0 4.387-.94 1.02-.952 1.02-2.955 0-1.916-1.159-2.892-1.147-.99-4.79-.99-.78 0-1.777.075m0-1.277q1.034.05 1.223.05.58 0 2.332-.138 1.764-.137 2.57-.951.808-.802.808-2.542 0-1.29-.505-2.117-.504-.84-1.55-1.164-.895-.288-2.71-.288h-.24q-1.209 0-1.575.263-.353.25-.353.939zm23.318.063q0 .663-.415 1.14-.417.463-1.084.463-.655 0-1.072-.389a1.34 1.34 0 0 1-.403-.989q0-.739.63-1.202-1.664 0-2.584 2.116-.92 2.105-.92 4.809v2.079q0 .538.277.776.278.225 1.16.225h.97v1.04h-7.02v-1.04h.643q.882 0 1.235-.213.353-.212.353-.989v-7.476q0-.538-.328-.663-.315-.138-.933-.138h-1.147v-1.04l4.79-.263v3.03a5.17 5.17 0 0 1 1.424-2.416q1.047-.99 2.37-.99.933 0 1.487.59.567.575.568 1.54m9.655 2.742v-1.603q-.025-2.115-2.773-2.116-1.072 0-1.752.25-.669.251-.668.664 0 .112.277.639.277.488.277.876 0 .551-.378.89a1.3 1.3 0 0 1-.907.338h-.089q-.693 0-1.071-.401-.378-.414-.378-1.177 0-1.39 1.437-2.305 1.437-.926 3.718-.926 2.37 0 3.53.914 1.16.902 1.159 2.843v5.86q0 1.302 1.034 1.303.24 0 .592-.15.366-.165.39-.164.366 0 .366.364 0 .463-.756.976-.744.501-1.563.501-2.018 0-2.294-2.078-.517.776-1.538 1.352a6 6 0 0 1-3.138.852q-1.626 0-2.635-.777-1.008-.776-1.008-2.266 0-1.754 2.143-2.956 2.155-1.202 6.025-1.703m0 1.04q-3.543.513-4.614 1.252-1.071.738-1.071 2.066 0 .864.605 1.465.618.6 1.5.601 1.487 0 2.534-1.002t1.046-2.404zm5.609-4.233v-1.04l4.5-.263v2.23q1.399-2.605 3.945-2.605 1.89 0 3 1.29 1.122 1.29 1.122 3.218v5.447q0 .563.252.89.252.312 1.058.312h.807v1.04h-6.617v-1.04h.794q.72 0 1.02-.25.304-.263.303-.952v-5.76q0-2.667-2.47-2.667-1.35 0-2.282 1.114t-.932 3.005v4.108q0 .675.252 1.04.252.362 1.109.362h.756v1.04h-6.617v-1.04h.693q.769 0 1.097-.237.327-.25.327-.965v-7.275q0-.601-.214-.802-.202-.2-.945-.2zM77.67 76.862v-2.279q-.984 2.404-3.542 2.404-2.508 0-3.92-1.715-1.412-1.728-1.412-4.47 0-2.77 1.462-4.571 1.475-1.815 3.807-1.816 2.571 0 3.605 2.003v-6.536q0-.476-.265-.639-.264-.163-.857-.163h-1.4v-1.04l4.904-.262v16.38q0 .751.328 1.076.34.326 1.109.326h.68v1.04zm0-6.16q0-2.38-.782-3.695-.769-1.315-2.269-1.315-3.189 0-3.189 5.047 0 4.971 3.164 4.971 1.5 0 2.282-1.315.794-1.315.794-3.694m6.87 4.671q0-.663.466-1.127.479-.463 1.16-.463.667 0 1.134.476t.466 1.14q0 .675-.466 1.139-.467.45-1.135.45a1.62 1.62 0 0 1-1.147-.463 1.56 1.56 0 0 1-.479-1.152m21.642-3.444v-9.604q0-1.703-.731-2.33-.73-.625-1.941-.676h-.277v-1.14h7.26v1.14h-.214q-1.677 0-2.231.827-.542.825-.542 2.78V77h-1.008L94.799 61.334v10.932q0 2.004.757 2.605.768.6 2.319.601v1.14H90.4v-1.14h.126q1.677 0 2.307-.776.643-.777.643-2.455V60.17q-.39-.489-.832-.664-.44-.188-1.45-.188H90.4v-1.14h5.408zm19.588-12.259.971-1.703h.97l.391 7.238-1.097.05q-.705-2.98-2.243-4.646-1.525-1.666-3.883-1.666-2.508 0-3.995 2.117t-1.488 6.336q.013 8.453 5.572 8.453 2.067 0 3.302-1.14 1.235-1.152 1.235-3.118v-.901q0-.727-.403-1.002-.403-.288-1.576-.288h-.92v-1.14H131v1.14h-1.563q-.693 0-1.021.238-.315.237-.315 1.027V77h-.971l-.958-2.417Q124.156 77 120.652 77q-3.429 0-6.013-2.517-2.584-2.53-2.584-6.787 0-4.408 2.735-7.15 2.748-2.756 6.101-2.756 3.037 0 4.878 1.879"/></svg>