<svg xmlns="http://www.w3.org/2000/svg" width="26" height="25" fill="none"><path fill="#141416" d="M12.88 6.22a6.275 6.275 0 1 0 .001 12.55 6.275 6.275 0 0 0 0-12.55m0 10.35a4.077 4.077 0 1 1 0-8.153 4.077 4.077 0 0 1 0 8.154m6.519-9.12a1.463 1.463 0 1 0 0-2.926 1.463 1.463 0 0 0 0 2.926"/><path fill="#141416" d="M24.458 4.501A6.25 6.25 0 0 0 20.885.93a9 9 0 0 0-2.967-.57c-1.307-.057-1.72-.073-5.035-.073-3.314 0-3.739 0-5.035.073a8.9 8.9 0 0 0-2.964.57 6.24 6.24 0 0 0-3.573 3.572 9 9 0 0 0-.569 2.967C.684 8.774.666 9.188.666 12.503s0 3.736.076 5.035a9 9 0 0 0 .569 2.968 6.26 6.26 0 0 0 3.574 3.572c.947.371 1.95.578 2.966.611 1.307.057 1.72.075 5.035.075 3.314 0 3.739 0 5.035-.075a9 9 0 0 0 2.967-.569 6.26 6.26 0 0 0 3.573-3.573c.357-.95.548-1.952.569-2.967.058-1.305.075-1.72.075-5.035s0-3.736-.076-5.035a9 9 0 0 0-.57-3.009m-1.653 12.937a6.8 6.8 0 0 1-.422 2.29 4.05 4.05 0 0 1-2.323 2.323 6.8 6.8 0 0 1-2.267.422c-1.29.06-1.653.074-4.959.074-3.309 0-3.646 0-4.96-.074a6.7 6.7 0 0 1-2.265-.422 4.05 4.05 0 0 1-2.333-2.322 6.9 6.9 0 0 1-.422-2.265c-.059-1.29-.072-1.653-.072-4.96s0-3.645.072-4.96a6.8 6.8 0 0 1 .422-2.29A4.05 4.05 0 0 1 5.61 2.931a6.8 6.8 0 0 1 2.265-.422c1.29-.058 1.653-.075 4.96-.075s3.647 0 4.96.075c.773.01 1.54.152 2.266.422a4.06 4.06 0 0 1 2.323 2.324c.267.726.41 1.491.422 2.265.058 1.29.073 1.653.073 4.96s0 3.662-.058 4.96h-.015z"/></svg>