<svg xmlns="http://www.w3.org/2000/svg" width="45" height="46" fill="none"><path fill="#00C700" fill-rule="evenodd" d="M35.033 12.512c0 6.91-5.602 12.512-12.512 12.512S10.01 19.422 10.01 12.512 15.611 0 22.521 0s12.512 5.602 12.512 12.512m-2.502 0a10.01 10.01 0 1 1-20.02 0 10.01 10.01 0 0 1 20.02 0" clip-rule="evenodd"/><path fill="#00C700" d="M41.29 22.521c0 1.918-1.41 3.366-2.503 4.198v2.935q.243-.225.548-.396c1.73-.969 3.958-.25 5.047.215a1.006 1.006 0 0 1 .611 1.046c-.129 1.137-.588 3.278-2.233 4.043-1.364.634-2.932.51-3.973.307v2.292q.243-.225.548-.396c1.73-.967 3.958-.25 5.047.215a1.006 1.006 0 0 1 .611 1.046c-.129 1.137-.588 3.278-2.233 4.043-1.364.634-2.932.51-3.973.307v1.416a1.251 1.251 0 1 1-2.502 0v-1.414c-1.041.201-2.609.325-3.973-.31-1.645-.762-2.106-2.905-2.233-4.042a1.006 1.006 0 0 1 .61-1.046c1.089-.465 3.316-1.182 5.048-.215q.305.172.548.396v-2.29c-1.041.202-2.609.325-3.973-.308-1.645-.763-2.106-2.906-2.233-4.043a1.006 1.006 0 0 1 .61-1.046c1.089-.465 3.316-1.183 5.048-.215q.305.172.548.397V26.72c-1.093-.833-2.503-2.28-2.503-4.197 0-2.381 2.175-4.038 3.215-4.692a1 1 0 0 1 1.078 0c1.039.653 3.214 2.31 3.214 4.69M0 36.958c0-4.048 4.617-6.507 10.01-7.895v7.221H8.758a1.25 1.25 0 0 0-1.25 1.252v7.507H0zm22.522.578c-4.38 0-7.508-1.252-7.508-1.252h-2.502v-7.782a54 54 0 0 1 5.005-.718v2.245a2.5 2.5 0 0 0 2.502 2.502h5.005c.666 0 1.271-.26 1.72-.685q.061.207.13.422c.234.727.545 1.427.926 2.088q.152.258.354.547a3.75 3.75 0 0 0-1.759 2.311 24 24 0 0 1-3.873.322m0 2.502a26 26 0 0 0 3.992-.309c.085.367.203.816.36 1.297.148.446.347.974.616 1.514H10.01v-3.753h4.568l.221.074c.42.135 1.015.311 1.753.485 1.957.458 3.96.69 5.97.692"/></svg>