<svg xmlns="http://www.w3.org/2000/svg" width="30" height="39" fill="none"><path fill="#00C700" d="M26.25 6.25h-.212v2.5h.212A1.25 1.25 0 0 1 27.5 10v25a1.25 1.25 0 0 1-1.25 1.25H3.75A1.25 1.25 0 0 1 2.5 35V10a1.25 1.25 0 0 1 1.25-1.25h.212v-2.5H3.75A3.75 3.75 0 0 0 0 10v25a3.75 3.75 0 0 0 3.75 3.75h22.5A3.75 3.75 0 0 0 30 35V10a3.75 3.75 0 0 0-3.75-3.75"/><path fill="#00C700" d="M23.75 3.75H20V0H10v3.75H6.25v7.5h17.5zm-2.5 5H8.75v-2.5h3.75V2.5h5v3.75h3.75zM7.5 16.25h15v2.5h-15zm0 6.25h15V25h-15zm0 6.25h15v2.5h-15z"/></svg>