<svg xmlns="http://www.w3.org/2000/svg" width="41" height="48" fill="none"><path fill="#00C700" d="M36.384 29.714a15.96 15.96 0 0 1-6.765 10.88c-.457-1.897-3.268-3.451-6.948-3.885.389-2.72 1.189-5.258 1.737-6.72a5.56 5.56 0 0 0 3.017.868c8.113 0 6.856-13.714 6.856-13.714s-1.143 2.286-4.57 2.286h-2.286a5.713 5.713 0 0 0-4.868 8.708c1.508-1.577 3.13-2.994 4.868-4.137-3.017 3.04-5.325 6.857-6.856 10.514-1.44-2.811-3.246-4.96-4.571-5.943 1.074.458 2.08 1.143 3.04 1.829a4.4 4.4 0 0 0 .388-1.829c-.114-6.24-10.284-5.714-10.284-5.714a5.83 5.83 0 0 1 1.142 3.429v2.285a4.585 4.585 0 0 0 4.571 4.572A4.34 4.34 0 0 0 17.826 32c.526 1.44.914 3.086 1.12 4.663-3.931.343-6.948 1.943-7.428 3.954-4.182-2.903-6.947-7.726-6.947-13.188 0-8.823 7.176-16 15.998-16v6.857l11.427-9.143L20.569 0v6.857A20.567 20.567 0 0 0 0 27.43 20.573 20.573 0 0 0 20.569 48C31.149 48 39.857 40 41 29.714z"/></svg>