<svg width="28" height="36" viewBox="0 0 28 36" fill="none" xmlns="http://www.w3.org/2000/svg">
<path d="M25.5 4.29492H21.75V3.04492C21.75 2.38188 21.4866 1.746 21.0178 1.27715C20.5489 0.808314 19.913 0.544922 19.25 0.544922H9.25C8.58696 0.544922 7.95107 0.808314 7.48223 1.27715C7.01339 1.746 6.75 2.38188 6.75 3.04492V4.29492H3C2.33696 4.29492 1.70107 4.55831 1.23223 5.02715C0.763392 5.496 0.5 6.13188 0.5 6.79492V33.0449C0.5 33.708 0.763392 34.3438 1.23223 34.8127C1.70107 35.2815 2.33696 35.5449 3 35.5449H25.5C26.163 35.5449 26.7989 35.2815 27.2678 34.8127C27.7366 34.3438 28 33.708 28 33.0449V6.79492C28 6.13188 27.7366 5.496 27.2678 5.02715C26.7989 4.55831 26.163 4.29492 25.5 4.29492ZM9.25 3.04492H19.25V8.04492H9.25V3.04492ZM25.5 33.0449H3V6.79492H6.75V10.5449H21.75V6.79492H25.5V33.0449Z" fill="white"/>
</svg>
