<svg xmlns="http://www.w3.org/2000/svg" width="39" height="39" fill="none"><path fill="#00C700" fill-rule="evenodd" d="M29 0c-5.523 0-10 4.477-10 10v9a1 1 0 0 0 1 1h9c5.523 0 10-4.477 10-10S34.523 0 29 0m-8 10a8 8 0 1 1 8 8h-8zM2 7.778C2 7.352 2.352 7 2.778 7H9c.425 0 .778.352.778.778 0 2.326.372 4.562 1.06 6.652a.78.78 0 0 1-.198.8l-4.425 4.425.33.647c2.656 5.222 6.934 9.48 12.15 12.152l.648.332 4.426-4.426a.77.77 0 0 1 .782-.187l.01.003a21.3 21.3 0 0 0 6.661 1.064c.426 0 .778.352.778.778v6.204a.783.783 0 0 1-.778.778C15.082 37 2 23.919 2 7.778M2.778 5A2.783 2.783 0 0 0 0 7.778C0 25.023 13.977 39 31.222 39A2.783 2.783 0 0 0 34 36.222v-6.204a2.783 2.783 0 0 0-2.778-2.778 19.3 19.3 0 0 1-6.028-.961 2.77 2.77 0 0 0-2.839.667l-3.389 3.389a25.94 25.94 0 0 1-10.302-10.3l3.39-3.39a2.78 2.78 0 0 0 .691-2.82l-.002-.007-.002-.007a19.2 19.2 0 0 1-.963-6.033A2.783 2.783 0 0 0 9 5zM24 9h4V5h2v4h4v2h-4v4h-2v-4h-4z" clip-rule="evenodd"/></svg>