<svg xmlns="http://www.w3.org/2000/svg" width="43" height="42" fill="none"><path fill="#00C700" fill-rule="evenodd" d="M15.928 18.746a1.14 1.14 0 0 0-.377 1.572c1.05 1.711 1.942 3.41 2.536 4.954a1.143 1.143 0 0 0 2.133-.82c-.66-1.72-1.629-3.548-2.721-5.33a1.14 1.14 0 0 0-1.571-.377m11.898-1.09a1.143 1.143 0 0 1 .248 1.596c-1.322 1.808-2.486 4.227-3.305 6.073a1.144 1.144 0 0 1-2.089-.927c.827-1.863 2.073-4.475 3.55-6.494a1.14 1.14 0 0 1 1.596-.248" clip-rule="evenodd"/><path fill="#00C700" fill-rule="evenodd" d="M25.142 7.767C27.817 4.707 42.125.869 42.125.869s-2.432 15.304-4.572 17.752c-1.594 1.823-6.672.684-9.16-.016 1.86-2.853 4.015-5.64 5.91-7.852a1.143 1.143 0 0 0-1.734-1.487c-1.911 2.23-4.127 5.084-6.067 8.05-1.09-2.028-3.476-7.13-1.36-9.55M6.587 28.29H.875V42h5.712v-2.334c1.165-.048 2.886-.11 3.481-.086 2.042.083 3.565.57 5.107 1.063 1.438.458 2.89.922 4.79 1.067.477.036.942.083 1.394.128 1.626.164 3.069.31 4.261-.128 1.522-.56 10.221-4.818 11.309-5.94 1.088-1.119.544-4.144-2.828-3.584-1.663.276-3.59 1.071-5.34 1.792-1.795.74-3.401 1.402-4.338 1.345-1.849-.112-6.74-1.008-6.74-1.008l5.617.069s.794.041 1.885-.742c1.091-.782 2.066-3.025.434-3.025s-3.37-.56-3.37-.56l-6.96-1.569s-2.393-.447-3.37 0c-.808.37-4.169 1.574-5.332 1.988zM4.163 5.062S15.97 8.23 18.178 10.753c1.706 1.95-.133 6.012-1.058 7.76a66 66 0 0 0-3.923-5.517 1.143 1.143 0 1 0-1.794 1.415 64 64 0 0 1 3.811 5.365c-2.134.578-6.02 1.374-7.278-.064-1.766-2.02-3.773-14.65-3.773-14.65" clip-rule="evenodd"/></svg>