<svg width="29" height="32" viewBox="0 0 29 32" fill="none" xmlns="http://www.w3.org/2000/svg">
<path d="M10.15 22.88L11.4332 21.6L7.53638 17.7778L11.4332 13.9556L10.15 12.6756L4.94812 17.7778L10.15 22.88ZM18.85 22.88L24.0519 17.7778L18.85 12.6756L17.5668 13.9556L21.4636 17.7778L17.5668 21.6L18.85 22.88ZM0 32V3.55556H11.4478C11.2822 2.6477 11.5033 1.82815 12.1111 1.09689C12.7177 0.36563 13.52 0 14.5181 0C15.5162 0 16.3185 0.36563 16.9251 1.09689C17.5317 1.82815 17.7414 2.6477 17.5541 3.55556H29V32H0ZM1.8125 30.2222H27.1875V5.33333H1.8125V30.2222ZM14.5 4.34133C14.8927 4.34133 15.2178 4.2157 15.4751 3.96444C15.7325 3.71319 15.8606 3.39437 15.8594 3.008C15.8582 2.62163 15.7295 2.30341 15.4733 2.05333C15.2171 1.80326 14.8927 1.67704 14.5 1.67467C14.1073 1.6723 13.7829 1.79852 13.5267 2.05333C13.2705 2.30815 13.1418 2.62637 13.1406 3.008C13.1394 3.38963 13.2681 3.70844 13.5267 3.96444C13.7853 4.22044 14.1097 4.34607 14.5 4.34133Z" fill="white"/>
</svg>
