<svg xmlns="http://www.w3.org/2000/svg" width="42" height="38" fill="none"><path fill="#00C700" d="m32.45 28.31 3.199 2.137a1.456 1.456 0 0 0 1.976-.34L42 24.263l-2.333-1.754-3.549 4.74-3.225-2.156a1.456 1.456 0 0 0-1.997.365l-4.646 6.52V20.462h-2.917v14.615c0 .775.308 1.519.855 2.067A2.9 2.9 0 0 0 26.25 38h14.583v-2.923H27.625zM0 27.77h20.417v2.922H0zm0 7.307h20.417V38H0zm13.125-14.615v-7.308h1.458a5.83 5.83 0 0 0 4.123-1.715 5.86 5.86 0 0 0 1.71-4.131V2.923h-4.374a5.8 5.8 0 0 0-4.006 1.618 8.76 8.76 0 0 0-3.212-3.32A8.74 8.74 0 0 0 4.375 0H0v4.385a8.8 8.8 0 0 0 2.566 6.197 8.75 8.75 0 0 0 6.184 2.572h1.458v7.308H0v2.923h20.417V20.46zm2.917-14.616H17.5v1.462c0 .775-.307 1.518-.854 2.067a2.9 2.9 0 0 1-2.063.856h-1.458V8.769c0-.775.307-1.519.854-2.067a2.9 2.9 0 0 1 2.063-.856M8.75 10.231a5.83 5.83 0 0 1-4.123-1.715 5.86 5.86 0 0 1-1.71-4.131V2.923h1.458a5.83 5.83 0 0 1 4.123 1.715 5.86 5.86 0 0 1 1.71 4.131v1.462z"/></svg>