<svg xmlns="http://www.w3.org/2000/svg" width="39" height="39" fill="none"><path stroke="#00C700" stroke-linecap="round" stroke-linejoin="round" stroke-width="2.5" d="M20.375 37h-2.82c-7.332 0-10.998 0-13.276-2.196C2 32.606 2 29.07 2 22v-9.5h35v4.375"/><path stroke="#00C700" stroke-linecap="round" stroke-linejoin="round" stroke-width="2.5" d="M30 26.5h.016M2 12.5l1.684-4.039C4.986 5.328 5.64 3.764 6.963 2.882S9.98 2 13.375 2h12.25c3.393 0 5.089 0 6.412.882s1.976 2.448 3.28 5.579L37 12.5m-17.5 0V2M16 19.5h3.5m10.5 0c-3.867 0-7 3.166-7 7.07 0 2.233.875 3.969 2.625 5.521 1.234 1.092 2.728 2.909 3.624 4.38.43.706 1.04.706 1.502 0 .941-1.443 2.39-3.288 3.624-4.38C36.125 30.54 37 28.803 37 26.57c0-3.902-3.133-7.07-7-7.07"/></svg>