<svg width="30" height="32" viewBox="0 0 30 32" fill="none" xmlns="http://www.w3.org/2000/svg">
<path d="M3.8 7.27273V0M15 17.4545V10.1818M15 32V26.1818M3.8 27.6364V23.2727M25.5 2.90909V0M25.5 16V13.0909M29 5.81818V4.36364C29 3.97787 28.8525 3.6079 28.59 3.33512C28.3274 3.06234 27.9713 2.90909 27.6 2.90909H23.4C23.0287 2.90909 22.6726 3.06234 22.41 3.33512C22.1475 3.6079 22 3.97787 22 4.36364V5.71636C22.0002 6.0525 22.1124 6.37819 22.3176 6.63806C22.5228 6.89793 22.8083 7.07594 23.1256 7.14182L27.8744 8.13091C28.1917 8.19679 28.4772 8.3748 28.6824 8.63467C28.8876 8.89454 28.9998 9.22023 29 9.55636V11.6364C29 12.0221 28.8525 12.3921 28.59 12.6649C28.3274 12.9377 27.9713 13.0909 27.6 13.0909H23.4C23.0287 13.0909 22.6726 12.9377 22.41 12.6649C22.1475 12.3921 22 12.0221 22 11.6364V10.1818M1 23.2727V7.27273H6.6V23.2727H1ZM12.2 26.1818V17.4545H17.8V26.1818H12.2Z" stroke="white" stroke-width="2"/>
</svg>
