<svg xmlns="http://www.w3.org/2000/svg" width="41" height="43" fill="none"><path fill="#00C700" d="M35.612 15.316c-.736 0-1.462.163-2.126.478l-6.204-7.752a4.977 4.977 0 1 0-8.831-2.26L9.007 9.715a4.976 4.976 0 1 0-4.977 7.806l.383 9.47a4.977 4.977 0 1 0 5.692 7.198l9.812 2.756v.191a4.977 4.977 0 1 0 8.542-3.466l5.522-8.677a4.977 4.977 0 1 0 1.631-9.677M24.893 32.16c-.149 0-.296 0-.442.02l-3.348-10.046 9.724-.463a5 5 0 0 0 1.215 2.088l-5.522 8.676a5 5 0 0 0-1.627-.275M8.867 27.899a5 5 0 0 0-2.157-1.007l-.383-9.47a5 5 0 0 0 2.27-1.373l8.885 5.143zM23.362 9.957c.736 0 1.462-.163 2.127-.479l6.203 7.752a4.96 4.96 0 0 0-.97 2.144l-9.716.463zm0-7.657a2.68 2.68 0 1 1 0 5.36 2.68 2.68 0 0 1 0-5.36m-4.02 5.6a5 5 0 0 0 1.788 1.523l-2.362 9.868-9.015-5.223a5 5 0 0 0 .146-2.234zM2.308 12.637a2.68 2.68 0 1 1 5.359 0 2.68 2.68 0 0 1-5.359 0m3.446 21.82a2.68 2.68 0 1 1 0-5.358 2.68 2.68 0 0 1 0 5.358m4.976-2.488v-.191c0-.713-.153-1.417-.45-2.065l8.68-6.751 3.316 9.953a5 5 0 0 0-1.732 1.816zm14.164 7.848a2.68 2.68 0 1 1 0-5.36 2.68 2.68 0 0 1 0 5.36m10.719-16.844a2.679 2.679 0 1 1 0-5.358 2.679 2.679 0 0 1 0 5.358"/></svg>