<svg xmlns="http://www.w3.org/2000/svg" width="41" height="41" fill="none"><path fill="#00C700" d="M5.125 30.75a5.125 5.125 0 1 1 0 10.25 5.125 5.125 0 0 1 0-10.25m30.75 0a5.125 5.125 0 1 1 0 10.25 5.125 5.125 0 0 1 0-10.25m-30.75 2.563a2.563 2.563 0 1 0 0 5.125 2.563 2.563 0 0 0 0-5.126m30.75 0a2.563 2.563 0 1 0 0 5.125 2.563 2.563 0 0 0 0-5.126M21.781 11.53v7.688h7.688v2.562H21.78v7.688h-2.56V21.78h-7.69v-2.56h7.688v-7.69zM5.125 0a5.125 5.125 0 1 1 0 10.25 5.125 5.125 0 0 1 0-10.25m30.75 0a5.125 5.125 0 1 1 0 10.25 5.125 5.125 0 0 1 0-10.25m0 2.563a2.563 2.563 0 1 0 0 5.125 2.563 2.563 0 0 0 0-5.125m-30.75 0a2.562 2.562 0 1 0 0 5.124 2.562 2.562 0 0 0 0-5.124M27.006 37.22c.13.868.385 1.694.746 2.46A20.5 20.5 0 0 1 20.5 41c-2.553 0-4.997-.466-7.252-1.32.36-.766.615-1.592.746-2.46a17.9 17.9 0 0 0 6.506 1.218c2.295 0 4.49-.431 6.506-1.218M39.68 13.248A20.5 20.5 0 0 1 41 20.5c0 2.553-.466 4.997-1.32 7.252a9 9 0 0 0-2.46-.746 17.9 17.9 0 0 0 1.218-6.506c0-2.295-.431-4.49-1.218-6.506.852-.13 1.68-.38 2.46-.746m-38.36 0c.766.36 1.592.615 2.46.746A17.9 17.9 0 0 0 2.563 20.5c0 2.295.43 4.49 1.217 6.506-.852.13-1.68.38-2.46.746A20.5 20.5 0 0 1 0 20.5c0-2.553.466-4.997 1.32-7.252M20.5 0c2.553 0 4.997.466 7.252 1.32a9 9 0 0 0-.746 2.46A17.9 17.9 0 0 0 20.5 2.563c-2.295 0-4.49.43-6.506 1.217a9 9 0 0 0-.746-2.46A20.5 20.5 0 0 1 20.5 0"/></svg>