<svg xmlns="http://www.w3.org/2000/svg" width="33" height="32" fill="none"><path fill="#00C700" d="M27.81 4.683a16.036 16.036 0 0 0-22.63 0L2.867 6.996V1.434a1.433 1.433 0 1 0-2.867 0v9.06a1.45 1.45 0 0 0 1.434 1.452h9.078a1.433 1.433 0 1 0 0-2.867H4.778l2.428-2.37a13.15 13.15 0 0 1 18.578 0c11.831 12.787-5.734 30.41-18.578 18.578a1.433 1.433 0 0 0-2.026 0 1.415 1.415 0 0 0 0 2.026 16.002 16.002 0 1 0 22.63-22.63"/><path fill="#00C700" d="M16.247 7.875a1.453 1.453 0 0 0-1.434 1.434v6.69c0 .38.152.744.42 1.012l4.836 4.721a1.4 1.4 0 0 0 1.013.42 1.433 1.433 0 0 0 .899-2.331l-4.358-4.358V9.309a1.453 1.453 0 0 0-1.376-1.434"/></svg>