<svg xmlns="http://www.w3.org/2000/svg" width="122" height="119" fill="none"><path stroke="#00C700" stroke-linecap="round" stroke-linejoin="round" stroke-width="15" d="M114 111 78.667 76.667m11.777-28.611c0 5.26-1.066 10.468-3.137 15.328A40 40 0 0 1 78.37 76.38a41.3 41.3 0 0 1-13.374 8.683 42.3 42.3 0 0 1-15.775 3.05 42.3 42.3 0 0 1-15.775-3.05 41.3 41.3 0 0 1-13.373-8.683 40 40 0 0 1-8.936-12.995A39.1 39.1 0 0 1 8 48.056c0-10.624 4.343-20.812 12.074-28.324S38.289 8 49.222 8s21.418 4.22 29.149 11.732c7.73 7.512 12.073 17.7 12.073 28.324"/></svg>