<svg width="25" height="24" viewBox="0 0 25 24" fill="none" xmlns="http://www.w3.org/2000/svg">
<path d="M22.5984 0H2.14687C1.16719 0 0.375 0.773438 0.375 1.72969V22.2656C0.375 23.2219 1.16719 24 2.14687 24H22.5984C23.5781 24 24.375 23.2219 24.375 22.2703V1.72969C24.375 0.773438 23.5781 0 22.5984 0ZM7.49531 20.4516H3.93281V8.99531H7.49531V20.4516ZM5.71406 7.43438C4.57031 7.43438 3.64688 6.51094 3.64688 5.37187C3.64688 4.23281 4.57031 3.30937 5.71406 3.30937C6.85313 3.30937 7.77656 4.23281 7.77656 5.37187C7.77656 6.50625 6.85313 7.43438 5.71406 7.43438ZM20.8266 20.4516H17.2687V14.8828C17.2687 13.5563 17.2453 11.8453 15.4172 11.8453C13.5656 11.8453 13.2844 13.2938 13.2844 14.7891V20.4516H9.73125V8.99531H13.1437V10.5609H13.1906C13.6641 9.66094 14.8266 8.70938 16.5563 8.70938C20.1609 8.70938 20.8266 11.0813 20.8266 14.1656V20.4516V20.4516Z" fill="#015401"/>
</svg>
