<svg xmlns="http://www.w3.org/2000/svg" width="23" height="28" fill="none"><path fill="#141416" fill-opacity=".5" d="M11.172 16.557c-2.532 0-4.6-2.161-4.6-4.835s2.068-4.824 4.6-4.824 4.6 2.162 4.6 4.836-2.068 4.823-4.6 4.823m0-7.784c-1.545 0-2.817 1.324-2.817 2.961s1.26 2.961 2.817 2.961 2.817-1.324 2.817-2.96c0-1.638-1.272-2.962-2.817-2.962"/><path fill="#141416" fill-opacity=".5" d="M11.496 27.597c-1.814 0-3.641-.719-5.063-2.143C2.816 21.81-1.181 15.999.327 9.084 1.687 2.81 6.923 0 11.497 0h.011c4.574 0 9.809 2.81 11.17 9.096 1.496 6.915-2.501 12.714-6.118 16.358-1.422 1.424-3.25 2.143-5.064 2.143m0-25.673c-3.568 0-8.153 1.989-9.367 7.583C.805 15.55 4.434 20.758 7.72 24.056c2.121 2.142 5.444 2.142 7.565 0 3.273-3.298 6.902-8.506 5.603-14.55-1.226-5.593-5.824-7.582-9.392-7.582"/></svg>