<svg xmlns="http://www.w3.org/2000/svg" width="27" height="33" fill="none"><path fill="#141416" d="M13.114 19.438c-2.972 0-5.4-2.537-5.4-5.676s2.428-5.662 5.4-5.662 5.4 2.537 5.4 5.676-2.428 5.662-5.4 5.662m0-9.138c-1.814 0-3.307 1.555-3.307 3.476s1.479 3.477 3.307 3.477 3.307-1.555 3.307-3.477-1.493-3.476-3.307-3.476"/><path fill="#141416" d="M13.496 32.396c-2.13 0-4.275-.843-5.945-2.515-4.246-4.277-8.938-11.1-7.167-19.218C1.98 3.298 8.127 0 13.496 0h.014c5.368 0 11.514 3.298 13.112 10.678 1.756 8.118-2.936 14.926-7.182 19.203-1.67 1.672-3.814 2.515-5.944 2.515m0-30.137c-4.189 0-9.572 2.335-10.997 8.901-1.554 7.094 2.706 13.21 6.565 17.08 2.49 2.514 6.39 2.514 8.88 0 3.843-3.871 8.103-9.986 6.577-17.08-1.439-6.566-6.836-8.9-11.024-8.9"/></svg>