<svg xmlns="http://www.w3.org/2000/svg" width="389" height="78" fill="none"><path fill="#1A1A1A" d="M89.655 66.478c.443 0 .813-.334.813-.777s-.37-.776-.813-.776c-.43 0-.8.333-.8.776s.37.777.8.777m5.356 0c.443 0 .813-.334.813-.777s-.37-.776-.813-.776c-.43 0-.8.333-.8.776s.37.777.8.777m5.356 0c.444 0 .812-.334.812-.777s-.37-.776-.812-.776c-.43 0-.8.333-.8.776s.37.777.8.777m11.044-7.243v-1.22h-5.922v8.376h1.329v-3.313h4.052v-1.22h-4.052v-2.623zm8.126-1.366a4.33 4.33 0 0 0-4.358 4.336 4.33 4.33 0 0 0 4.358 4.336 4.33 4.33 0 0 0 4.358-4.336 4.33 4.33 0 0 0-4.358-4.336m0 7.427c-1.711 0-3.016-1.38-3.016-3.091s1.305-3.105 3.016-3.105 3.017 1.392 3.017 3.105-1.305 3.09-3.017 3.09m14.381 1.096h1.625l-2.34-3.042c1.133-.395 1.871-1.319 1.871-2.563 0-1.688-1.354-2.772-3.226-2.772h-3.361v8.376h1.33v-2.833h1.933l2.166 2.833zm-4.1-7.157h1.982c1.12 0 1.97.592 1.97 1.552s-.85 1.551-1.97 1.551h-1.982v-3.104zm19.737 7.157h1.416l-3.694-8.375h-1.244l-3.706 8.375h1.417l.861-2.008h4.088zm-4.458-3.19 1.551-3.609 1.54 3.61zm13.409-1.354v1.232h2.819c-.295 1.28-1.243 2.217-2.721 2.217-1.785 0-2.991-1.391-2.991-3.006 0-1.896 1.318-3.19 3.078-3.19.985 0 2.154.469 2.584 1.762h1.417c-.492-1.995-2.217-2.993-4.026-2.993-2.438 0-4.395 1.823-4.395 4.421 0 2.328 1.835 4.25 4.334 4.25 1.429 0 2.425-.617 3.017-1.59l.098 1.441h1.047v-4.544zm14.762 4.544h1.625l-2.34-3.042c1.133-.395 1.871-1.319 1.871-2.563 0-1.688-1.354-2.772-3.226-2.772h-3.361v8.376h1.33v-2.833h1.933l2.166 2.833zm-4.1-7.157h1.982c1.12 0 1.969.592 1.969 1.552s-.849 1.551-1.969 1.551h-1.982zm9.824-1.22v8.376h1.33v-8.376zm10.281 7.293c-1.711 0-3.005-1.305-3.005-3.105 0-1.811 1.294-3.104 3.005-3.104 1.392 0 2.352.788 2.685 2.081h1.366c-.393-2.008-1.958-3.313-4.051-3.313-2.413 0-4.346 1.823-4.346 4.336 0 2.501 1.933 4.348 4.346 4.348 2.093 0 3.658-1.33 4.051-3.338h-1.366c-.332 1.306-1.293 2.095-2.685 2.095m15.772-7.293h-1.318v4.693c0 1.54-.948 2.6-2.352 2.6s-2.339-1.06-2.339-2.6v-4.693h-1.33v4.693c0 2.353 1.478 3.831 3.669 3.831 2.204 0 3.67-1.478 3.67-3.83zm6.083 7.144v-7.144h-1.33v8.376h5.799v-1.232zm13.519-7.144h-7.253v1.22h2.967v7.157h1.318v-7.157h2.968zm11.277 0h-1.317v4.693c0 1.54-.948 2.6-2.351 2.6s-2.34-1.06-2.34-2.6v-4.693h-1.33v4.693c0 2.353 1.477 3.831 3.67 3.831 2.203 0 3.67-1.478 3.67-3.83v-4.694zm10.183 8.376h1.624l-2.339-3.043c1.133-.395 1.871-1.318 1.871-2.563 0-1.688-1.355-2.771-3.226-2.771h-3.361v8.375h1.329v-2.832h1.934l2.166 2.832zm-4.1-7.157h1.983c1.12 0 1.97.591 1.97 1.551s-.85 1.552-1.97 1.552h-1.983v-3.105zm16.473 7.157h1.417l-3.693-8.376h-1.243l-3.707 8.376h1.417l.861-2.008h4.088l.862 2.008zm-4.457-3.19 1.551-3.61 1.538 3.61zm11.364 1.958v-7.144h-1.33v8.376h5.799v-1.232zm17.951-5.924v-1.22h-6.007v8.376h6.007v-1.232h-4.679v-2.303h4.186v-1.22h-4.186v-2.4zm11.536 7.157-3.016-4.15 2.93-4.225h-1.614l-2.203 3.166-2.204-3.166h-1.614l2.93 4.224-3.005 4.151h1.54l2.363-3.152 2.352 3.152zm7.621-1.084c-1.711 0-3.004-1.305-3.004-3.105 0-1.811 1.293-3.104 3.004-3.104 1.392 0 2.352.788 2.685 2.081h1.366c-.393-2.008-1.958-3.313-4.051-3.313-2.413 0-4.346 1.823-4.346 4.336 0 2.501 1.933 4.348 4.346 4.348 2.093 0 3.657-1.33 4.051-3.338h-1.366c-.332 1.306-1.293 2.095-2.685 2.095m14.664-6.073v-1.22h-6.008v8.376h6.008v-1.232h-4.679v-2.303h4.186v-1.22h-4.186v-2.4zm5.848 5.924v-7.144h-1.33v8.376h5.799v-1.232zm10.009 0v-7.144h-1.33v8.376h5.8v-1.232zm14.689-5.924v-1.22h-6.008v8.376h6.008v-1.232h-4.68v-2.303h4.187v-1.22h-4.187v-2.4zm10.527-1.22v6.036l-4.986-6.036h-1.022v8.376h1.33v-5.913l4.938 5.913h1.058v-8.376zm10.268 7.293c-1.712 0-3.005-1.305-3.005-3.105 0-1.811 1.293-3.104 3.005-3.104 1.391 0 2.351.788 2.684 2.081h1.367c-.393-2.008-1.958-3.313-4.051-3.313-2.413 0-4.347 1.823-4.347 4.336 0 2.501 1.934 4.348 4.347 4.348 2.093 0 3.658-1.33 4.051-3.338h-1.367c-.331 1.306-1.293 2.095-2.684 2.095m14.664-6.073v-1.22h-6.008v8.376h6.008v-1.232h-4.68v-2.303h4.186v-1.22h-4.186v-2.4zM117.577 16.587v-4.092H91.395v38.124h4.428V34.696h19.398v-4.093H95.823V16.587zm23.798 8.017v2.69c-2.299-2.129-5.439-3.363-9.139-3.363-7.457 0-13.4 6.11-13.4 13.68 0 7.625 5.943 13.68 13.4 13.68 3.7 0 6.84-1.233 9.139-3.364v2.69h4.261V24.604zm-8.578 22.762c-5.494 0-9.7-4.373-9.7-9.755s4.206-9.755 9.7-9.755c3.42 0 6.448 1.288 8.578 4.428v10.652c-2.13 3.14-5.158 4.429-8.578 4.429zm24.806-18.5v-4.262h-4.261V50.62h4.261V33.687c2.299-3.588 5.775-5.55 10.036-5.663v-4.036c-4.148 0-7.625 1.794-10.036 4.878m46.224-4.934c-4.148 0-7.345 1.57-9.867 4.317-1.793-2.86-4.877-4.317-8.858-4.317-3.756 0-6.447 1.29-8.578 3.476v-2.804h-4.261V50.62h4.261V32.23c2.018-3.026 4.877-4.372 8.129-4.372 3.981 0 6.727 2.074 6.727 7.176V50.62h4.261V35.033c0-1.01-.056-1.906-.225-2.747 2.075-3.14 4.99-4.429 8.129-4.429 4.262 0 6.952 2.243 6.952 7.401v15.361h4.261V35.258c0-7.457-4.317-11.326-10.932-11.326zm22.285 17.38-8.073-.055c.616 7.232 6.391 10.092 13.4 10.092 7.12 0 12.726-2.804 12.726-9.083 0-4.822-3.42-7.288-8.467-8.242l-5.046-.842c-2.187-.392-2.859-1.233-2.859-2.187 0-1.01 1.065-1.85 3.42-1.85 2.523 0 4.485.896 4.653 2.915h8.017c-.392-7.177-6.223-9.364-12.67-9.364-7.232 0-12.11 3.364-12.11 9.083 0 4.766 3.307 7.401 7.962 8.185l5.494.953c1.793.28 2.859.952 2.859 1.906 0 1.177-1.513 1.85-3.925 1.85-2.859 0-4.989-1.01-5.382-3.365zm42.371.562c-1.627.616-3.084 1.121-4.822 1.121-2.635 0-4.261-1.29-4.261-4.092V31.22h9.25v-7.79h-9.25v-9.25h-9.083v9.25h-5.327v7.792h5.327v7.962c0 7.345 4.485 12.166 11.885 12.166 1.569 0 4.486-.168 7.288-1.346l-1.009-8.13zm22.916-18.445v1.401c-2.019-1.346-4.43-2.13-7.457-2.13-7.345 0-13.511 6.168-13.511 14.297 0 8.074 6.167 14.353 13.511 14.353 3.028 0 5.438-.841 7.457-2.187v1.457h9.083V23.43zm-5.607 20.183c-3.701 0-6.447-2.86-6.447-6.616s2.748-6.616 6.447-6.616c1.962 0 3.869.505 5.607 2.41v8.41c-1.738 1.906-3.645 2.41-5.607 2.41zm37.94-20.632c-4.036 0-6.951 1.288-9.363 3.364v-2.915h-9.139V50.62h9.139V35.035c2.13-2.074 4.933-3.251 9.363-3.42zm53.569 27.639h10.877l-11.213-16.09 10.316-11.102H376.46l-9.419 10.147V10.813h-9.139v39.805h9.139v-5.383l3.756-4.037zm-36.82-6.952c-3.926 0-6.224-2.97-6.224-6.671s2.298-6.616 6.224-6.616c2.747 0 4.877 1.738 5.326 4.206h8.578c-.672-7.008-6.446-11.885-13.96-11.885-8.523 0-14.858 6.054-14.858 14.296 0 8.298 6.335 14.353 14.858 14.353 7.512 0 13.287-4.878 13.96-11.885h-8.578c-.449 2.467-2.579 4.205-5.326 4.205z"/><path fill="#00C700" fill-rule="evenodd" d="M39.925 0c22.05 0 39.926 17.32 39.926 38.685S61.975 77.37 39.925 77.37 0 60.05 0 38.685C0 17.321 17.875 0 39.925 0" clip-rule="evenodd"/><path fill="#fff" fill-rule="evenodd" d="M44.127 21.29c-.005-.004-.01.015-.015.022.013-.063 0-.019.023-.08l.021-.046c.022-.043.038-.062.065-.096l-.094.202zm-21.068 7.403 15.635 10.662v10.234L22.916 38.787zm2.22 14.946 13.415 8.941v10.234l-13.558-9.082zm31.51-14.947L41.155 39.356V49.59l15.78-10.802zM54.773 43.64l-13.619 8.94v10.234l13.761-9.082zm-31.03-25.942c.105.078.281.145.416.222.327.184.862.593 1.144.848 1.448 1.308 2.642 3.404 3.746 5.085 1.19 1.81 2.34 3.35 4.115 4.412.33.197 1.373.66 1.812.688-.003-.973.237-2.11.534-3.018.236-.719.543-1.365.875-2.025.092-.182.311-.476.326-.674-.372-.376-2.497-1.855-2.898-2.095-.83-.493-1.406-.9-2.272-1.346l-.788-.413c.276.035 1.402.498 1.682.63 1.506.708 2.506 1.251 3.885 2.164.216.143.548.416.747.505.13-.11.529-.762.718-1.017.78-1.058 1.596-1.954 2.565-2.89-.238-.317-1.211-.89-1.567-1.092-.531-.304-1.147-.552-1.777-.786-3.228-1.189-7.56-1.19-10.96-.155-.487.147-2.028.68-2.305.955zm20.37 3.615c-.023.187-.14.38-.214.57l-.579 1.682c-1.243 3.694-1.85 8.387-1.802 12.349.01.857-.062.743.806.417 11.078-4.163 5.419-12.978 5.88-19.395.109-1.525.446-1.874.536-2.376-3.877 1.106-6.923 3.279-9.408 6.072l-1.057 1.3-.907 1.354c-.902 1.42-2.041 3.997-1.815 6.463.18 1.965 1.234 3.826 2.71 4.942.352.264.97.749 1.348.91.053.244-.073 1.336-.092 1.691-.024.411-.1 1.286-.047 1.669l.966-.122c.055-.216.023-.922.028-1.212.046-2.931.192-5.237.735-8.157.31-1.672.65-2.73 1.139-4.267.183-.578 1.447-3.64 1.775-3.89z" clip-rule="evenodd"/></svg>