<svg xmlns="http://www.w3.org/2000/svg" width="44" height="46" fill="none"><path fill="#00C700" d="M21.563 8.625q2.672 0 5.03 1.01a12.8 12.8 0 0 1 4.111 2.786 13.3 13.3 0 0 1 2.763 4.11q1.01 2.337 1.033 5.032 0 1.414-.18 2.65t-.561 2.358-.989 2.224a22 22 0 0 1-1.437 2.246 80 80 0 0 0-1.145 1.617q-.495.72-.81 1.438a7 7 0 0 0-.47 1.572 11 11 0 0 0-.158 1.999v4.02q0 .9-.337 1.685t-.92 1.37q-.585.585-1.37.921a4.2 4.2 0 0 1-1.686.337h-5.75q-.898 0-1.684-.337a4.3 4.3 0 0 1-1.37-.92 4.3 4.3 0 0 1-.921-1.37 4.2 4.2 0 0 1-.337-1.685v-4.044q0-1.145-.157-1.976a7.2 7.2 0 0 0-.472-1.55q-.315-.719-.809-1.46a39 39 0 0 0-1.145-1.617 20 20 0 0 1-1.415-2.224 15.5 15.5 0 0 1-.988-2.223 12.6 12.6 0 0 1-.584-2.381q-.18-1.236-.18-2.65 0-2.674 1.01-5.032a12.8 12.8 0 0 1 2.786-4.11 13.3 13.3 0 0 1 4.11-2.763q2.337-1.01 5.032-1.033m4.312 33.063V40.25H17.25v1.438q0 .584.427 1.01.426.427 1.01.427h5.75q.585 0 1.011-.427.427-.426.427-1.01m5.75-20.126q0-2.088-.786-3.908a10.5 10.5 0 0 0-2.156-3.212 9.7 9.7 0 0 0-3.19-2.156q-1.82-.763-3.93-.786-2.09 0-3.909.786a10.5 10.5 0 0 0-3.212 2.156 9.7 9.7 0 0 0-2.156 3.19q-.763 1.82-.786 3.93 0 2 .404 3.437.405 1.438 1.056 2.56.65 1.124 1.37 2.112.72.989 1.37 2.066.651 1.08 1.078 2.426.427 1.349.472 3.212h8.625q.023-1.864.45-3.19.426-1.325 1.077-2.425.652-1.101 1.37-2.067.72-.966 1.37-2.111.652-1.146 1.056-2.583.405-1.437.427-3.436M21.563 5.75q-.585 0-1.011-.427a1.38 1.38 0 0 1-.427-1.01V1.438q0-.585.427-1.011A1.38 1.38 0 0 1 21.562 0q.585 0 1.011.427.427.426.427 1.01v2.875q0 .585-.427 1.011a1.38 1.38 0 0 1-1.01.427M4.313 20.844H1.438q-.585 0-1.011-.427A1.38 1.38 0 0 1 0 19.407q0-.585.427-1.012a1.38 1.38 0 0 1 1.01-.426h2.875q.585 0 1.011.426.427.428.427 1.011 0 .585-.427 1.011a1.38 1.38 0 0 1-1.01.427m1.19 5.862q.585 0 1.01.427.427.427.427 1.033 0 .45-.247.786-.246.337-.673.54-.248.111-.674.291-.428.18-.921.382-.495.202-.899.337-.405.135-.718.157-.585 0-1.011-.427A1.4 1.4 0 0 1 1.37 29.2q0-.45.247-.786.248-.336.674-.539.248-.09.674-.292t.92-.382.9-.337q.403-.156.718-.157M8.917 12.22q0 .585-.427 1.01a1.38 1.38 0 0 1-1.01.427q-.405 0-.742-.202L4.29 11.95a1.5 1.5 0 0 1-.494-.516q-.18-.315-.202-.72 0-.582.427-1.01a1.38 1.38 0 0 1 1.01-.427q.36 0 .741.225l2.471 1.482q.315.18.494.517.18.337.18.719m1.864-8.266q0-.584.427-1.01a1.38 1.38 0 0 1 1.01-.427q.383 0 .72.202t.539.539l1.392 2.515q.18.315.18.674 0 .607-.427 1.033a1.38 1.38 0 0 1-1.01.427q-.383 0-.72-.202a1.55 1.55 0 0 1-.538-.539L10.96 4.649q-.18-.314-.18-.696M41.688 17.97q.584 0 1.01.426.427.428.427 1.011 0 .585-.427 1.011a1.38 1.38 0 0 1-1.01.427h-2.876q-.584 0-1.01-.427a1.38 1.38 0 0 1-.427-1.01q0-.585.427-1.012a1.38 1.38 0 0 1 1.01-.426zm.044 11.253q0 .584-.426 1.01a1.38 1.38 0 0 1-1.011.427q-.248 0-.674-.135a8 8 0 0 1-.92-.359q-.495-.225-.9-.382a6 6 0 0 1-.696-.314q-.405-.18-.65-.54a1.53 1.53 0 0 1-.27-.808q0-.606.426-1.01.428-.405 1.034-.427.27 0 .696.157.427.157.898.36.472.201.899.404.426.202.696.291.405.18.651.517.247.337.247.809m-6.087-15.566q-.584 0-1.01-.427a1.38 1.38 0 0 1-.427-1.01q0-.382.18-.719t.494-.517l2.47-1.482a1.46 1.46 0 0 1 .742-.225q.585 0 1.01.427.427.428.427 1.01 0 .383-.18.697-.18.315-.516.54l-2.448 1.504a1.4 1.4 0 0 1-.742.202m-7.569-7.21q0-.36.18-.674l1.392-2.515q.18-.337.517-.54.338-.201.741-.201.585 0 1.011.426.427.428.427 1.011 0 .383-.18.696l-1.393 2.516q-.18.337-.516.54a1.4 1.4 0 0 1-.741.201q-.585 0-1.011-.427a1.4 1.4 0 0 1-.427-1.033"/></svg>