<svg width="36" height="36" viewBox="0 0 36 36" fill="none" xmlns="http://www.w3.org/2000/svg">
<path d="M36 5.14286V2.57143H32.1429V0H29.5714V2.57143H28.2857C26.8676 2.57143 25.7143 3.726 25.7143 5.14286V7.71429C25.7143 9.13243 26.8676 10.2857 28.2857 10.2857H33.4286V12.8571H25.7143V15.4286H29.5714V18H32.1429V15.4286H33.4286C34.8467 15.4286 36 14.2753 36 12.8571V10.2857C36 8.86886 34.8467 7.71429 33.4286 7.71429H28.2857V5.14286H36ZM28.2857 23.1429V25.7143H31.6106L27 30.3249L24.0531 27.3767C23.8124 27.1359 23.4859 27.0004 23.1454 27H23.1429C22.8023 27.0004 22.4759 27.1359 22.2351 27.3767L15.4286 34.182L17.2466 36L23.1441 30.1037L26.091 33.0519C26.3321 33.2929 26.6591 33.4283 27 33.4283C27.3409 33.4283 27.6679 33.2929 27.909 33.0519L33.4286 27.5323V30.8571H36V23.1429H28.2857ZM2.57143 36H0V29.5714C0 24.6086 4.03714 20.5714 9 20.5714H16.7143C19.2716 20.5714 21.7157 21.6643 23.4219 23.571L21.5061 25.2861C20.9032 24.6119 20.1647 24.0724 19.3389 23.7031C18.5132 23.3338 17.6188 23.1429 16.7143 23.1429H9C5.45529 23.1429 2.57143 26.0267 2.57143 29.5714V36ZM12.8571 18C15.2441 18 17.5333 17.0518 19.2211 15.364C20.9089 13.6761 21.8571 11.3869 21.8571 9C21.8571 6.61305 20.9089 4.32387 19.2211 2.63604C17.5333 0.948211 15.2441 0 12.8571 0C10.4702 0 8.18101 0.948211 6.49318 2.63604C4.80535 4.32387 3.85714 6.61305 3.85714 9C3.85714 11.3869 4.80535 13.6761 6.49318 15.364C8.18101 17.0518 10.4702 18 12.8571 18ZM12.8571 2.57143C14.5621 2.57143 16.1972 3.24872 17.4028 4.45431C18.6084 5.6599 19.2857 7.29504 19.2857 9C19.2857 10.705 18.6084 12.3401 17.4028 13.5457C16.1972 14.7513 14.5621 15.4286 12.8571 15.4286C11.1522 15.4286 9.51705 14.7513 8.31146 13.5457C7.10587 12.3401 6.42857 10.705 6.42857 9C6.42857 7.29504 7.10587 5.6599 8.31146 4.45431C9.51705 3.24872 11.1522 2.57143 12.8571 2.57143Z" fill="white"/>
</svg>
