<svg width="26" height="26" viewBox="0 0 26 26" fill="none" xmlns="http://www.w3.org/2000/svg">
<path d="M11.9167 15.8893C11.6294 15.8893 11.3538 15.7752 11.1507 15.572C10.9475 15.3689 10.8334 15.0933 10.8334 14.806C10.8334 14.5187 10.9475 14.2431 11.1507 14.04C11.3538 13.8368 11.6294 13.7227 11.9167 13.7227C12.204 13.7227 12.4796 13.8368 12.6827 14.04C12.8859 14.2431 13 14.5187 13 14.806C13 15.0933 12.8859 15.3689 12.6827 15.572C12.4796 15.7752 12.204 15.8893 11.9167 15.8893Z" fill="white"/>
<path fill-rule="evenodd" clip-rule="evenodd" d="M2.4765 10.1111C2.61709 10.1111 2.75456 10.0996 2.88889 10.0764V15.8889H1.08333C0.987562 15.8889 0.895712 15.9269 0.82799 15.9946C0.760269 16.0624 0.722223 16.1542 0.722223 16.25V16.9722C0.722223 17.068 0.760269 17.1598 0.82799 17.2276C0.895712 17.2953 0.987562 17.3333 1.08333 17.3333H24.9167C25.0124 17.3333 25.1043 17.2953 25.172 17.2276C25.2397 17.1598 25.2778 17.068 25.2778 16.9722V16.25C25.2778 16.1542 25.2397 16.0624 25.172 15.9946C25.1043 15.9269 25.0124 15.8889 24.9167 15.8889H23.1111V10.0764C23.2459 10.0996 23.3834 10.1111 23.5235 10.1111C24.8972 10.1111 26 8.99022 26 7.62016V5.89405C26.0005 5.66499 25.9607 5.43762 25.8823 5.22239L24.3078 0.881833C24.2144 0.623487 24.0437 0.40021 23.8188 0.242413C23.5939 0.0846155 23.3259 -3.16112e-05 23.0512 8.85556e-09H2.94811C2.67356 0.000318893 2.40577 0.0852094 2.18118 0.243123C1.95658 0.401036 1.78609 0.624306 1.69289 0.882555L0.118446 5.22239C0.0398134 5.43758 -0.000281214 5.66495 1.48455e-06 5.89405V7.62016C1.48455e-06 8.99022 1.10283 10.1111 2.4765 10.1111ZM1.47622 5.71494L3.02539 1.44444H22.9739L24.5231 5.71494C24.5442 5.77272 24.5548 5.83242 24.5548 5.89405V7.62016C24.5566 7.89574 24.4488 8.16074 24.2553 8.35696C24.0618 8.55317 23.7983 8.66456 23.5228 8.66666C22.9594 8.66666 22.4914 8.20444 22.4914 7.62016C22.4914 7.42862 22.4153 7.24492 22.2799 7.10948C22.1445 6.97403 21.9608 6.89794 21.7692 6.89794C21.5777 6.89794 21.394 6.97403 21.2585 7.10948C21.1231 7.24492 21.047 7.42862 21.047 7.62016C21.0487 7.89574 20.941 8.16074 20.7475 8.35696C20.554 8.55317 20.2905 8.66456 20.0149 8.66666C19.4516 8.66666 18.9836 8.20444 18.9836 7.62089C18.9836 7.42934 18.9075 7.24564 18.7721 7.1102C18.6366 6.97476 18.4529 6.89866 18.2614 6.89866C18.0698 6.89866 17.8861 6.97476 17.7507 7.1102C17.6153 7.24564 17.5392 7.42934 17.5392 7.62089C17.5392 8.20444 17.0712 8.66666 16.5071 8.66666C15.9431 8.66666 15.4758 8.20444 15.4758 7.62016C15.4758 7.42862 15.3997 7.24492 15.2642 7.10948C15.1288 6.97403 14.9451 6.89794 14.7536 6.89794C14.562 6.89794 14.3783 6.97403 14.2429 7.10948C14.1074 7.24492 14.0313 7.42862 14.0313 7.62016C14.0331 7.89562 13.9254 8.16051 13.7321 8.3567C13.5387 8.5529 13.2754 8.66437 13 8.66666C12.7245 8.66456 12.4612 8.55327 12.2677 8.35721C12.0742 8.16115 11.9664 7.89634 11.9679 7.62089C11.9679 7.42934 11.8919 7.24564 11.7564 7.1102C11.621 6.97476 11.4373 6.89866 11.2457 6.89866C11.0542 6.89866 10.8705 6.97476 10.735 7.1102C10.5996 7.24564 10.5235 7.42934 10.5235 7.62089C10.5235 8.20444 10.0562 8.66666 9.49216 8.66666C8.92811 8.66666 8.46011 8.20444 8.46011 7.62016C8.46011 7.42862 8.38402 7.24492 8.24858 7.10948C8.11313 6.97403 7.92943 6.89794 7.73789 6.89794C7.54634 6.89794 7.36264 6.97403 7.2272 7.10948C7.09176 7.24492 7.01567 7.42862 7.01567 7.62016C7.01567 8.20372 6.54839 8.66666 5.98433 8.66666C5.42028 8.66666 4.95228 8.20444 4.95228 7.62016C4.95228 7.42862 4.87619 7.24492 4.74074 7.10948C4.6053 6.97403 4.4216 6.89794 4.23006 6.89794C4.03851 6.89794 3.85481 6.97403 3.71937 7.10948C3.58392 7.24492 3.50783 7.42862 3.50783 7.62016C3.50783 8.20372 3.04056 8.66666 2.4765 8.66666C1.91172 8.66666 1.44445 8.20444 1.44445 7.62016V5.89405C1.44445 5.83194 1.45504 5.77224 1.47622 5.71494ZM21.6667 9.477C21.2142 9.8861 20.6257 10.1121 20.0157 10.1111C19.6894 10.1117 19.3663 10.0472 19.0652 9.92145C18.7641 9.79571 18.4911 9.61122 18.2621 9.37877C18.033 9.61131 17.7599 9.79585 17.4587 9.92159C17.1575 10.0473 16.8342 10.1118 16.5078 10.1111C16.1815 10.1117 15.8584 10.0472 15.5573 9.92145C15.2563 9.79571 14.9832 9.61122 14.7543 9.37877C14.5252 9.61131 14.2521 9.79585 13.9509 9.92159C13.6497 10.0473 13.3264 10.1118 13 10.1111C12.6736 10.1118 12.3503 10.0473 12.0491 9.92159C11.7479 9.79585 11.4748 9.61131 11.2457 9.37877C11.0167 9.61122 10.7437 9.79571 10.4427 9.92145C10.1416 10.0472 9.81845 10.1117 9.49216 10.1111C8.80533 10.1111 8.18494 9.83016 7.73789 9.37877C7.50891 9.61122 7.23591 9.79571 6.93482 9.92145C6.63374 10.0472 6.31062 10.1117 5.98433 10.1111C5.34878 10.1111 4.771 9.87061 4.33333 9.477V15.8889H6.13889C6.04312 15.8889 5.95127 15.8508 5.88354 15.7831C5.81582 15.7154 5.77778 15.6235 5.77778 15.5278V14.0833C5.77778 13.9876 5.81582 13.8957 5.88354 13.828C5.95127 13.7603 6.04312 13.7222 6.13889 13.7222H8.30555C8.40133 13.7222 8.49318 13.7603 8.5609 13.828C8.62862 13.8957 8.66667 13.9876 8.66667 14.0833V14.4444H9.75C9.84577 14.4444 9.93762 14.4825 10.0053 14.5502C10.0731 14.6179 10.1111 14.7098 10.1111 14.8056V15.5278C10.1111 15.6235 10.0731 15.7154 10.0053 15.7831C9.93762 15.8508 9.84577 15.8889 9.75 15.8889H21.6667V9.477ZM1.44445 19.5C1.44445 19.3084 1.52054 19.1247 1.65598 18.9893C1.79142 18.8539 1.97512 18.7778 2.16667 18.7778H23.8333C24.0249 18.7778 24.2086 18.8539 24.344 18.9893C24.4795 19.1247 24.5555 19.3084 24.5555 19.5V25.2778C24.5555 25.4693 24.4795 25.653 24.344 25.7885C24.2086 25.9239 24.0249 26 23.8333 26H2.16667C1.97512 26 1.79142 25.9239 1.65598 25.7885C1.52054 25.653 1.44445 25.4693 1.44445 25.2778V19.5ZM2.88889 24.5555V20.2222H23.1111V24.5555H2.88889Z" fill="white"/>
</svg>
