<svg width="48" height="37" viewBox="0 0 48 37" fill="none" xmlns="http://www.w3.org/2000/svg">
<path d="M39.2153 16.6776C40.4541 16.3518 41.5473 15.5621 42.2859 14.4595C43.0245 13.3568 43.3567 12.0185 43.2189 10.7003C43.0812 9.38209 42.4833 8.17649 41.5393 7.3138C40.5954 6.45118 39.3717 5.99198 38.1022 6.02403M8.95857 16.6776C7.71972 16.3518 6.62651 15.5621 5.88794 14.4595C5.14931 13.3568 4.81714 12.0185 4.95491 10.7003C5.09263 9.38209 5.69057 8.17649 6.63452 7.3138C7.5784 6.45118 8.80211 5.99198 10.0717 6.02403M40.7027 23.4907L40.9695 23.4156C43.4947 22.7053 46 24.603 46 27.2263C46 31.5988 42.4554 35.1434 38.0829 35.1434H38M7.29732 23.4907L7.03051 23.4156C4.50526 22.7053 2 24.603 2 27.2263C2 31.5988 5.54463 35.1434 9.91714 35.1434H10" stroke="white" stroke-width="2.5" stroke-linecap="round"/>
<path d="M24.0002 16.8571C28.2607 16.8571 31.7145 13.5313 31.7145 9.42857C31.7145 5.32588 28.2607 2 24.0002 2C19.7397 2 16.2859 5.32588 16.2859 9.42857C16.2859 13.5313 19.7397 16.8571 24.0002 16.8571Z" stroke="white" stroke-width="2.5"/>
<path d="M11.7142 25.9641C11.7142 22.6201 15.004 20.2688 18.1678 21.3514L19.9643 21.9662C22.5803 22.8613 25.4196 22.8613 28.0355 21.9662L29.8321 21.3514C32.9959 20.2688 36.2857 22.6201 36.2857 25.9641C36.2857 31.349 31.9202 35.7145 26.5353 35.7145H21.4646C16.0797 35.7145 11.7142 31.349 11.7142 25.9641Z" stroke="white" stroke-width="2.5"/>
</svg>
