<svg xmlns="http://www.w3.org/2000/svg" width="40" height="34" fill="none"><path fill="#00C700" fill-rule="evenodd" d="M36.662 27.026a.4.4 0 0 0-.194-.038h-4.865c-5.469 0-10.288-4.318-10.288-10.12 0-5.803 4.819-10.121 10.288-10.121h4.865a.424.424 0 0 0 .426-.536c-.385-1.372-1-2.543-1.985-3.53C33.465 1.24 31.636.6 29.376.295 27.181 0 24.374 0 20.831 0h-4.072c-3.543 0-6.347 0-8.545.293-2.26.305-4.089.945-5.533 2.387C1.24 4.123.6 5.953.295 8.212 0 10.41 0 13.216 0 16.76v.215c0 3.544 0 6.348.295 8.546.305 2.26.945 4.089 2.386 5.532 1.444 1.442 3.274 2.082 5.533 2.387 2.195.295 5.002.295 8.544.295h4.074c3.543 0 6.347 0 8.544-.295 2.26-.305 4.09-.943 5.533-2.388.985-.984 1.6-2.156 1.986-3.528a.425.425 0 0 0-.233-.498M6.207 8.134a1.45 1.45 0 0 1 1.022-.423h7.71a1.446 1.446 0 0 1 0 2.891H7.23a1.446 1.446 0 0 1-1.022-2.468M36.47 9.64q.185-.002.349.008a3.39 3.39 0 0 1 3.173 3.138c.008.116.008.241.008.357v7.452c0 .116 0 .241-.008.357a3.383 3.383 0 0 1-3.385 3.146h-5.004c-3.985 0-7.397-3.139-7.397-7.23 0-4.09 3.41-7.228 7.397-7.228zm-3.437 7.229c0 1.064-.83 1.928-1.856 1.928-1.028 0-1.859-.864-1.859-1.928s.831-1.928 1.859-1.928c1.025 0 1.856.864 1.856 1.928" clip-rule="evenodd"/></svg>