<svg width="52" height="52" viewBox="0 0 52 52" fill="none" xmlns="http://www.w3.org/2000/svg">
<path d="M33.7545 31.961C32.9109 30.6256 32.475 29.0734 32.5 27.4942C32.5251 25.9149 33.0101 24.3773 33.8956 23.0693C34.7811 21.7614 36.0288 20.7399 37.4859 20.1299C38.943 19.5199 40.5464 19.3478 42.0998 19.6347C43.6533 19.9215 45.0894 20.655 46.2324 21.7452C47.3754 22.8354 48.1758 24.2351 48.5355 25.773C48.8953 27.3109 48.7988 28.9203 48.258 30.4043C47.7171 31.8883 46.7553 33.1824 45.4902 34.1283C49.439 36.3054 52 40.4874 52 45.4915V50.3656C52 50.7965 51.8288 51.2097 51.524 51.5144C51.2193 51.8191 50.806 51.9902 50.375 51.9902C49.944 51.9902 49.5307 51.8191 49.226 51.5144C48.9212 51.2097 48.75 50.7965 48.75 50.3656V45.4915C48.75 39.8895 44.603 35.7433 39 35.7433C36.0425 35.7433 34.7815 35.6783 33.1338 35.3469C29.0712 34.5215 25.5515 32.0975 21.4825 27.0089C21.3372 26.844 21.2269 26.6512 21.1583 26.4424C21.0897 26.2336 21.0642 26.013 21.0833 25.794C21.1024 25.575 21.1658 25.3622 21.2695 25.1684C21.3733 24.9746 21.5153 24.8039 21.687 24.6666C21.8587 24.5293 22.0564 24.4283 22.2683 24.3696C22.4802 24.3109 22.7017 24.2958 22.9196 24.3252C23.1375 24.3546 23.3471 24.428 23.5358 24.5407C23.7246 24.6535 23.8884 24.8034 24.0175 24.9813C26.9425 28.6336 29.3898 30.6353 31.928 31.6198C32.4318 31.7888 33.0492 31.8895 33.7545 31.961ZM39.5557 32.3769C39.8266 32.4094 40.0985 32.4462 40.3715 32.4874L40.625 32.4939C41.8712 32.4911 43.069 32.0113 43.9723 31.1531C44.8757 30.2948 45.416 29.1233 45.4823 27.8791C45.5486 26.6349 45.1358 25.4126 44.3288 24.4633C43.5217 23.5139 42.3817 22.9096 41.1429 22.7745C39.904 22.6394 38.6605 22.9837 37.6677 23.7368C36.6749 24.4898 36.0083 25.5944 35.8047 26.8236C35.6011 28.0528 35.8761 29.3132 36.5731 30.3461C37.2701 31.3789 38.3395 32.1056 39.5557 32.3769ZM31.785 38.8952C32.216 38.8952 32.6293 39.0664 32.934 39.3711C33.2388 39.6758 33.41 40.089 33.41 40.5199C33.3857 40.7756 33.3312 41.0276 33.2475 41.2705C32.6657 42.5053 32.5 43.7855 32.5 45.5012V50.3753C32.5 50.8062 32.3288 51.2194 32.024 51.5241C31.7193 51.8288 31.306 52 30.875 52C30.444 52 30.0307 51.8288 29.726 51.5241C29.4212 51.2194 29.25 50.8062 29.25 50.3753V45.5012C29.25 43.3664 29.484 41.6474 30.2478 39.9902C30.3581 39.6704 30.5655 39.393 30.8411 39.1967C31.1166 39.0004 31.4466 38.895 31.785 38.8952ZM19.3635 18.7555C19.6171 19.093 19.7293 19.5159 19.6765 19.9347C19.6237 20.3535 19.4099 20.7353 19.0804 20.9992C18.7509 21.2632 18.3316 21.3885 17.9113 21.3488C17.491 21.3091 17.1027 21.1074 16.8285 20.7864L10.1075 12.3867C9.96222 12.2217 9.85193 12.029 9.78331 11.8201C9.71469 11.6113 9.68917 11.3907 9.70828 11.1718C9.7274 10.9528 9.79076 10.74 9.89453 10.5462C9.9983 10.3524 10.1403 10.1817 10.312 10.0444C10.4837 9.90705 10.6814 9.80599 10.8933 9.74731C11.1052 9.68863 11.3267 9.67354 11.5446 9.70296C11.7625 9.73238 11.9721 9.8057 12.1608 9.91847C12.3496 10.0312 12.5134 10.1811 12.6425 10.3591L19.3635 18.7555ZM3.25 35.7433H21.125C21.556 35.7433 21.9693 35.9145 22.274 36.2192C22.5788 36.5238 22.75 36.9371 22.75 37.368C22.75 37.7989 22.5788 38.2121 22.274 38.5168C21.9693 38.8215 21.556 38.9927 21.125 38.9927H1.625C1.19402 38.9927 0.780698 38.8215 0.475951 38.5168C0.171205 38.2121 0 37.7989 0 37.368V1.6247C0 1.1938 0.171205 0.780552 0.475951 0.475862C0.780698 0.171173 1.19402 0 1.625 0L40.625 0C41.056 0 41.4693 0.171173 41.774 0.475862C42.0788 0.780552 42.25 1.1938 42.25 1.6247V11.3729C42.25 11.8038 42.0788 12.217 41.774 12.5217C41.4693 12.8264 41.056 12.9976 40.625 12.9976C40.194 12.9976 39.7807 12.8264 39.476 12.5217C39.1712 12.217 39 11.8038 39 11.3729V3.24939H3.25V35.7433Z" fill="#00C700"/>
</svg>
