<svg xmlns="http://www.w3.org/2000/svg" width="75" height="54" fill="none"><path fill="#141416" fill-opacity=".7" d="m32.717 7.468-9.758 14.936q4.4 1.532 7.27 5.553 2.87 3.83 2.87 9.383 0 6.894-4.783 11.873Q23.533 54 16.646 54q-6.888 0-11.863-4.787Q0 44.233 0 37.34q0-3.638 1.148-6.51 1.34-2.873 3.635-6.128L21.43 0zm41.9 0L64.86 22.404q4.4 1.532 7.27 5.553Q75 31.787 75 37.34q0 6.894-4.783 11.873Q65.433 54 58.546 54q-6.888 0-11.862-4.787Q41.9 44.233 41.9 37.34q0-3.638 1.147-6.51 1.34-2.873 3.636-6.128L63.329 0z"/></svg>