<svg xmlns="http://www.w3.org/2000/svg" width="33" height="33" fill="none"><path fill="#00C700" d="M30.25 13.406a1.04 1.04 0 0 1-1.031-1.031v-2.75c0-3.548-2.297-5.844-5.844-5.844H9.625c-3.548 0-5.844 2.296-5.844 5.844v2.75c0 .564-.467 1.031-1.031 1.031a1.04 1.04 0 0 1-1.031-1.031v-2.75c0-4.73 3.176-7.906 7.906-7.906h13.75c4.73 0 7.906 3.176 7.906 7.906v2.75c0 .564-.467 1.031-1.031 1.031m-6.875 17.875H9.625c-4.73 0-7.906-3.176-7.906-7.906v-2.75c0-.564.467-1.031 1.031-1.031s1.031.467 1.031 1.031v2.75c0 3.547 2.296 5.844 5.844 5.844h13.75c3.547 0 5.844-2.297 5.844-5.844v-2.75c0-.564.467-1.031 1.031-1.031s1.031.467 1.031 1.031v2.75c0 4.73-3.176 7.906-7.906 7.906"/><path fill="#00C700" d="m22.55 11.29-5.17-2.792a1.87 1.87 0 0 0-1.745 0l-5.184 2.791a1.19 1.19 0 0 0-.605 1.045c0 .454.233.853.605 1.059l5.17 2.791c.275.151.577.22.88.22.302 0 .605-.069.88-.22l5.17-2.791c.371-.206.605-.605.605-1.059 0-.44-.234-.839-.605-1.045m-7.783 5.858L9.955 14.74a1.19 1.19 0 0 0-1.155.055c-.344.22-.55.592-.55 1.004v4.551c0 .784.44 1.5 1.141 1.843l4.813 2.406q.247.124.536.124c.22 0 .426-.055.619-.179.357-.22.563-.591.563-1.004v-4.55a2.08 2.08 0 0 0-1.155-1.843m9.419-2.352a1.19 1.19 0 0 0-1.155-.055l-4.813 2.407a2.06 2.06 0 0 0-1.14 1.842v4.551c0 .413.205.784.563 1.004.192.124.399.179.619.179q.267 0 .536-.124l4.812-2.406a2.06 2.06 0 0 0 1.142-1.843V15.8c0-.413-.207-.785-.564-1.005"/></svg>