<svg xmlns="http://www.w3.org/2000/svg" width="40" height="38" fill="none"><path fill="#00C700" d="M40 12a2 2 0 0 0-.286-1.03l-5.418-9.03A4.02 4.02 0 0 0 30.868 0H9.132c-1.396 0-2.71.744-3.428 1.942L.286 10.97A2 2 0 0 0 0 12c0 2.01.772 3.828 2 5.236V36a2 2 0 0 0 2 2h16a2 2 0 0 0 2-2V26h8v10a2 2 0 0 0 2 2h4a2 2 0 0 0 2-2V17.236c1.228-1.408 2-3.226 2-5.236m-4.032.502A4 4 0 0 1 28 12c0-.136-.05-.256-.078-.384l.04-.008L26.44 4h4.428zm-19.954-.372L17.638 4h4.722l1.626 8.13A3.996 3.996 0 0 1 20 16a3.996 3.996 0 0 1-3.986-3.87M9.132 4h4.428l-1.52 7.608.04.008c-.03.128-.08.248-.08.384a4 4 0 0 1-7.968.502zM16 28H8v-6h8z"/></svg>