<svg xmlns="http://www.w3.org/2000/svg" width="143" height="144" fill="none"><ellipse cx="15.413" cy="7.998" fill="#0DAB52" rx="7.707" ry="7.998"/><ellipse cx="136.578" cy="21.773" fill="#0DAB52" rx="6.422" ry="6.665"/><ellipse cx="7.707" cy="105.754" fill="#0DAB52" rx="4.281" ry="4.443"/><ellipse cx="48.381" cy="139.968" fill="#0DAB52" rx="2.997" ry="3.11"/><ellipse cx="130.584" cy="87.536" fill="#0DAB52" rx="2.141" ry="2.222"/><ellipse cx="81.776" cy="3.11" fill="#0DAB52" rx="2.141" ry="2.222"/><ellipse cx="1.284" cy="59.099" fill="#0DAB52" rx="1.284" ry="1.333"/><ellipse cx="93.764" cy="135.524" fill="#0DAB52" rx="1.284" ry="1.333"/><ellipse cx="72.004" cy="71.593" fill="#00C700" rx="42.799" ry="44.419" transform="rotate(180 72.004 71.593)"/><ellipse cx="56.549" cy="59.255" fill="#fff" rx="7.133" ry="7.403"/><ellipse cx="87.46" cy="59.255" fill="#fff" rx="7.133" ry="7.403"/><path fill="#fff" d="M51.979 82.54c15.232 11.731 24.336 11.548 39.61-.13.384-.293.916.07.759.527-6.624 19.243-31.855 23.047-41.122.167-.189-.465.355-.87.753-.564"/></svg>