<svg width="38" height="38" viewBox="0 0 38 38" fill="none" xmlns="http://www.w3.org/2000/svg">
<path d="M19 25.6968L25.6968 19M19 25.6968L12.3032 18.7204M19 25.6968V10.6291M18.2901 1.29377C18.4785 1.10566 18.7338 1 19 1C19.2662 1 19.5215 1.10566 19.7099 1.29377L36.7062 18.2901C36.8943 18.4785 37 18.7338 37 19C37 19.2662 36.8943 19.5215 36.7062 19.7099L19.7099 36.7062C19.5215 36.8943 19.2662 37 19 37C18.7338 37 18.4785 36.8943 18.2901 36.7062L1.29377 19.7099C1.10566 19.5215 1 19.2662 1 19C1 18.7338 1.10566 18.4785 1.29377 18.2901L18.2901 1.29377Z" stroke="white" stroke-width="2" stroke-linecap="round" stroke-linejoin="round"/>
</svg>
